<?xml version="1.0" encoding="UTF-8" standalone="no"?>
<!-- Created with Inkscape (http://www.inkscape.org/) -->

<svg
   xmlns:dc="http://purl.org/dc/elements/1.1/"
   xmlns:cc="http://creativecommons.org/ns#"
   xmlns:rdf="http://www.w3.org/1999/02/22-rdf-syntax-ns#"
   xmlns:svg="http://www.w3.org/2000/svg"
   xmlns="http://www.w3.org/2000/svg"
   xmlns:sodipodi="http://sodipodi.sourceforge.net/DTD/sodipodi-0.dtd"
   xmlns:inkscape="http://www.inkscape.org/namespaces/inkscape"
   width="2979.9211"
   height="4212.9922"
   id="svg3241"
   version="1.1"
   inkscape:version="0.48.2 r9819"
   sodipodi:docname="mhd_welcome_poster_a0.pdf">
  <defs
     id="defs3243" />
  <sodipodi:namedview
     id="base"
     pagecolor="#ffffff"
     bordercolor="#666666"
     borderopacity="1.0"
     inkscape:pageopacity="0.0"
     inkscape:pageshadow="2"
     inkscape:zoom="0.125"
     inkscape:cx="1262.2199"
     inkscape:cy="2474.134"
     inkscape:document-units="px"
     inkscape:current-layer="layer2"
     showgrid="false"
     units="mm"
     inkscape:showpageshadow="false"
     inkscape:window-width="1920"
     inkscape:window-height="1138"
     inkscape:window-x="1592"
     inkscape:window-y="-8"
     inkscape:window-maximized="1"
     showguides="true"
     inkscape:guide-bbox="true" />
  <metadata
     id="metadata3246">
    <rdf:RDF>
      <cc:Work
         rdf:about="">
        <dc:format>image/svg+xml</dc:format>
        <dc:type
           rdf:resource="http://purl.org/dc/dcmitype/StillImage" />
        <dc:title></dc:title>
      </cc:Work>
    </rdf:RDF>
  </metadata>
  <g
     inkscape:label="Layer 1"
     inkscape:groupmode="layer"
     id="layer1"
     transform="translate(0,3160.6293)"
     sodipodi:insensitive="true">
    <rect
       style="fill:#008fcc;fill-opacity:1"
       id="rect3249"
       width="2979.9211"
       height="4212.9922"
       x="0"
       y="-1052.3629"
       transform="scale(1,-1)" />
  </g>
  <g
     inkscape:groupmode="layer"
     id="layer2"
     inkscape:label="Layer">
    <g
       id="g4332"
       transform="matrix(4.6205096,0,0,4.6205096,-236.35697,391.81893)"
       style="fill:#ffffff">
      <path
         d="m 290.58152,478.58294 c 0.5125,-1.64625 0.7175,-2.97375 0.7175,-4.10125 0,-3.17875 -1.845,-4.5125 -4.81875,-4.5125 -6.865,0 -10.96625,6.3575 -10.96625,16.70875 0,2.66125 0.41,5.025 1.1275,7.69125 7.07,-2.76875 10.76125,-5.435 13.94,-15.78625 m -23.47125,39.765 c -2.15375,-5.42875 -3.69125,-10.45375 -4.5125,-15.78125 -3.99875,2.25625 -7.075,6.1475 -8.71,11.685 -1.12875,3.58875 -1.74375,7.07 -1.74375,10.14625 0,7.5875 3.48125,13.0175 10.9675,13.0175 4.10125,0 7.89,-1.025 11.99125,-3.28125 -2.87,-3.99375 -5.33125,-9.12125 -7.9925,-15.78625 m 33.2075,18.145 c 5.64,0 10.24875,-3.89125 10.24875,-12.095 0,-1.1275 0.82125,-1.435 2.15375,-1.435 0.9225,0 1.94875,0.205 1.94875,1.435 0,13.6325 -8.60875,18.76 -21.42125,18.76 -7.28,0 -12.2025,-2.05125 -15.88875,-6.255 -6.3575,4.40875 -13.6325,6.46 -23.26625,6.46 -11.89,0 -18.145,-8.1 -18.145,-17.32375 0,-10.66 8.40375,-23.165 26.24,-26.34375 -0.205,-2.1525 -0.41,-4.10125 -0.41,-6.1475 0,-16.40125 8.60875,-27.5725 24.9075,-27.5725 10.04375,0 14.0425,4.91625 14.0425,11.17125 0,10.25 -5.74125,16.50375 -23.57375,20.39625 1.84625,7.69 6.045,20.805 10.35125,28.18875 3.58875,-3.4875 8.60875,-10.25 13.12,-18.345 5.64,-10.15125 9.94125,-12.715 15.78625,-12.715 5.43,0 7.68625,2.87125 7.68625,7.3775 0,5.235 -2.96875,9.22875 -7.58375,9.22875 -3.58875,0 -5.53625,-1.7425 -5.53625,-5.225 0,-0.7225 0.205,-1.5375 0.5125,-2.3575 -3.17375,0.82 -5.5325,3.89125 -9.53125,10.35125 -4.615,7.3775 -7.99875,11.17125 -12.8125,14.96625 3.69125,6.04375 6.045,7.48 11.17125,7.48"
         style="fill:#ffffff;fill-opacity:1;fill-rule:nonzero;stroke:none"
         id="path3415"
         inkscape:connector-curvature="0" />
      <path
         d="m 187.21777,274.94044 25.3125,-130.49875 14.81375,0 -22.875,116.8125 38.06125,0 -2.43625,13.68625 -52.87625,0 z"
         style="fill:#ffffff;fill-opacity:1;fill-rule:nonzero;stroke:none"
         id="path3417"
         inkscape:connector-curvature="0" />
      <path
         d="m 297.22777,157.37669 c -5.27375,0 -9.1075,1.50375 -11.49,4.5025 -2.3875,2.9975 -4.01875,6.50375 -4.8975,10.4975 l -13.55875,67.12875 c -0.25,1.62125 -0.49875,3.2525 -0.7525,4.87375 -0.24875,1.625 -0.37125,3.25125 -0.37125,4.8725 0,3.6275 1.09875,6.69 3.29625,9.19 2.1975,2.50375 5.7425,3.75 10.64,3.75 4.77,0 8.47125,-1.5625 11.1075,-4.6875 2.6375,-3.12125 4.395,-6.93875 5.27375,-11.43625 l 12.8075,-65.43875 c 0.24875,-1.5 0.46875,-2.99875 0.655,-4.5025 0.185,-1.49875 0.2825,-2.935 0.2825,-4.31125 0,-3.75 -0.9125,-7.03125 -2.72875,-9.84375 -1.82625,-2.8125 -5.245,-4.34125 -10.26375,-4.595 m 0.52625,-14.0625 c 4.89375,0 9.0625,0.69375 12.51,2.065 3.4475,1.3775 6.27,3.2525 8.4675,5.625 2.1925,2.37875 3.8225,5.15625 4.8875,8.345 1.06875,3.18375 1.60125,6.655 1.60125,10.405 0,1.62625 -0.0975,3.16 -0.2825,4.595 -0.18625,1.43625 -0.40625,3.0275 -0.655,4.78 l -12.75375,67.5 c -1.7475,9.25375 -5.02875,16.5 -9.84375,21.74875 -4.81,5.24875 -11.71875,7.87625 -20.7175,7.87625 -5.49875,0 -10.1225,-0.625 -13.8725,-1.875 -3.75,-1.24625 -6.7525,-2.99875 -9.00375,-5.25 -2.24625,-2.25 -3.8725,-4.9025 -4.8725,-7.96875 -1.00125,-3.06125 -1.5,-6.40625 -1.5,-10.03375 0,-3.6225 0.37625,-7.43125 1.12375,-11.435 l 12.93875,-67.5 c 1.75375,-9.24875 5.29875,-16.3775 10.625,-21.3775 5.3275,-4.995 12.44625,-7.5 21.3475,-7.5"
         style="fill:#ffffff;fill-opacity:1;fill-rule:nonzero;stroke:none"
         id="path3419"
         inkscape:connector-curvature="0" />
      <path
         d="m 353.90652,274.94044 -16.1275,0 1.1275,-130.68875 14.625,0 -1.69,63.37875 c -0.24875,6.49875 -0.46875,12.65625 -0.65375,18.4675 -0.18625,5.81 -0.46875,12.28 -0.845,19.40375 l 1.1275,0 15.18625,-39.93625 21.9375,-61.31375 15.7475,0 -50.435,130.68875 z"
         style="fill:#ffffff;fill-opacity:1;fill-rule:nonzero;stroke:none"
         id="path3421"
         inkscape:connector-curvature="0" />
      <path
         d="m 391.40652,274.94044 25.3125,-130.49875 55.87,0 -2.8125,13.6875 -41.06,0 -8.4375,43.68625 35.625,0 -2.6225,13.68625 -35.625,0 -9.00375,45.7525 41.065,0 -2.44125,13.68625 -55.87,0 z"
         style="fill:#ffffff;fill-opacity:1;fill-rule:nonzero;stroke:none"
         id="path3423"
         inkscape:connector-curvature="0" />
      <path
         d="m 461.39777,297.63044 7.7925,-40.185 15.46375,0 -5.15625,28.75 -18.1,11.435 z"
         style="fill:#ffffff;fill-opacity:1;fill-rule:nonzero;stroke:none"
         id="path3425"
         inkscape:connector-curvature="0" />
      <path
         d="m 220.15652,413.18669 -9.34,-24.18375 -8.0275,-22.87625 -0.9375,0 0,75.56125 -20.24875,0 0,-130.4975 19.6875,0 14.14,37.12375 10.24,28.31 0.9325,0 10.4975,-29.0625 14.0625,-36.37125 19.5025,0 0,130.4975 -20.255,0 0,-75.185 -0.74625,0 -8.2175,23.24625 -9.15125,23.4375 -12.13875,0 z"
         style="fill:#ffffff;fill-opacity:1;fill-rule:nonzero;stroke:none"
         id="path3427"
         inkscape:connector-curvature="0" />
      <path
         d="m 355.78652,311.37544 0,96.93875 c 0,11.3775 -2.52375,19.97125 -7.5725,25.78125 -5.04875,5.81 -13.0525,8.72125 -24.01875,8.72125 -10.9725,0 -18.98,-2.78375 -24.02375,-8.345 -5.04875,-5.56125 -7.57375,-13.59375 -7.57375,-24.0975 l 0,-98.99875 20.255,0 0,99.375 c 0,3.37375 0.83875,6.40625 2.52875,9.0975 1.69,2.69 4.595,4.0275 8.72125,4.0275 4.12,0 7.055,-1.40625 8.8075,-4.21875 1.74875,-2.8125 2.6275,-6.215 2.6275,-10.22 l 0,-98.06125 20.24875,0 z"
         style="fill:#ffffff;fill-opacity:1;fill-rule:nonzero;stroke:none"
         id="path3429"
         inkscape:connector-curvature="0" />
      <path
         d="m 439.78527,404.56419 c 0,5.87875 -0.53125,11.1575 -1.59625,15.845 -1.06875,4.6875 -2.85125,8.68625 -5.36125,11.99625 -2.505,3.31625 -5.86375,5.88 -10.05875,7.69125 -4.20375,1.81125 -9.37,2.72 -15.5125,2.72 -5.645,0 -10.5025,-0.80625 -14.575,-2.4175 -4.0775,-1.60625 -7.43125,-3.8325 -10.05875,-6.68 -2.63625,-2.85125 -4.54625,-6.20125 -5.7375,-10.05875 -1.19125,-3.8525 -1.7875,-7.96875 -1.7875,-12.34875 l 20.25,-3.935 c 0.24875,4.8725 1.18125,8.8425 2.7925,11.90375 1.61125,3.0675 4.77,4.595 9.4875,4.595 2.73,0 4.9025,-0.5275 6.51375,-1.59625 1.61125,-1.065 2.8175,-2.47125 3.6275,-4.22375 0.80125,-1.7525 1.29875,-3.755 1.485,-6.01125 0.19,-2.25 0.2825,-4.63375 0.2825,-7.13875 0,-3.13 -0.19,-5.75625 -0.56125,-7.885 -0.37625,-2.12375 -1.09375,-3.94125 -2.15875,-5.445 -1.06375,-1.50375 -2.5625,-2.8175 -4.50125,-3.945 -1.93375,-1.1225 -4.4675,-2.3775 -7.5925,-3.755 -6.25,-2.63125 -11.28,-5.3225 -15.09375,-8.07625 -3.8125,-2.75375 -6.71875,-5.66375 -8.72,-8.735 -1.9975,-3.06625 -3.31125,-6.32375 -3.93625,-9.76625 -0.625,-3.44125 -0.9375,-7.23125 -0.9375,-11.36125 0,-5.255 0.625,-10.07875 1.885,-14.46375 1.25,-4.38 3.19375,-8.16875 5.83,-11.3625 2.6275,-3.1875 5.9825,-5.66375 10.05875,-7.41625 4.0725,-1.74875 8.92625,-2.6325 14.57,-2.6325 6.14375,0 11.22125,0.9725 15.235,2.91125 4.01375,1.9375 7.2075,4.40375 9.59,7.40125 2.3825,3.00375 4.0725,6.31375 5.0775,9.9425 1.00125,3.6225 1.50375,7.12375 1.50375,10.4975 l -20.24875,4.6875 c 0,-4.75125 -0.81,-8.6225 -2.42125,-11.62625 -1.61125,-2.9975 -4.77125,-4.49625 -9.4825,-4.49625 -2.48125,0 -4.43375,0.4975 -5.86,1.49875 -1.425,1.00125 -2.5725,2.31375 -3.4425,3.935 -0.86375,1.62625 -1.425,3.37375 -1.67375,5.24875 -0.245,1.875 -0.37125,3.75 -0.37125,5.625 0,2.25125 0.12625,4.21875 0.375,5.90875 0.25,1.69 0.9675,3.28125 2.15875,4.78 1.18625,1.49875 2.96875,3.00375 5.34125,4.5025 2.37375,1.49875 5.625,3.06125 9.75125,4.6875 5.7475,2.25125 10.3425,4.6575 13.78,7.21625 3.4375,2.56375 6.03,5.37625 7.7825,8.4375 1.74875,3.06625 2.905,6.50375 3.4675,10.3125 0.56125,3.81375 0.84375,8.16 0.84375,13.0325"
         style="fill:#ffffff;fill-opacity:1;fill-rule:nonzero;stroke:none"
         id="path3431"
         inkscape:connector-curvature="0" />
      <path
         d="m 459.47277,311.19044 20.24875,0 0,130.4975 -20.24875,0 0,-130.4975 z"
         style="fill:#ffffff;fill-opacity:1;fill-rule:nonzero;stroke:none"
         id="path3433"
         inkscape:connector-curvature="0" />
      <path
         d="m 534.09777,310.06169 c 5.375,0 10,0.7475 13.87625,2.2325 3.8725,1.48375 7.09,3.55875 9.65375,6.22 2.56375,2.66125 4.43875,5.82 5.625,9.4875 1.18625,3.6675 1.7825,7.685 1.7825,12.06 l -19.6875,5.06375 c 0,-4.75125 -0.89875,-8.6225 -2.69625,-11.62625 -1.80125,-2.9975 -4.6775,-4.49625 -8.6475,-4.49625 -2.3575,0 -4.27625,0.5025 -5.76625,1.50375 -1.48875,1.00125 -2.63125,2.285 -3.4375,3.8525 -0.81,1.5625 -1.3675,3.25125 -1.675,5.06875 -0.3125,1.81625 -0.46375,3.54 -0.46375,5.165 l 0,66.31875 c 0,1.255 0.1225,2.63625 0.37125,4.13625 0.24875,1.50375 0.77625,2.915 1.5775,4.2275 0.81,1.31375 1.92375,2.4075 3.35,3.28625 1.42,0.88 3.25125,1.31375 5.4875,1.31375 7.43125,0 11.21625,-5.37125 11.3375,-16.1225 3.375,0.625 6.74875,1.1575 10.1225,1.59125 3.37875,0.44 6.7525,0.90875 10.1275,1.40625 -0.25,9.87875 -2.96875,17.69125 -8.155,23.4375 -5.19,5.7525 -12.84625,8.62875 -22.96875,8.62875 -10.75125,0 -18.69125,-2.72 -23.81375,-8.16 -5.12625,-5.43375 -7.69,-13.4025 -7.69,-23.90625 l 0,-65.06375 c 0,-4.8725 0.5325,-9.4675 1.59625,-13.77875 1.06,-4.31125 2.8425,-8.09125 5.3425,-11.3425 2.5,-3.2475 5.78125,-5.81625 9.84375,-7.69125 4.0625,-1.875 9.0325,-2.8125 14.9075,-2.8125"
         style="fill:#ffffff;fill-opacity:1;fill-rule:nonzero;stroke:none"
         id="path3435"
         inkscape:connector-curvature="0" />
      <path
         d="m 364.46902,503.75419 -11.25,30.375 -12.1875,30.5625 23.99875,0 -0.37625,-30.9375 0.56625,-30 -0.75125,0 z m 0.9375,103.68625 -0.37625,-29.0625 -29.0625,0 -11.43625,29.0625 -14.81375,0 53.06125,-130.49875 13.8775,0 2.8125,130.49875 -14.0625,0 z"
         style="fill:#ffffff;fill-opacity:1;fill-rule:nonzero;stroke:none"
         id="path3437"
         inkscape:connector-curvature="0" />
      <path
         d="m 418.83902,541.25419 10.12625,0 c 5.25375,0 9.56125,-0.9675 12.94,-2.91625 3.37375,-1.9425 6.05875,-4.51625 8.06125,-7.71375 1.9975,-3.19875 3.37375,-6.93375 4.12625,-11.20125 0.75125,-4.2675 1.1225,-8.72125 1.1225,-13.36 0,-4.52125 -1.19125,-8.2175 -3.56375,-11.10375 -2.37375,-2.885 -6.875,-4.33 -13.49625,-4.33 l -9.56125,0 -9.755,50.625 z m 24.375,-64.3125 c 9.62375,0 16.5325,2.06125 20.7225,6.1875 4.18375,4.125 6.27875,10.12625 6.27875,17.9975 0,7.3775 -0.625,14.31625 -1.875,20.815 -1.25,6.5 -3.4375,12.1875 -6.5625,17.06125 -3.125,4.8775 -7.3775,8.755 -12.74875,11.62625 -5.37625,2.875 -12.12875,4.31125 -20.24875,4.31125 l -12.56375,0 -10.1225,52.5 -14.81375,0 25.3125,-130.49875 26.62125,0 z"
         style="fill:#ffffff;fill-opacity:1;fill-rule:nonzero;stroke:none"
         id="path3439"
         inkscape:connector-curvature="0" />
      <path
         d="m 465.89902,607.44044 25.3125,-130.49875 15,0 -25.3125,130.49875 -15,0 z"
         style="fill:#ffffff;fill-opacity:1;fill-rule:nonzero;stroke:none"
         id="path3441"
         inkscape:connector-curvature="0" />
      <path
         d="m 542.21277,513.50419 c 4.12625,0 7.5925,0.44 10.405,1.31375 2.8125,0.87375 5.06375,2.095 6.7525,3.6575 1.685,1.5625 2.87125,3.40375 3.56,5.5275 0.68375,2.12875 1.03,4.43875 1.03,6.93875 0,2.12375 -0.3125,4.75 -0.9375,7.875 l -14.62375,2.06125 c 0.49875,-1.62125 0.7525,-3.37375 0.7525,-5.24875 0,-2.25125 -0.78125,-4.15625 -2.34375,-5.71875 -1.5675,-1.5625 -4.16,-2.34375 -7.78375,-2.34375 -2.74875,0 -4.96625,0.46875 -6.655,1.40625 -1.69,0.9375 -3.0325,2.12875 -4.03375,3.565 -1,1.435 -1.68375,2.9975 -2.06,4.6875 -0.37625,1.685 -0.56125,3.2175 -0.56125,4.59 0,2.12875 0.86875,4.09625 2.62125,5.9075 1.75375,1.8125 5.18625,3.72125 10.3125,5.71875 6.3775,2.3775 10.71875,5.19 13.0325,8.4375 2.315,3.25125 3.47125,7.25 3.47125,12.00125 0,5.1225 -0.65875,9.84375 -1.9725,14.155 -1.30875,4.3125 -3.31,7.99875 -5.99625,11.065 -2.69,3.06125 -6.035,5.435 -10.03375,7.12375 -4.00375,1.685 -8.69125,2.53 -14.0625,2.53 -7.87625,0 -13.4375,-1.65625 -16.685,-4.96625 -3.25625,-3.31125 -4.8775,-7.5975 -4.8775,-12.84625 0,-2.5 0.24875,-4.9375 0.7525,-7.31 l 14.4375,-1.875 c -0.5025,1.62125 -0.75125,3.37375 -0.75125,5.24875 0,2.12375 0.68375,3.93625 2.06,5.435 1.3775,1.50375 3.8725,2.25125 7.5,2.25125 5.25375,0 9.0975,-1.685 11.53375,-5.06375 2.43625,-3.37375 3.6575,-7.6225 3.6575,-12.74875 0,-2.5 -0.81625,-4.56125 -2.4375,-6.1875 -1.625,-1.62125 -4.50125,-3.31 -8.6275,-5.0625 -3.6275,-1.5 -6.62625,-3.0625 -8.99875,-4.6875 -2.3775,-1.62625 -4.2525,-3.31125 -5.625,-5.06375 -1.3775,-1.74875 -2.34375,-3.59375 -2.905,-5.5275 -0.5625,-1.93875 -0.845,-3.97 -0.845,-6.09375 0,-4.375 0.68375,-8.4375 2.06,-12.1875 1.3775,-3.75 3.40375,-7.0025 6.09375,-9.75125 2.69125,-2.74875 5.9375,-4.9075 9.75125,-6.47 3.81375,-1.5625 8.15875,-2.34375 13.0325,-2.34375"
         style="fill:#ffffff;fill-opacity:1;fill-rule:nonzero;stroke:none"
         id="path3443"
         inkscape:connector-curvature="0" />
    </g>
    <g
       id="g16782"
       transform="translate(0,-24)">
      <g
         style="fill:#ffffff"
         transform="matrix(4.3296089,0,0,4.3296089,-125.75841,-3123.6653)"
         id="g4312">
        <path
           inkscape:connector-curvature="0"
           id="path3307"
           style="fill:#ffffff;fill-opacity:1;fill-rule:nonzero;stroke:none"
           d="m 434.36652,900.08169 c 0,-1.895 -1.32375,-2.87125 -3.4775,-2.87125 l -4.39875,0 0,5.77625 4.4825,0 c 2.1575,0 3.39375,-1.1525 3.39375,-2.84625 l 0,-0.0587 z m -0.0888,13.2525 -4.31125,-6.44125 -3.47625,0 0,6.44125 -4.42875,0 0,-20.1225 9.19875,0 c 4.74625,0 7.5875,2.505 7.5875,6.64 l 0,0.0588 c 0,3.2475 -1.7525,5.28875 -4.31125,6.23625 l 4.9175,7.1875 -5.17625,0 z" />
        <path
           inkscape:connector-curvature="0"
           id="path3309"
           style="fill:#ffffff;fill-opacity:1;fill-rule:nonzero;stroke:none"
           d="m 441.41152,913.33419 0,-20.1225 15.17625,0 0,3.94 -10.77625,0 0,4.0825 9.4825,0 0,3.935 -9.4825,0 0,4.22875 10.9225,0 0,3.93625 -15.3225,0 z" />
        <path
           inkscape:connector-curvature="0"
           id="path3311"
           style="fill:#ffffff;fill-opacity:1;fill-rule:nonzero;stroke:none"
           d="m 469.32652,905.31669 0,8.0175 -4.42375,0 0,-7.935 -7.73375,-12.1875 5.17,0 4.805,8.08125 4.8825,-8.08125 5.035,0 -7.735,12.105 z" />
        <path
           inkscape:connector-curvature="0"
           id="path3313"
           style="fill:#ffffff;fill-opacity:1;fill-rule:nonzero;stroke:none"
           d="m 491.37777,913.33419 -6.24,-8.565 -2.33,2.4125 0,6.1525 -4.42375,0 0,-20.1225 4.42375,0 0,8.79875 8.165,-8.79875 5.34625,0 -8.19375,8.54 8.57,11.5825 -5.3175,0 z" />
        <path
           inkscape:connector-curvature="0"
           id="path3315"
           style="fill:#ffffff;fill-opacity:1;fill-rule:nonzero;stroke:none"
           d="m 502.50527,913.62169 c -3.135,0 -5.2,-1.38125 -6.58125,-3.0175 l 2.7875,-3.105 c 1.1525,1.26375 2.27125,2.01125 3.6775,2.01125 1.66875,0 2.705,-1.00625 2.705,-3.335 l 0,-12.96375 4.54,0 0,13.16875 c 0,4.8825 -2.875,7.24125 -7.12875,7.24125" />
        <path
           inkscape:connector-curvature="0"
           id="path3317"
           style="fill:#ffffff;fill-opacity:1;fill-rule:nonzero;stroke:none"
           d="m 520.87527,898.38794 -2.67625,6.5225 5.35125,0 -2.675,-6.5225 z m 6.09375,14.94625 -1.84125,-4.5125 -8.50625,0 -1.84,4.5125 -4.5125,0 8.62375,-20.26375 4.08125,0 8.62375,20.26375 -4.62875,0 z" />
        <path
           inkscape:connector-curvature="0"
           id="path3319"
           style="fill:#ffffff;fill-opacity:1;fill-rule:nonzero;stroke:none"
           d="m 540.70902,913.48044 -3.90625,0 -8.135,-20.26875 4.8875,0 5.25875,14.175 5.25875,-14.175 4.775,0 -8.13875,20.26875 z" />
        <path
           inkscape:connector-curvature="0"
           id="path3321"
           style="fill:#ffffff;fill-opacity:1;fill-rule:nonzero;stroke:none"
           d="m 551.09402,891.63419 3.2475,-5.0875 3.765,1.635 -3.6775,3.4525 -3.335,0 z m -0.375,1.5775 4.42875,0 0,20.1225 -4.42875,0 0,-20.1225 z" />
        <path
           inkscape:connector-curvature="0"
           id="path3323"
           style="fill:#ffffff;fill-opacity:1;fill-rule:nonzero;stroke:none"
           d="m 571.72902,913.33419 -6.235,-8.565 -2.32875,2.4125 0,6.1525 -4.42375,0 0,-20.1225 4.42375,0 0,8.79875 8.16375,-8.79875 5.34625,0 -8.1925,8.54 8.56875,11.5825 -5.3225,0 z" />
        <path
           inkscape:connector-curvature="0"
           id="path3325"
           style="fill:#ffffff;fill-opacity:1;fill-rule:nonzero;stroke:none"
           d="m 379.38527,904.92044 5.3425,0 -2.67125,-6.51875 -2.67125,6.51875 z" />
        <path
           inkscape:connector-curvature="0"
           id="path3327"
           style="fill:#ffffff;fill-opacity:1;fill-rule:nonzero;stroke:none"
           d="m 361.44152,897.22544 -3.41875,0 0,12.11375 3.41875,0 c 3.6175,0 6.05875,-2.43625 6.05875,-5.99625 l 0,-0.0575 c 0,-3.56 -2.44125,-6.06 -6.05875,-6.06" />
        <path
           inkscape:connector-curvature="0"
           id="path3329"
           style="fill:#ffffff;fill-opacity:1;fill-rule:nonzero;stroke:none"
           d="m 300.57152,904.92044 5.3425,0 -2.67125,-6.51875 -2.67125,6.51875 z" />
        <path
           inkscape:connector-curvature="0"
           id="path3331"
           style="fill:#ffffff;fill-opacity:1;fill-rule:nonzero;stroke:none"
           d="m 401.35277,905.32044 0,8.01375 -4.42375,0 0,-7.925 -7.72375,-12.17375 5.17,0 4.795,8.0675 4.87875,-8.0675 5.02875,0 -7.725,12.085 z m -13.2075,8.01375 -1.83625,-4.5075 -8.50125,0 -1.84,4.5075 -4.5075,0 8.61375,-20.245 4.0775,0 8.6175,20.245 -4.62375,0 z m -26.70375,0 -7.8375,0 0,-20.09875 7.8375,0 c 6.3175,0 10.68375,4.33625 10.68375,9.99125 l 0,0.0588 c 0,5.65375 -4.36625,10.04875 -10.68375,10.04875 m -14.385,0 -6.23,-8.56 -2.325,2.4125 0,6.1475 -4.42375,0 0,-20.09875 4.42375,0 0,8.785 8.155,-8.785 5.34125,0 -8.18375,8.52625 8.555,11.5725 -5.3125,0 z m -23.315,0.34125 c -5.91375,0 -10.30375,-4.56 -10.30375,-10.3325 l 0,-0.0575 c 0,-5.71375 4.3025,-10.39625 10.47875,-10.39625 3.78875,0 6.055,1.265 7.925,3.10125 l -2.8175,3.24625 c -1.5475,-1.41125 -3.125,-2.27 -5.13625,-2.27 -3.38875,0 -5.83,2.8175 -5.83,6.26 l 0,0.0588 c 0,3.44625 2.3825,6.3175 5.83,6.3175 2.295,0 3.70125,-0.9225 5.2825,-2.35875 l 2.8125,2.8425 c -2.065,2.21125 -4.365,3.58875 -8.24125,3.58875 m -14.41,-0.34125 -1.84,-4.5075 -8.49625,0 -1.84125,4.5075 -4.50625,0 8.6125,-20.245 4.0775,0 8.61375,20.245 -4.62,0 z m -18.34875,0 -4.42,0 0,-8.0675 -8.15375,0 0,8.0675 -4.42375,0 0,-20.09875 4.42375,0 0,7.955 8.15375,0 0,-7.955 4.42,0 0,20.09875 z m 121.29375,-26.505 -143.56,0 c -2.44125,0 -4.41875,1.9775 -4.41875,4.42 l 0,24.29125 c 0,2.44125 1.9775,4.41875 4.41875,4.41875 l 143.56,0 c 2.44125,0 4.41875,-1.9775 4.41875,-4.41875 l 0,-24.29125 c 0,-2.4425 -1.9775,-4.42 -4.41875,-4.42" />
        <path
           inkscape:connector-curvature="0"
           id="path3333"
           style="fill:#ffffff;fill-opacity:1;fill-rule:nonzero;stroke:none"
           d="m 196.47027,904.72044 0,-11.485 4.42375,0 0,11.3675 c 0,3.27625 1.63625,4.97125 4.33125,4.97125 2.7,0 4.33625,-1.64125 4.33625,-4.825 l 0,-11.51375 4.42375,0 0,11.34375 c 0,6.08375 -3.41875,9.07125 -8.81375,9.07125 -5.4,0 -8.70125,-3.0175 -8.70125,-8.93" />
        <path
           inkscape:connector-curvature="0"
           id="path3335"
           style="fill:#ffffff;fill-opacity:1;fill-rule:nonzero;stroke:none"
           d="m 215.67902,910.40419 2.6125,-3.13 c 1.80625,1.49375 3.70125,2.44125 6.00125,2.44125 1.80625,0 2.9,-0.7175 2.9,-1.895 l 0,-0.0575 c 0,-1.11875 -0.68875,-1.695 -4.0475,-2.55375 -4.0475,-1.03625 -6.665,-2.15375 -6.665,-6.1425 l 0,-0.0588 c 0,-3.6475 2.93,-6.06 7.03625,-6.06 2.93,0 5.43,0.9175 7.46625,2.55375 l -2.295,3.33 c -1.7825,-1.23 -3.53625,-1.9775 -5.23,-1.9775 -1.69375,0 -2.5825,0.77625 -2.5825,1.7475 l 0,0.0588 c 0,1.32375 0.86375,1.75375 4.335,2.6425 4.0775,1.05875 6.3725,2.52875 6.3725,6.03 l 0,0.0588 c 0,3.98875 -3.0425,6.23 -7.3775,6.23 -3.0425,0 -6.11375,-1.065 -8.52625,-3.2175" />
        <path
           inkscape:connector-curvature="0"
           id="path3337"
           style="fill:#ffffff;fill-opacity:1;fill-rule:nonzero;stroke:none"
           d="m 234.20027,893.23544 4.41875,0 0,20.0975 -4.41875,0 0,-20.0975 z" />
        <path
           inkscape:connector-curvature="0"
           id="path3339"
           style="fill:#ffffff;fill-opacity:1;fill-rule:nonzero;stroke:none"
           d="m 241.31902,903.34294 0,-0.0575 c 0,-5.71375 4.30625,-10.39625 10.47875,-10.39625 3.79375,0 6.06,1.265 7.925,3.10125 l -2.8125,3.24625 c -1.5525,-1.41125 -3.13,-2.27 -5.1425,-2.27 -3.38875,0 -5.83,2.8175 -5.83,6.26 l 0,0.0588 c 0,3.44625 2.38875,6.3175 5.83,6.3175 2.3,0 3.70625,-0.9225 5.28375,-2.35875 l 2.8175,2.8425 c -2.07,2.21125 -4.365,3.58875 -8.2425,3.58875 -5.9125,0 -10.3075,-4.56 -10.3075,-10.3325" />
        <path
           inkscape:connector-curvature="0"
           id="path3341"
           style="fill:#ffffff;fill-opacity:1;fill-rule:nonzero;stroke:none"
           d="m 188.63402,893.23544 -5.28375,8.49625 -5.28375,-8.49625 -4.77,0 0,17.48625 c -0.0437,0 -0.0875,-0.005 -0.13625,-0.005 -1.33875,0 -2.4275,0.39 -3.2525,1.16625 -0.83,0.78125 -1.245,1.74375 -1.245,2.88625 0,1.09375 0.34625,1.9775 1.04,2.64625 0.69375,0.66875 1.63125,1.00625 2.8225,1.00625 1.00125,0 1.92875,-0.22 2.7825,-0.66375 0.85,-0.44 1.44625,-1.03125 1.7975,-1.7675 0.3125,-0.655 0.48375,-1.53875 0.5175,-2.65625 l 0.01,0 0,-13.0375 5.6,8.50125 0.1175,0 5.65375,-8.585 0,10.50375 c -0.0238,0 -0.0488,0 -0.0725,0 -1.3425,0 -2.4275,0.39 -3.2575,1.16625 -0.825,0.78125 -1.24,1.74375 -1.24,2.88625 0,1.09375 0.3425,1.9775 1.035,2.64625 0.69375,0.66875 1.63625,1.00625 2.8225,1.00625 1.00625,0 1.93375,-0.22 2.78375,-0.66375 0.84875,-0.44 1.45,-1.03125 1.80125,-1.7675 0.3075,-0.655 0.47875,-1.53875 0.5125,-2.65625 l 0.01,0 0,-20.09875 -4.765,0 z" />
      </g>
      <text
         sodipodi:linespacing="125%"
         id="text16778"
         y="679.5636"
         x="1028.5714"
         style="font-size:40px;font-style:normal;font-variant:normal;font-weight:normal;font-stretch:normal;line-height:125%;letter-spacing:0px;word-spacing:0px;fill:#000000;fill-opacity:1;stroke:none;font-family:PF Din Text Comp Pro;-inkscape-font-specification:PF Din Text Comp Pro"
         xml:space="preserve"><tspan
           style="font-size:160px;font-style:oblique;font-variant:normal;font-weight:normal;font-stretch:normal;text-align:start;line-height:125%;writing-mode:lr-tb;text-anchor:start;fill:#ffffff;fill-opacity:1;font-family:PF Din Text Comp Pro;-inkscape-font-specification:PF Din Text Comp Pro Oblique"
           y="679.5636"
           x="1028.5714"
           id="tspan16780"
           sodipodi:role="line">WELCOME TO</tspan></text>
    </g>
    <g
       id="g12909"
       transform="matrix(1.5125,0,0,-1.5125,-706.36203,4243.0012)">
      <g
         id="g17153"
         transform="translate(25.123966,-25.123966)">
        <g
           id="g12028"
           transform="translate(1179.4644,493.4541)">
          <path
             d="M 0,0 C 2.093,2.189 4.616,3.82 7.307,4.827 L -3.237,53.399 c -12.28,-3.128 -23.843,-9.557 -33.117,-19.602 -9.268,-9.935 -14.963,-21.943 -17.174,-34.4 l 49.262,-7.01 C -3.507,-4.86 -2.092,-2.281 0,0"
             style="fill:#e63c24;fill-opacity:1;fill-rule:nonzero;stroke:none"
             id="path12030"
             inkscape:connector-curvature="0" />
        </g>
        <g
           id="g12032"
           transform="translate(1178.2422,491.9824)">
          <path
             d="m 0,0 -21.646,19.432 c -8.371,-9.946 -12.303,-23.019 -10.805,-35.93 l 28.78,4.273 C -3.93,-7.979 -2.726,-3.593 0,0"
             style="fill:#e63c24;fill-opacity:1;fill-rule:nonzero;stroke:none"
             id="path12034"
             inkscape:connector-curvature="0" />
        </g>
        <g
           id="g12036"
           transform="translate(1179.4644,493.4541)">
          <path
             d="m 0,0 c 0.41,0.431 0.838,0.848 1.276,1.257 l -22.53,31.62 C -33.71,23.256 -41.739,8.916 -43.365,-6.688 L -4.651,-9.311 C -4.059,-5.932 -2.516,-2.724 0,0"
             style="fill:#e41f25;fill-opacity:1;fill-rule:nonzero;stroke:none"
             id="path12038"
             inkscape:connector-curvature="0" />
        </g>
        <g
           id="g12040"
           transform="translate(1178.4531,492.2236)">
          <path
             d="M 0,0 -12.376,9.725 C -15.405,5.9 -17.639,1.417 -18.793,-3.626 L -3.478,-7.238 C -2.89,-4.675 -1.736,-2.157 0,0"
             style="fill:#e63c24;fill-opacity:1;fill-rule:nonzero;stroke:none"
             id="path12042"
             inkscape:connector-curvature="0" />
        </g>
        <g
           id="g12044"
           transform="translate(1210.3281,474.9326)">
          <path
             d="M 0,0 C -0.811,-2.349 -2.117,-4.635 -3.948,-6.563 -4.079,-6.74 -4.202,-6.801 -4.336,-6.974 L 30.908,-41.94 c 0.494,0.54 1.002,1 1.496,1.577 6.06,6.529 10.578,13.81 13.619,21.722 L 0,0 z"
             style="fill:#e41f25;fill-opacity:1;fill-rule:nonzero;stroke:none"
             id="path12046"
             inkscape:connector-curvature="0" />
        </g>
        <g
           id="g12048"
           transform="translate(1206.1348,468.1396)">
          <path
             d="M 0,0 C -2.74,-2.898 -6.172,-4.623 -9.789,-5.278 L -7.2,-34.275 c 5.616,0.722 11.188,2.426 16.472,5.218 5.286,2.901 9.81,6.657 13.499,10.912 L 0,0 z"
             style="fill:#d32124;fill-opacity:1;fill-rule:nonzero;stroke:none"
             id="path12050"
             inkscape:connector-curvature="0" />
        </g>
        <g
           id="g12052"
           transform="translate(1199.2695,463.6875)">
          <path
             d="m 0,0 c -3.67,-1.415 -7.689,-1.483 -11.441,-0.417 l -19.607,-45.761 c 17.411,-6.76 36.966,-6.096 53.851,1.91 L 0,0 z"
             style="fill:#e63c24;fill-opacity:1;fill-rule:nonzero;stroke:none"
             id="path12054"
             inkscape:connector-curvature="0" />
        </g>
        <g
           id="g12056"
           transform="translate(1175.2212,475.9385)">
          <path
             d="m 0,0 -47.887,-13.23 c 2.602,-9.351 7.26,-18.365 13.948,-26.159 L 3.977,-7.318 C 2.062,-5.095 0.736,-2.686 0,0"
             style="fill:#e41f25;fill-opacity:1;fill-rule:nonzero;stroke:none"
             id="path12058"
             inkscape:connector-curvature="0" />
        </g>
        <g
           id="g12060"
           transform="translate(1180.3872,467.4854)">
          <path
             d="M 0,0 C -1.66,1.511 -2.967,3.244 -3.923,5.26 L -29.925,-7.748 c 0.226,-0.432 0.44,-0.865 0.676,-1.297 2.935,-5.473 6.804,-10.115 11.286,-13.893 L 1.066,-0.984 C 0.702,-0.627 0.34,-0.372 0,0"
             style="fill:#e41f25;fill-opacity:1;fill-rule:nonzero;stroke:none"
             id="path12062"
             inkscape:connector-curvature="0" />
        </g>
        <g
           id="g12064"
           transform="translate(1180.3872,467.4854)">
          <path
             d="M 0,0 C -0.609,0.588 -1.177,1.113 -1.699,1.744 L -1.69,1.745 C -1.855,1.949 -2,2.156 -2.152,2.361 -2.213,2.402 -2.289,2.553 -2.351,2.597 -2.482,2.791 -2.605,2.987 -2.728,3.184 -2.818,3.256 -2.904,3.421 -2.987,3.597 -3.095,3.738 -3.196,3.963 -3.303,4.061 -3.395,4.246 -3.479,4.432 -3.572,4.508 -3.66,4.693 -3.748,4.881 -3.828,5.065 -3.923,5.266 -4.011,5.359 -4.101,5.65 -4.172,5.732 -4.235,5.911 -4.303,6.09 -4.409,6.27 -4.512,6.551 -4.613,6.782 -4.641,6.916 -4.683,6.974 -4.715,7.016 -4.836,7.398 -4.952,7.785 -5.062,8.063 -5.149,8.33 -5.231,8.681 -5.309,9.045 l -37.588,-9.387 c 0.137,-0.613 0.27,-1.123 0.439,-1.729 2.021,-7.181 5.355,-13.687 9.636,-19.219 l 18.492,13.71 c 2.877,-3.721 6.511,-6.767 10.705,-9.053 L 3.367,-2.507 C 2.178,-1.85 1.048,-1.016 0,0"
             style="fill:#d32124;fill-opacity:1;fill-rule:nonzero;stroke:none"
             id="path12066"
             inkscape:connector-curvature="0" />
        </g>
        <g
           id="g12068"
           transform="translate(1193.9316,499.3252)">
          <path
             d="m 0,0 1.712,28.948 c -6.806,0.412 -13.768,-0.649 -20.401,-3.357 l 10.64,-27.02 C -5.493,-0.373 -2.741,0.07 0,0"
             style="fill:#d32124;fill-opacity:1;fill-rule:nonzero;stroke:none"
             id="path12070"
             inkscape:connector-curvature="0" />
        </g>
        <g
           id="g12072"
           transform="translate(1197.877,498.5713)">
          <path
             d="m 0,0 10.627,37.301 c -7.889,2.285 -16.348,2.775 -24.842,1.441 L -8.202,0.41 C -5.484,0.969 -2.68,0.798 0,0"
             style="fill:#e41f25;fill-opacity:1;fill-rule:nonzero;stroke:none"
             id="path12074"
             inkscape:connector-curvature="0" />
        </g>
        <g
           id="g12076"
           transform="translate(1205.459,494.3369)">
          <path
             d="M 0,0 C 1.205,-1.091 2.236,-2.351 3.074,-3.656 L 48.608,16.435 C 45.066,23.775 40.143,30.54 33.843,36.411 27.551,42.203 20.408,46.742 12.88,49.732 L -3.984,2.89 C -2.576,2.094 -1.229,1.206 0,0"
             style="fill:#e41f25;fill-opacity:1;fill-rule:nonzero;stroke:none"
             id="path12078"
             inkscape:connector-curvature="0" />
        </g>
        <g
           id="g12080"
           transform="translate(1234.709,503.3867)">
          <path
             d="M 0,0 C -4.493,8.397 -11.141,14.784 -18.871,19.126 L -32.048,-6.927 c 0.979,-0.511 1.913,-1.293 2.798,-2.123 4.008,-3.756 5.971,-8.853 5.846,-13.92 l 28.9,-3.236 C 6.213,-17.481 4.49,-8.288 0,0"
             style="fill:#d32124;fill-opacity:1;fill-rule:nonzero;stroke:none"
             id="path12082"
             inkscape:connector-curvature="0" />
        </g>
        <g
           id="g12084"
           transform="translate(1204.1797,495.5146)">
          <path
             d="m 0,0 10.422,11.818 c -4.906,4.019 -10.985,6.756 -17.762,7.463 -6.781,0.813 -13.317,-0.454 -19.012,-3.23 L -18.907,2.147 C -12.822,4.907 -5.514,4.244 0,0"
             style="fill:#e41f25;fill-opacity:1;fill-rule:nonzero;stroke:none"
             id="path12086"
             inkscape:connector-curvature="0" />
        </g>
        <g
           id="g12088"
           transform="translate(1247.916,496.4141)">
          <path
             d="M 0,0 C -3.088,10.979 -9.205,20.278 -17.198,27.38 L -41.865,-2.579 c 4.527,-4.625 6.155,-11.121 4.793,-17.04 L -0.399,-32.285 C 2.74,-22.144 3.103,-10.981 0,0"
             style="fill:#d32124;fill-opacity:1;fill-rule:nonzero;stroke:none"
             id="path12090"
             inkscape:connector-curvature="0" />
        </g>
        <g
           id="g12092"
           transform="translate(1225.9766,489.4424)">
          <path
             d="m 0,0 -15.104,-4.465 c 0.893,-4.009 0.438,-8.34 -1.372,-12.014 l 13.675,-7.812 c 1.889,3.597 3.166,7.6 3.658,11.852 C 1.357,-8.186 1.021,-3.979 0,0"
             style="fill:#e63c24;fill-opacity:1;fill-rule:nonzero;stroke:none"
             id="path12094"
             inkscape:connector-curvature="0" />
        </g>
        <g
           id="g12096"
           transform="translate(1202.7422,465.3848)">
          <path
             d="m 0,0 c -3.039,-1.911 -6.541,-2.917 -10.035,-2.882 l -5.027,-38.459 c 6.777,-0.632 13.787,-0.138 20.74,1.897 6.961,1.929 13.236,5.101 18.703,9.256 L 0,0 z"
             style="fill:#e41f25;fill-opacity:1;fill-rule:nonzero;stroke:none"
             id="path12098"
             inkscape:connector-curvature="0" />
        </g>
        <g
           id="g12100"
           transform="translate(1190.2388,462.6895)">
          <path
             d="m 0,0 -2.297,-15.587 c 0.359,-0.026 0.705,-0.052 1.065,-0.072 4.431,-0.573 8.767,-0.177 12.821,0.898 L 7.716,0.569 C 5.214,-0.209 2.576,-0.399 0,0"
             style="fill:#d32124;fill-opacity:1;fill-rule:nonzero;stroke:none"
             id="path12102"
             inkscape:connector-curvature="0" />
        </g>
        <g
           style="fill:#ffffff;fill-opacity:1"
           id="g12104"
           transform="translate(1284.4766,511.1846)">
          <path
             d="m 0,0 3.605,0 0,-11.744 14.334,0 0,11.744 3.606,0 0,-27.206 -3.606,0 0,12.45 -14.334,0 0,-12.45 -3.605,0 L 0,0 z"
             style="fill:#ffffff;fill-opacity:1;fill-rule:nonzero;stroke:none"
             id="path12106"
             inkscape:connector-curvature="0" />
        </g>
        <g
           style="fill:#ffffff;fill-opacity:1"
           id="g12108"
           transform="translate(1322.6719,518.5713)">
          <path
             d="m 0,0 4.148,0 -4.99,-5.466 -2.431,0 L 0,0 z m -5.638,-23.385 9.222,0 -4.534,12.67 -0.087,0 -4.601,-12.67 z m 2.695,15.998 4.006,0 10.638,-27.208 -4.002,0 -2.972,8.21 -11.498,0 -3.055,-8.21 -3.739,0 10.622,27.208 z"
             style="fill:#ffffff;fill-opacity:1;fill-rule:nonzero;stroke:none"
             id="path12110"
             inkscape:connector-curvature="0" />
        </g>
        <g
           style="fill:#ffffff;fill-opacity:1"
           id="g12112"
           transform="translate(1353.1484,503.1943)">
          <path
             d="m 0,0 c -0.42,3.95 -3.023,5.629 -6.748,5.629 -3.053,0 -6.103,-1.076 -6.103,-4.651 0,-3.356 4.339,-3.921 8.738,-4.835 4.334,-1.026 8.67,-2.524 8.67,-7.938 0,-5.74 -5.676,-8.061 -10.623,-8.061 -6.08,0 -11.231,2.961 -11.231,9.653 l 3.421,0 c 0,-4.608 3.809,-6.654 7.933,-6.654 3.279,0 6.892,1.056 6.892,5.008 0,3.767 -4.342,4.408 -8.683,5.304 -4.356,1.004 -8.721,2.268 -8.721,7.22 0,5.579 4.902,7.957 9.85,7.957 C -1.041,8.632 3.191,6.051 3.421,0 L 0,0 z"
             style="fill:#ffffff;fill-opacity:1;fill-rule:nonzero;stroke:none"
             id="path12114"
             inkscape:connector-curvature="0" />
        </g>
        <g
           style="fill:#ffffff;fill-opacity:1"
           id="g12116"
           transform="translate(1362.4609,511.1846)">
          <path
             d="m 0,0 3.639,0 0,-13.531 L 17.414,0 l 4.699,0 -11.48,-10.971 11.923,-16.235 -4.554,0 -9.83,13.731 -4.533,-4.224 0,-9.507 -3.639,0 L 0,0 z"
             style="fill:#ffffff;fill-opacity:1;fill-rule:nonzero;stroke:none"
             id="path12118"
             inkscape:connector-curvature="0" />
        </g>
        <g
           style="fill:#ffffff;fill-opacity:1"
           id="g12120"
           transform="translate(1400.7188,518.5713)">
          <path
             d="m 0,0 4.143,0 -4.985,-5.466 -2.431,0 L 0,0 z m -0.951,-32.236 c 6.637,0 9.396,5.814 9.396,11.298 0,5.487 -2.759,11.192 -9.396,11.192 -6.639,0 -9.401,-5.705 -9.401,-11.192 0,-5.484 2.762,-11.298 9.401,-11.298 m 0,25.489 c 8.65,0 13.023,-6.858 13.023,-14.191 0,-7.492 -4.373,-14.295 -13.023,-14.295 -8.649,0 -13.038,6.803 -13.038,14.295 0,7.333 4.389,14.191 13.038,14.191"
             style="fill:#ffffff;fill-opacity:1;fill-rule:nonzero;stroke:none"
             id="path12122"
             inkscape:connector-curvature="0" />
        </g>
        <g
           style="fill:#ffffff;fill-opacity:1"
           id="g12124"
           transform="translate(1417.5898,511.1846)">
          <path
             d="m 0,0 3.604,0 0,-24.1 14.423,0 0,-3.106 L 0,-27.206 0,0 z"
             style="fill:#ffffff;fill-opacity:1;fill-rule:nonzero;stroke:none"
             id="path12126"
             inkscape:connector-curvature="0" />
        </g>
        <path
           d="m 1439.307,511.185 3.605,0 0,-27.206 -3.605,0 0,27.206 z"
           style="fill:#ffffff;fill-opacity:1;fill-rule:nonzero;stroke:none"
           id="path12128"
           inkscape:connector-curvature="0" />
        <g
           style="fill:#ffffff;fill-opacity:1"
           id="g12130"
           transform="translate(1449.3457,511.1846)">
          <path
             d="m 0,0 3.867,0 14.303,-21.996 0.078,0 0,21.996 3.445,0 0,-27.206 -3.974,0 -14.225,21.786 -0.037,0 0,-21.786 -3.457,0 L 0,0 z"
             style="fill:#ffffff;fill-opacity:1;fill-rule:nonzero;stroke:none"
             id="path12132"
             inkscape:connector-curvature="0" />
        </g>
        <g
           style="fill:#ffffff;fill-opacity:1"
           id="g12134"
           transform="translate(1477.2305,511.1846)">
          <path
             d="m 0,0 3.854,0 14.334,-21.996 0.039,0 0,21.996 3.455,0 0,-27.206 -3.973,0 -14.197,21.786 -0.08,0 0,-21.786 -3.432,0 L 0,0 z"
             style="fill:#ffffff;fill-opacity:1;fill-rule:nonzero;stroke:none"
             id="path12136"
             inkscape:connector-curvature="0" />
        </g>
        <path
           d="m 1516.295,511.185 3.6,0 0,-27.206 -3.6,0 0,27.206 z m 2.762,7.386 4.138,0 -4.982,-5.466 -2.432,0 3.276,5.466 z"
           style="fill:#ffffff;fill-opacity:1;fill-rule:nonzero;stroke:none"
           id="path12138"
           inkscape:connector-curvature="0" />
        <g
           style="fill:#ffffff;fill-opacity:1"
           id="g12140"
           transform="translate(1548.4902,498.6875)">
          <path
             d="m 0,0 c 3.387,0 6.307,0.867 6.307,4.853 0,2.597 -1.461,4.644 -4.844,4.644 l -8.979,0 L -7.516,0 0,0 z m -11.168,12.497 12.822,0 c 5.094,0 8.256,-2.761 8.256,-7.148 0,-3.219 -1.461,-5.944 -4.736,-6.823 l 0,-0.145 c 3.162,-0.62 3.803,-2.94 4.096,-5.544 0.218,-2.701 0.089,-5.664 1.591,-7.548 l -4.023,0 c -1.043,1.079 -0.449,4.023 -1.024,6.73 -0.347,2.707 -0.998,4.88 -4.517,4.88 l -8.813,0 0,-11.61 -3.652,0 0,27.208 z"
             style="fill:#ffffff;fill-opacity:1;fill-rule:nonzero;stroke:none"
             id="path12142"
             inkscape:connector-curvature="0" />
        </g>
        <g
           style="fill:#ffffff;fill-opacity:1"
           id="g12144"
           transform="translate(1563.7891,511.1846)">
          <path
             d="m 0,0 18.779,0 0,-3 -15.14,0 0,-8.744 14.14,0 0,-3.012 -14.14,0 0,-9.344 15.293,0 0,-3.106 L 0,-27.206 0,0 z"
             style="fill:#ffffff;fill-opacity:1;fill-rule:nonzero;stroke:none"
             id="path12146"
             inkscape:connector-curvature="0" />
        </g>
        <g
           style="fill:#ffffff;fill-opacity:1"
           id="g12148"
           transform="translate(1598.6934,495.1309)">
          <path
             d="m 0,0 0,-11.154 -3.604,0 0,11.154 -10.531,16.054 4.315,0 8.138,-12.91 7.991,12.91 4.113,0 L 0,0 z"
             style="fill:#ffffff;fill-opacity:1;fill-rule:nonzero;stroke:none"
             id="path12150"
             inkscape:connector-curvature="0" />
        </g>
        <g
           style="fill:#ffffff;fill-opacity:1"
           id="g12152"
           transform="translate(1612.5117,511.1846)">
          <path
             d="m 0,0 3.604,0 0,-13.531 L 17.408,0 l 4.715,0 -11.482,-10.971 11.923,-16.235 -4.552,0 -9.823,13.731 -4.585,-4.224 0,-9.507 -3.604,0 L 0,0 z"
             style="fill:#ffffff;fill-opacity:1;fill-rule:nonzero;stroke:none"
             id="path12154"
             inkscape:connector-curvature="0" />
        </g>
        <g
           style="fill:#ffffff;fill-opacity:1"
           id="g12156"
           transform="translate(1652.1465,490.7432)">
          <path
             d="m 0,0 c 0,-3.64 -1.961,-7.405 -8.023,-7.405 -5.067,0 -7.975,2.808 -7.975,7.971 l 0,1.682 3.658,0 0,-1.206 c 0,-3.164 0.84,-5.448 4.35,-5.448 3.349,0 4.388,2.008 4.388,4.992 l 0,19.855 3.602,0 L 0,0 z"
             style="fill:#ffffff;fill-opacity:1;fill-rule:nonzero;stroke:none"
             id="path12158"
             inkscape:connector-curvature="0" />
        </g>
        <g
           style="fill:#ffffff;fill-opacity:1"
           id="g12160"
           transform="translate(1663.1367,495.1865)">
          <path
             d="M 0,0 9.25,0 4.662,12.67 4.625,12.67 0,0 z m 2.723,15.998 4.004,0 10.586,-27.208 -4,0 -2.965,8.21 -11.498,0 -3.057,-8.21 -3.713,0 10.643,27.208 z"
             style="fill:#ffffff;fill-opacity:1;fill-rule:nonzero;stroke:none"
             id="path12162"
             inkscape:connector-curvature="0" />
        </g>
        <g
           style="fill:#ffffff;fill-opacity:1"
           id="g12164"
           transform="translate(1692.459,483.9766)">
          <path
             d="m 0,0 -4.111,0 -9.6,27.208 3.924,0 7.777,-23.606 0.09,0 7.826,23.606 3.783,0 L 0,0 z"
             style="fill:#ffffff;fill-opacity:1;fill-rule:nonzero;stroke:none"
             id="path12166"
             inkscape:connector-curvature="0" />
        </g>
        <path
           d="m 1705.545,511.185 3.66,0 0,-27.206 -3.66,0 0,27.206 z m 2.82,7.386 4.133,0 -4.975,-5.466 -2.433,0 3.275,5.466 z"
           style="fill:#ffffff;fill-opacity:1;fill-rule:nonzero;stroke:none"
           id="path12168"
           inkscape:connector-curvature="0" />
        <g
           style="fill:#ffffff;fill-opacity:1"
           id="g12170"
           transform="translate(1715.6582,511.1846)">
          <path
             d="m 0,0 3.602,0 0,-13.531 L 17.406,0 l 4.717,0 -11.482,-10.971 11.922,-16.235 -4.555,0 -9.82,13.731 -4.586,-4.224 0,-9.507 -3.602,0 L 0,0 z"
             style="fill:#ffffff;fill-opacity:1;fill-rule:nonzero;stroke:none"
             id="path12172"
             inkscape:connector-curvature="0" />
        </g>
        <g
           style="fill:#ffffff;fill-opacity:1"
           id="g12174"
           transform="translate(1285.3418,462.6143)">
          <path
             d="M 0,0 6.982,0 C 9.275,0 11.23,1.346 11.23,3.811 11.23,6.166 9.801,7.66 6.982,7.66 L 0,7.66 0,0 z m -1.875,9.303 9.008,0 c 3.234,0 5.955,-1.631 5.955,-5.088 0,-2.505 -1.281,-4.58 -3.813,-5.036 l 0,-0.027 c 2.547,-0.379 3.295,-2.101 3.436,-4.539 0.083,-1.306 0.083,-4.024 0.905,-5.002 l -2.053,0 c -0.48,0.762 -0.48,2.229 -0.524,3.065 -0.173,2.746 -0.389,5.808 -3.939,5.681 l -7.1,0 0,-8.746 -1.875,0 0,19.692 z"
             style="fill:#ffffff;fill-opacity:1;fill-rule:nonzero;stroke:none"
             id="path12176"
             inkscape:connector-curvature="0" />
        </g>
        <g
           style="fill:#ffffff;fill-opacity:1"
           id="g12178"
           transform="translate(1302.1016,471.917)">
          <path
             d="m 0,0 13.557,0 0,-1.643 -11.688,0 0,-7.136 10.945,0 0,-1.534 -10.945,0 0,-7.783 11.83,0 0,-1.582 L 0,-19.678 0,0 z"
             style="fill:#ffffff;fill-opacity:1;fill-rule:nonzero;stroke:none"
             id="path12180"
             inkscape:connector-curvature="0" />
        </g>
        <g
           style="fill:#ffffff;fill-opacity:1"
           id="g12182"
           transform="translate(1324.1543,460.3389)">
          <path
             d="m 0,0 -7.723,11.58 2.229,0 6.459,-10.047 6.428,10.047 2.238,0 L 1.885,0 1.885,-8.1 0,-8.1 0,0 z"
             style="fill:#ffffff;fill-opacity:1;fill-rule:nonzero;stroke:none"
             id="path12184"
             inkscape:connector-curvature="0" />
        </g>
        <g
           style="fill:#ffffff;fill-opacity:1"
           id="g12186"
           transform="translate(1335.7598,471.917)">
          <path
             d="m 0,0 1.885,0 0,-10.555 L 13.287,0 15.82,0 7.055,-8.173 l 9.181,-11.505 -2.423,0 -8.155,10.226 -3.773,-3.528 0,-6.698 -1.885,0 L 0,0 z"
             style="fill:#ffffff;fill-opacity:1;fill-rule:nonzero;stroke:none"
             id="path12188"
             inkscape:connector-curvature="0" />
        </g>
        <g
           style="fill:#ffffff;fill-opacity:1"
           id="g12190"
           transform="translate(1361.7969,471.917)">
          <path
             d="m 0,0 1.871,0 0,-14.254 c 0,-3.894 -1.486,-5.797 -5.74,-5.797 -4.49,0 -5.5,3.235 -5.457,6.627 l 1.853,0 c 0.073,-1.683 -0.104,-5.089 3.784,-5.089 2.923,0 3.689,1.481 3.689,5.075 L 0,0 z"
             style="fill:#ffffff;fill-opacity:1;fill-rule:nonzero;stroke:none"
             id="path12192"
             inkscape:connector-curvature="0" />
        </g>
        <g
           style="fill:#ffffff;fill-opacity:1"
           id="g12194"
           transform="translate(1370.6699,459.9346)">
          <path
             d="M 0,0 7.725,0 3.928,10.098 0,0 z m 2.971,11.984 2.092,0 7.699,-19.679 -2.005,0 -2.396,6.16 -8.916,0 -2.391,-6.16 -2.007,0 7.924,19.679 z"
             style="fill:#ffffff;fill-opacity:1;fill-rule:nonzero;stroke:none"
             id="path12196"
             inkscape:connector-curvature="0" />
        </g>
        <g
           style="fill:#ffffff;fill-opacity:1"
           id="g12198"
           transform="translate(1381.9512,471.917)">
          <path
             d="m 0,0 2.007,0 6.395,-17.652 0.039,0 L 14.77,0 l 1.992,0 -7.285,-19.678 -2.192,0 L 0,0 z"
             style="fill:#ffffff;fill-opacity:1;fill-rule:nonzero;stroke:none"
             id="path12200"
             inkscape:connector-curvature="0" />
        </g>
        <path
           d="m 1400.84,471.917 1.883,0 0,-19.691 -1.883,0 0,19.691 z"
           style="fill:#ffffff;fill-opacity:1;fill-rule:nonzero;stroke:none"
           id="path12202"
           inkscape:connector-curvature="0" />
        <g
           style="fill:#ffffff;fill-opacity:1"
           id="g12204"
           transform="translate(1407.084,471.917)">
          <path
             d="m 0,0 1.873,0 0,-10.555 11.41,10.555 2.531,0 -8.767,-8.173 9.18,-11.505 -2.413,0 -8.158,10.226 -3.783,-3.528 0,-6.698 -1.873,0 L 0,0 z"
             style="fill:#ffffff;fill-opacity:1;fill-rule:nonzero;stroke:none"
             id="path12206"
             inkscape:connector-curvature="0" />
        </g>
        <g
           style="fill:#ffffff;fill-opacity:1"
           id="g12208"
           transform="translate(1432.918,471.917)">
          <path
             d="m 0,0 1.875,0 0,-12.198 c -0.016,-4.605 2.146,-6.315 5.775,-6.315 3.608,0 5.793,1.71 5.737,6.315 l 0,12.198 1.883,0 0,-12.615 c 0,-4.026 -2.17,-7.436 -7.62,-7.436 -5.468,0 -7.65,3.41 -7.65,7.436 L 0,0 z"
             style="fill:#ffffff;fill-opacity:1;fill-rule:nonzero;stroke:none"
             id="path12210"
             inkscape:connector-curvature="0" />
        </g>
        <g
           style="fill:#ffffff;fill-opacity:1"
           id="g12212"
           transform="translate(1452.1973,471.917)">
          <path
             d="m 0,0 2.102,0 11.427,-16.641 0.073,0 0,16.641 1.882,0 0,-19.678 -2.099,0 -11.459,16.609 -0.041,0 0,-16.609 -1.885,0 L 0,0 z"
             style="fill:#ffffff;fill-opacity:1;fill-rule:nonzero;stroke:none"
             id="path12214"
             inkscape:connector-curvature="0" />
        </g>
        <path
           d="m 1472.018,471.917 1.885,0 0,-19.691 -1.885,0 0,19.691 z"
           style="fill:#ffffff;fill-opacity:1;fill-rule:nonzero;stroke:none"
           id="path12216"
           inkscape:connector-curvature="0" />
        <g
           style="fill:#ffffff;fill-opacity:1"
           id="g12218"
           transform="translate(1476.0977,471.917)">
          <path
             d="m 0,0 2.016,0 6.357,-17.652 0.068,0 6.33,17.652 1.963,0 -7.296,-19.678 -2.145,0 L 0,0 z"
             style="fill:#ffffff;fill-opacity:1;fill-rule:nonzero;stroke:none"
             id="path12220"
             inkscape:connector-curvature="0" />
        </g>
        <g
           style="fill:#ffffff;fill-opacity:1"
           id="g12222"
           transform="translate(1494.8223,471.917)">
          <path
             d="m 0,0 13.586,0 0,-1.643 -11.699,0 0,-7.136 10.959,0 0,-1.534 -10.959,0 0,-7.783 11.82,0 0,-1.582 L 0,-19.678 0,0 z"
             style="fill:#ffffff;fill-opacity:1;fill-rule:nonzero;stroke:none"
             id="path12224"
             inkscape:connector-curvature="0" />
        </g>
        <g
           style="fill:#ffffff;fill-opacity:1"
           id="g12226"
           transform="translate(1513.3281,462.6143)">
          <path
             d="m 0,0 6.98,0 c 2.26,0 4.229,1.346 4.229,3.811 0,2.355 -1.455,3.849 -4.229,3.849 L 0,7.66 0,0 z m -1.879,9.303 8.981,0 c 3.257,0 5.99,-1.631 5.99,-5.088 0,-2.505 -1.33,-4.58 -3.852,-5.036 l 0,-0.027 c 2.588,-0.379 3.321,-2.101 3.449,-4.539 0.09,-1.306 0.09,-4.024 0.911,-5.002 l -2.071,0 c -0.461,0.762 -0.461,2.229 -0.523,3.065 -0.184,2.746 -0.404,5.808 -3.918,5.681 l -7.088,0 0,-8.746 -1.879,0 0,19.692 z"
             style="fill:#ffffff;fill-opacity:1;fill-rule:nonzero;stroke:none"
             id="path12228"
             inkscape:connector-curvature="0" />
        </g>
        <g
           style="fill:#ffffff;fill-opacity:1"
           id="g12230"
           transform="translate(1530.9492,458.6816)">
          <path
             d="m 0,0 c -0.088,-4.025 2.848,-5.277 6.391,-5.277 2.072,0 5.216,1.2 5.216,3.998 0,2.278 -2.214,3.139 -4.074,3.57 L 3.186,3.353 c -2.315,0.606 -4.43,1.683 -4.43,4.794 0,1.815 1.244,5.506 6.758,5.506 3.89,0 7.283,-2.101 7.271,-6.112 l -1.887,0 c -0.107,2.975 -2.556,4.468 -5.365,4.468 -2.549,0 -4.9,-0.93 -4.9,-3.85 0,-1.871 1.381,-2.679 2.971,-3.055 L 8.369,3.959 c 2.764,-0.795 5.076,-2.034 5.076,-5.224 0,-1.305 -0.539,-5.55 -7.498,-5.55 -4.646,0 -8.039,2.007 -7.824,6.815 L 0,0 z"
             style="fill:#ffffff;fill-opacity:1;fill-rule:nonzero;stroke:none"
             id="path12232"
             inkscape:connector-curvature="0" />
        </g>
        <path
           d="m 1547.799,471.917 1.859,0 0,-19.691 -1.859,0 0,19.691 z"
           style="fill:#ffffff;fill-opacity:1;fill-rule:nonzero;stroke:none"
           id="path12234"
           inkscape:connector-curvature="0" />
        <g
           style="fill:#ffffff;fill-opacity:1"
           id="g12236"
           transform="translate(1551.9453,471.917)">
          <path
             d="m 0,0 15.539,0 0,-1.643 -6.855,0 0,-18.035 -1.848,0 0,18.035 L 0,-1.643 0,0 z"
             style="fill:#ffffff;fill-opacity:1;fill-rule:nonzero;stroke:none"
             id="path12238"
             inkscape:connector-curvature="0" />
        </g>
        <g
           style="fill:#ffffff;fill-opacity:1"
           id="g12240"
           transform="translate(1575.0781,460.3389)">
          <path
             d="m 0,0 -7.719,11.58 2.223,0 6.449,-10.047 6.479,10.047 2.183,0 L 1.883,0 1.883,-8.1 0,-8.1 0,0 z"
             style="fill:#ffffff;fill-opacity:1;fill-rule:nonzero;stroke:none"
             id="path12242"
             inkscape:connector-curvature="0" />
        </g>
        <text
           xml:space="preserve"
           style="font-size:32px;font-style:normal;font-variant:normal;font-weight:normal;font-stretch:normal;line-height:125%;letter-spacing:0px;word-spacing:0px;fill:#000000;fill-opacity:1;stroke:none;font-family:PF Din Text Comp Pro;-inkscape-font-specification:PF Din Text Comp Pro"
           x="838.76843"
           y="-459.47855"
           id="text12684"
           sodipodi:linespacing="125%"
           transform="scale(1,-1)"><tspan
             sodipodi:role="line"
             id="tspan12686"
             x="838.76843"
             y="-459.47855"
             style="font-size:72px;font-style:oblique;font-variant:normal;font-weight:normal;font-stretch:normal;text-align:start;line-height:125%;writing-mode:lr-tb;text-anchor:start;fill:#eaeaea;fill-opacity:1;font-family:PF Din Text Comp Pro;-inkscape-font-specification:PF Din Text Comp Pro Oblique">HOSTED BY</tspan></text>
      </g>
    </g>
  </g>
</svg>
