<?xml version="1.0" encoding="UTF-8" standalone="no"?>
<!-- Created with Inkscape (http://www.inkscape.org/) -->

<svg
   xmlns:dc="http://purl.org/dc/elements/1.1/"
   xmlns:cc="http://creativecommons.org/ns#"
   xmlns:rdf="http://www.w3.org/1999/02/22-rdf-syntax-ns#"
   xmlns:svg="http://www.w3.org/2000/svg"
   xmlns="http://www.w3.org/2000/svg"
   xmlns:sodipodi="http://sodipodi.sourceforge.net/DTD/sodipodi-0.dtd"
   xmlns:inkscape="http://www.inkscape.org/namespaces/inkscape"
   width="728"
   height="90"
   id="svg3398"
   version="1.1"
   inkscape:version="0.48.2 r9819"
   sodipodi:docname="mhd_728_90_ad.svg"
   inkscape:export-filename="C:\Users\oleg\Desktop\andie_tmp\mhd_728_90_ad.png"
   inkscape:export-xdpi="90"
   inkscape:export-ydpi="90">
  <defs
     id="defs3400">
    <clipPath
       id="clipPath3069"
       clipPathUnits="userSpaceOnUse">
      <path
         inkscape:connector-curvature="0"
         id="path3071"
         d="m 0,595.28 841.89,0 L 841.89,0 0,0 0,595.28 z" />
    </clipPath>
  </defs>
  <sodipodi:namedview
     id="base"
     pagecolor="#ffffff"
     bordercolor="#666666"
     borderopacity="1.0"
     inkscape:pageopacity="0.0"
     inkscape:pageshadow="2"
     inkscape:zoom="1.0858166"
     inkscape:cx="348.19747"
     inkscape:cy="55.720631"
     inkscape:document-units="px"
     inkscape:current-layer="layer1"
     showgrid="false"
     inkscape:showpageshadow="false"
     inkscape:window-width="1452"
     inkscape:window-height="759"
     inkscape:window-x="1846"
     inkscape:window-y="32"
     inkscape:window-maximized="0" />
  <metadata
     id="metadata3403">
    <rdf:RDF>
      <cc:Work
         rdf:about="">
        <dc:format>image/svg+xml</dc:format>
        <dc:type
           rdf:resource="http://purl.org/dc/dcmitype/StillImage" />
        <dc:title />
      </cc:Work>
    </rdf:RDF>
  </metadata>
  <g
     inkscape:label="Layer 1"
     inkscape:groupmode="layer"
     id="layer1"
     transform="translate(0,-962.36218)">
    <path
       inkscape:connector-curvature="0"
       d="m 0,1052.3622 728,0 0,-90.00001 -728,0 0,90.00001 z"
       style="fill:#008cc8;fill-opacity:1;fill-rule:nonzero;stroke:none"
       id="path2997" />
    <text
       id="text2999"
       x="24.639397"
       y="1008.3784"
       style="font-size:16.39669418px;line-height:125%"
       sodipodi:linespacing="125%">
      <tspan
         dx="0 -1.0931129"
         style="font-size:43.72451782px;font-style:oblique;font-variant:normal;font-weight:300;font-stretch:normal;text-align:start;line-height:125%;writing-mode:lr-tb;text-anchor:start;fill:#ffffff;fill-opacity:1;fill-rule:nonzero;stroke:none;font-family:PF Din Text Comp Pro Light;-inkscape-font-specification:'PF Din Text Comp Pro Light, Light Oblique'"
         x="24.639397"
         sodipodi:role="line"
         id="tspan3001"
         y="1008.3784">2 HOURS OF</tspan>
    </text>
    <text
       id="text3003"
       x="185.38947"
       y="1008.421"
       style="font-size:16.39669418px;line-height:125%"
       sodipodi:linespacing="125%">
      <tspan
         style="font-size:43.72451782px;font-style:oblique;font-variant:normal;font-weight:normal;font-stretch:normal;text-align:start;line-height:125%;writing-mode:lr-tb;text-anchor:start;fill:#ffffff;fill-opacity:1;fill-rule:nonzero;stroke:none;font-family:PF Din Text Comp Pro Medium;-inkscape-font-specification:'PF Din Text Comp Pro Medium, Oblique'"
         x="185.38947 203.20039 223.40109 239.40843 259.60913 279.67459"
         y="1008.421"
         sodipodi:role="line"
         id="tspan3005">FUTURE</tspan>
    </text>
    <text
       id="text3007"
       x="308.2088"
       y="1008.3784"
       style="font-size:16.39669418px;line-height:125%"
       sodipodi:linespacing="125%">
      <tspan
         style="font-size:43.72451782px;font-style:normal;font-variant:normal;font-weight:normal;font-stretch:normal;text-align:start;line-height:125%;writing-mode:lr-tb;text-anchor:start;fill:#ffffff;fill-opacity:1;fill-rule:nonzero;stroke:none;font-family:PF Din Text Comp Pro;-inkscape-font-specification:PF Din Text Comp Pro"
         x="308.2088 334.31641 353.93097 372.37314 381.70694"
         y="1008.3784"
         sodipodi:role="line"
         id="tspan3009">MUSIC</tspan>
    </text>
    <g
       id="g3724"
       transform="matrix(0.87894369,0,0,0.87894369,125.22727,469.72518)">
      <g
         transform="matrix(1.25,0,0,-1.25,-269.16401,833.02889)"
         id="g3065">
        <g
           clip-path="url(#clipPath3069)"
           id="g3067">
          <g
             transform="translate(382.752,158.0254)"
             id="g3073">
            <path
               id="path3075"
               style="fill:#ffffff;fill-opacity:1;fill-rule:nonzero;stroke:none"
               d="m 0,0 c 0,1.268 -0.882,1.921 -2.321,1.921 l -2.935,0 0,-3.857 2.993,0 c 1.439,0 2.263,0.768 2.263,1.9 L 0,0 z m -0.058,-8.841 -2.876,4.297 -2.322,0 0,-4.297 -2.954,0 0,13.427 6.139,0 c 3.164,0 5.064,-1.669 5.064,-4.432 l 0,-0.038 c 0,-2.166 -1.171,-3.529 -2.878,-4.163 l 3.28,-4.794 -3.453,0 z"
               inkscape:connector-curvature="0" />
          </g>
          <g
             transform="translate(387.4512,149.1846)"
             id="g3077">
            <path
               id="path3079"
               style="fill:#ffffff;fill-opacity:1;fill-rule:nonzero;stroke:none"
               d="m 0,0 0,13.427 10.128,0 0,-2.628 -7.192,0 0,-2.725 6.329,0 0,-2.628 -6.329,0 0,-2.818 7.288,0 L 10.224,0 0,0 z"
               inkscape:connector-curvature="0" />
          </g>
          <g
             transform="translate(406.0771,154.5342)"
             id="g3081">
            <path
               id="path3083"
               style="fill:#ffffff;fill-opacity:1;fill-rule:nonzero;stroke:none"
               d="m 0,0 0,-5.35 -2.954,0 0,5.294 -5.16,8.133 3.452,0 3.204,-5.389 3.26,5.389 3.359,0 L 0,0 z"
               inkscape:connector-curvature="0" />
          </g>
          <g
             transform="translate(420.7896,149.1846)"
             id="g3085">
            <path
               id="path3087"
               style="fill:#ffffff;fill-opacity:1;fill-rule:nonzero;stroke:none"
               d="m 0,0 -4.162,5.716 -1.554,-1.612 0,-4.104 -2.954,0 0,13.427 2.954,0 0,-5.869 5.448,5.869 3.566,0 L -2.168,7.729 3.548,0 0,0 z"
               inkscape:connector-curvature="0" />
          </g>
          <g
             transform="translate(428.2129,148.9932)"
             id="g3089">
            <path
               id="path3091"
               style="fill:#ffffff;fill-opacity:1;fill-rule:nonzero;stroke:none"
               d="m 0,0 c -2.092,0 -3.471,0.92 -4.392,2.013 l 1.86,2.072 c 0.768,-0.846 1.516,-1.343 2.455,-1.343 1.112,0 1.804,0.672 1.804,2.225 l 0,8.651 3.031,0 0,-8.785 C 4.758,1.572 2.84,0 0,0"
               inkscape:connector-curvature="0" />
          </g>
          <g
             transform="translate(440.4707,159.1592)"
             id="g3093">
            <path
               id="path3095"
               style="fill:#ffffff;fill-opacity:1;fill-rule:nonzero;stroke:none"
               d="m 0,0 -1.785,-4.355 3.569,0 L 0,0 z m 4.065,-9.975 -1.226,3.011 -5.679,0 -1.226,-3.011 -3.011,0 5.754,13.523 2.721,0 5.755,-13.523 -3.088,0 z"
               inkscape:connector-curvature="0" />
          </g>
          <g
             transform="translate(453.7061,149.0889)"
             id="g3097">
            <path
               id="path3099"
               style="fill:#ffffff;fill-opacity:1;fill-rule:nonzero;stroke:none"
               d="m 0,0 -2.608,0 -5.429,13.522 3.261,0 3.509,-9.456 3.511,9.456 3.185,0 L 0,0 z"
               inkscape:connector-curvature="0" />
          </g>
          <g
             transform="translate(460.6309,163.667)"
             id="g3101">
            <path
               id="path3103"
               style="fill:#ffffff;fill-opacity:1;fill-rule:nonzero;stroke:none"
               d="M 0,0 2.167,3.395 4.681,2.302 2.225,0 0,0 z m -0.248,-1.056 2.953,0 0,-13.427 -2.953,0 0,13.427 z"
               inkscape:connector-curvature="0" />
          </g>
          <g
             transform="translate(474.4033,149.1846)"
             id="g3105">
            <path
               id="path3107"
               style="fill:#ffffff;fill-opacity:1;fill-rule:nonzero;stroke:none"
               d="m 0,0 -4.163,5.716 -1.552,-1.612 0,-4.104 -2.955,0 0,13.427 2.955,0 0,-5.869 5.445,5.869 3.568,0 L -2.168,7.729 3.55,0 0,0 z"
               inkscape:connector-curvature="0" />
          </g>
          <g
             transform="translate(484.1855,158.3535)"
             id="g3109">
            <path
               id="path3111"
               style="fill:#ffffff;fill-opacity:1;fill-rule:nonzero;stroke:none"
               d="m 0,0 -2.07,1.67 c 1.323,1.801 2.608,2.779 5.006,2.779 2.856,0 4.622,-1.649 4.622,-4.162 0,-2.246 -1.153,-3.376 -3.53,-5.219 l -2.187,-1.686 5.851,0 0,-2.551 -9.936,0 0,2.34 4.47,3.662 c 1.669,1.382 2.32,2.111 2.32,3.225 0,1.13 -0.748,1.746 -1.804,1.746 C 1.707,1.804 0.997,1.228 0,0"
               inkscape:connector-curvature="0" />
          </g>
          <g
             transform="translate(498.9746,160.1748)"
             id="g3113">
            <path
               id="path3115"
               style="fill:#ffffff;fill-opacity:1;fill-rule:nonzero;stroke:none"
               d="m 0,0 c -1.783,0 -2.916,-1.782 -2.916,-4.259 0,-2.474 1.172,-4.295 2.954,-4.295 1.783,0 2.916,1.801 2.916,4.257 C 2.954,-1.842 1.783,0 0,0 m 0,-11.222 c -3.586,0 -5.945,3.014 -5.945,6.925 0,3.914 2.396,6.963 5.983,6.963 3.588,0 5.946,-3.012 5.946,-6.925 0,-3.913 -2.397,-6.963 -5.984,-6.963"
               inkscape:connector-curvature="0" />
          </g>
          <g
             transform="translate(509.2568,162.707)"
             id="g3117">
            <path
               id="path3119"
               style="fill:#ffffff;fill-opacity:1;fill-rule:nonzero;stroke:none"
               d="m 0,0 2.013,0 0,-13.522 -2.915,0 0,10.53 -2.34,-0.575 -0.614,2.418 L 0,0 z"
               inkscape:connector-curvature="0" />
          </g>
          <g
             transform="translate(515.2607,158.3535)"
             id="g3121">
            <path
               id="path3123"
               style="fill:#ffffff;fill-opacity:1;fill-rule:nonzero;stroke:none"
               d="m 0,0 -2.071,1.67 c 1.323,1.801 2.606,2.779 5.005,2.779 2.858,0 4.623,-1.649 4.623,-4.162 0,-2.246 -1.151,-3.376 -3.53,-5.219 l -2.186,-1.686 5.85,0 0,-2.551 -9.935,0 0,2.34 4.47,3.662 c 1.667,1.382 2.319,2.111 2.319,3.225 0,1.13 -0.747,1.746 -1.802,1.746 C 1.707,1.804 0.997,1.228 0,0"
               inkscape:connector-curvature="0" />
          </g>
          <g
             transform="translate(346.0679,154.7988)"
             id="g3125">
            <path
               id="path3127"
               style="fill:#ffffff;fill-opacity:1;fill-rule:nonzero;stroke:none"
               d="M 0,0 3.563,0 1.783,4.349 0,0 z"
               inkscape:connector-curvature="0" />
          </g>
          <g
             transform="translate(334.0947,159.9326)"
             id="g3129">
            <path
               id="path3131"
               style="fill:#ffffff;fill-opacity:1;fill-rule:nonzero;stroke:none"
               d="m 0,0 -2.28,0 0,-8.084 2.28,0 c 2.414,0 4.043,1.628 4.043,4.004 l 0,0.038 C 4.043,-1.666 2.414,0 0,0"
               inkscape:connector-curvature="0" />
          </g>
          <g
             transform="translate(293.4829,154.7988)"
             id="g3133">
            <path
               id="path3135"
               style="fill:#ffffff;fill-opacity:1;fill-rule:nonzero;stroke:none"
               d="M 0,0 3.563,0 1.781,4.349 0,0 z"
               inkscape:connector-curvature="0" />
          </g>
          <g
             transform="translate(360.7231,154.5293)"
             id="g3137">
            <path
               id="path3139"
               style="fill:#ffffff;fill-opacity:1;fill-rule:nonzero;stroke:none"
               d="m 0,0 0,-5.345 -2.95,0 0,5.288 -5.154,8.122 3.448,0 3.201,-5.382 3.256,5.382 3.353,0 L 0,0 z m -8.813,-5.345 -1.226,3.009 -5.669,0 -1.227,-3.009 -3.007,0 5.747,13.506 2.72,0 5.747,-13.506 -3.085,0 z m -17.815,0 -5.23,0 0,13.41 5.23,0 c 4.215,0 7.127,-2.891 7.127,-6.667 l 0,-0.037 c 0,-3.774 -2.912,-6.706 -7.127,-6.706 m -9.597,0 -4.157,5.71 -1.552,-1.609 0,-4.101 -2.951,0 0,13.41 2.951,0 0,-5.861 5.44,5.861 3.563,0 -5.459,-5.688 5.708,-7.722 -3.543,0 z m -15.556,-0.229 c -3.946,0 -6.878,3.046 -6.878,6.897 l 0,0.038 c 0,3.813 2.874,6.935 6.993,6.935 2.529,0 4.041,-0.843 5.288,-2.069 l -1.878,-2.165 c -1.035,0.939 -2.088,1.513 -3.428,1.513 -2.262,0 -3.89,-1.878 -3.89,-4.177 l 0,-0.037 c 0,-2.299 1.59,-4.215 3.89,-4.215 1.532,0 2.47,0.613 3.524,1.572 l 1.878,-1.898 c -1.38,-1.474 -2.912,-2.394 -5.499,-2.394 m -9.617,0.229 -1.226,3.009 -5.67,0 -1.226,-3.009 -3.007,0 5.746,13.506 2.721,0 5.747,-13.506 -3.085,0 z m -12.24,0 -2.951,0 0,5.384 -5.441,0 0,-5.384 -2.95,0 0,13.41 2.95,0 0,-5.305 5.441,0 0,5.305 2.951,0 0,-13.41 z M 7.29,12.34 l -95.785,0 c -1.629,0 -2.947,-1.32 -2.947,-2.947 l 0,-16.209 c 0,-1.631 1.318,-2.95 2.947,-2.95 l 95.785,0 c 1.627,0 2.946,1.319 2.946,2.95 l 0,16.209 c 0,1.627 -1.319,2.947 -2.946,2.947"
               inkscape:connector-curvature="0" />
          </g>
          <g
             transform="translate(224.0254,154.9316)"
             id="g3141">
            <path
               id="path3143"
               style="fill:#ffffff;fill-opacity:1;fill-rule:nonzero;stroke:none"
               d="m 0,0 0,7.663 2.95,0 0,-7.584 c 0,-2.185 1.092,-3.316 2.892,-3.316 1.801,0 2.894,1.091 2.894,3.218 l 0,7.682 2.949,0 0,-7.567 c 0,-4.062 -2.28,-6.054 -5.88,-6.054 C 2.203,-5.958 0,-3.946 0,0"
               inkscape:connector-curvature="0" />
          </g>
          <g
             transform="translate(236.8408,151.1377)"
             id="g3145">
            <path
               id="path3147"
               style="fill:#ffffff;fill-opacity:1;fill-rule:nonzero;stroke:none"
               d="M 0,0 1.744,2.088 C 2.951,1.093 4.215,0.461 5.748,0.461 c 1.206,0 1.934,0.478 1.934,1.265 l 0,0.039 c 0,0.746 -0.459,1.131 -2.701,1.704 -2.702,0.688 -4.444,1.436 -4.444,4.1 l 0,0.038 c 0,2.431 1.954,4.042 4.692,4.042 1.955,0 3.623,-0.613 4.983,-1.705 L 8.678,7.722 C 7.491,8.545 6.322,9.045 5.192,9.045 4.062,9.045 3.468,8.525 3.468,7.874 l 0,-0.038 c 0,-0.881 0.575,-1.169 2.893,-1.762 2.72,-0.71 4.253,-1.687 4.253,-4.023 l 0,-0.038 C 10.614,-0.65 8.583,-2.145 5.69,-2.145 3.659,-2.145 1.61,-1.437 0,0"
               inkscape:connector-curvature="0" />
          </g>
          <path
             id="path3149"
             style="fill:#ffffff;fill-opacity:1;fill-rule:nonzero;stroke:none"
             d="m 249.198,162.595 2.949,0 0,-13.41 -2.949,0 0,13.41 z"
             inkscape:connector-curvature="0" />
          <g
             transform="translate(253.9473,155.8525)"
             id="g3151">
            <path
               id="path3153"
               style="fill:#ffffff;fill-opacity:1;fill-rule:nonzero;stroke:none"
               d="m 0,0 0,0.038 c 0,3.813 2.874,6.935 6.993,6.935 2.529,0 4.042,-0.843 5.288,-2.07 L 10.403,2.738 C 9.369,3.678 8.314,4.252 6.975,4.252 4.713,4.252 3.085,2.374 3.085,0.075 l 0,-0.037 c 0,-2.3 1.591,-4.216 3.89,-4.216 1.532,0 2.47,0.614 3.525,1.573 l 1.876,-1.898 C 10.997,-5.978 9.465,-6.897 6.877,-6.897 2.932,-6.897 0,-3.852 0,0"
               inkscape:connector-curvature="0" />
          </g>
          <g
             transform="translate(218.7959,162.5947)"
             id="g3155">
            <path
               id="path3157"
               style="fill:#ffffff;fill-opacity:1;fill-rule:nonzero;stroke:none"
               d="M 0,0 -3.525,-5.669 -7.05,0 l -3.18,0 0,-11.666 c -0.031,0 -0.062,0.002 -0.092,0.002 -0.895,0 -1.62,-0.259 -2.172,-0.779 -0.553,-0.522 -0.83,-1.161 -0.83,-1.925 0,-0.73 0.231,-1.317 0.693,-1.764 0.463,-0.447 1.091,-0.671 1.883,-0.671 0.669,0 1.288,0.146 1.856,0.442 0.568,0.294 0.967,0.687 1.201,1.176 0.208,0.439 0.322,1.031 0.344,1.775 l 0.01,0 0,8.698 3.735,-5.672 0.077,0 3.774,5.731 0,-7.011 -0.05,0 c -0.894,0 -1.618,-0.259 -2.172,-0.779 -0.553,-0.522 -0.829,-1.161 -0.829,-1.925 0,-0.73 0.231,-1.317 0.693,-1.764 0.463,-0.447 1.089,-0.671 1.884,-0.671 0.668,0 1.287,0.146 1.854,0.442 0.568,0.294 0.968,0.687 1.202,1.176 0.207,0.439 0.321,1.031 0.344,1.775 l 0.005,0 L 3.18,0 0,0 z"
               inkscape:connector-curvature="0" />
          </g>
        </g>
      </g>
      <text
         style="font-size:15px"
         y="646.50049"
         x="403.29327"
         id="text3189">
        <tspan
           id="tspan3191"
           sodipodi:role="line"
           y="646.50049"
           x="403.29327 411.81952 420.84454 423.64703 432.10205 441.12701 445.7583 454.07077 462.78702 467.10947 476.08701 485.42075 495.8945 503.77951 511.16574 515.48828 524.46576 -115.478 -105.43177 -96.739265 -83.344261 -73.511757 -64.154274 -59.522999 -51.068027 -41.235493"
           style="font-size:23.75px;font-style:italic;font-variant:normal;font-weight:normal;font-stretch:normal;writing-mode:lr-tb;fill:#ffffff;fill-opacity:1;fill-rule:nonzero;stroke:none;font-family:PF Din Text Comp Pro;-inkscape-font-specification:PFDinTextCompPro-Italic">28.10 15:00–17:00DEMOS FOR</tspan>
      </text>
      <text
         style="font-size:15px"
         y="646.50049"
         x="551.612"
         id="text3193">
        <tspan
           id="tspan3195"
           sodipodi:role="line"
           y="646.50049"
           x="551.612 561.44452 570.13702 579.06702 588.89954 597.52075 606.18951 615.5708 620.1308 629.96326 634.59454 644.56952 655.25702"
           style="font-size:23.75px;font-variant:normal;font-weight:normal;font-stretch:normal;writing-mode:lr-tb;fill:#ffffff;fill-opacity:1;fill-rule:nonzero;stroke:none;font-family:PF Din Text Comp Pro;-inkscape-font-specification:PFDinTextCompPro-Regular">REYKJAVÍK UNI</tspan>
      </text>
    </g>
  </g>
</svg>
