<?xml version="1.0" encoding="UTF-8" standalone="no"?>
<!-- Created with Inkscape (http://www.inkscape.org/) -->

<svg
   xmlns:dc="http://purl.org/dc/elements/1.1/"
   xmlns:cc="http://creativecommons.org/ns#"
   xmlns:rdf="http://www.w3.org/1999/02/22-rdf-syntax-ns#"
   xmlns:svg="http://www.w3.org/2000/svg"
   xmlns="http://www.w3.org/2000/svg"
   xmlns:sodipodi="http://sodipodi.sourceforge.net/DTD/sodipodi-0.dtd"
   xmlns:inkscape="http://www.inkscape.org/namespaces/inkscape"
   width="1920"
   height="1080"
   id="svg18044"
   version="1.1"
   inkscape:version="0.48.2 r9819"
   sodipodi:docname="mhd_1920_1080_02.svg">
  <defs
     id="defs18046" />
  <sodipodi:namedview
     id="base"
     pagecolor="#ffffff"
     bordercolor="#666666"
     borderopacity="1.0"
     inkscape:pageopacity="0.0"
     inkscape:pageshadow="2"
     inkscape:zoom="0.35"
     inkscape:cx="1049.2857"
     inkscape:cy="127.73385"
     inkscape:document-units="px"
     inkscape:current-layer="layer1"
     showgrid="false"
     inkscape:window-width="1556"
     inkscape:window-height="942"
     inkscape:window-x="1960"
     inkscape:window-y="102"
     inkscape:window-maximized="0" />
  <metadata
     id="metadata18049">
    <rdf:RDF>
      <cc:Work
         rdf:about="">
        <dc:format>image/svg+xml</dc:format>
        <dc:type
           rdf:resource="http://purl.org/dc/dcmitype/StillImage" />
        <dc:title></dc:title>
      </cc:Work>
    </rdf:RDF>
  </metadata>
  <g
     inkscape:label="Layer 1"
     inkscape:groupmode="layer"
     id="layer1"
     transform="translate(0,27.637817)">
    <rect
       style="fill:#008fcc;fill-opacity:1"
       id="rect3249"
       width="1920"
       height="1080"
       x="0"
       y="-1052.3622"
       transform="scale(1,-1)" />
    <g
       id="g16782"
       transform="matrix(0.76350402,0,0,0.76350402,-170.52704,-42.250446)">
      <g
         style="fill:#ffffff"
         transform="matrix(4.3296089,0,0,4.3296089,-125.75841,-3123.6653)"
         id="g4312">
        <path
           inkscape:connector-curvature="0"
           id="path3307"
           style="fill:#ffffff;fill-opacity:1;fill-rule:nonzero;stroke:none"
           d="m 434.36652,900.08169 c 0,-1.895 -1.32375,-2.87125 -3.4775,-2.87125 l -4.39875,0 0,5.77625 4.4825,0 c 2.1575,0 3.39375,-1.1525 3.39375,-2.84625 l 0,-0.0587 z m -0.0888,13.2525 -4.31125,-6.44125 -3.47625,0 0,6.44125 -4.42875,0 0,-20.1225 9.19875,0 c 4.74625,0 7.5875,2.505 7.5875,6.64 l 0,0.0588 c 0,3.2475 -1.7525,5.28875 -4.31125,6.23625 l 4.9175,7.1875 -5.17625,0 z" />
        <path
           inkscape:connector-curvature="0"
           id="path3309"
           style="fill:#ffffff;fill-opacity:1;fill-rule:nonzero;stroke:none"
           d="m 441.41152,913.33419 0,-20.1225 15.17625,0 0,3.94 -10.77625,0 0,4.0825 9.4825,0 0,3.935 -9.4825,0 0,4.22875 10.9225,0 0,3.93625 -15.3225,0 z" />
        <path
           inkscape:connector-curvature="0"
           id="path3311"
           style="fill:#ffffff;fill-opacity:1;fill-rule:nonzero;stroke:none"
           d="m 469.32652,905.31669 0,8.0175 -4.42375,0 0,-7.935 -7.73375,-12.1875 5.17,0 4.805,8.08125 4.8825,-8.08125 5.035,0 -7.735,12.105 z" />
        <path
           inkscape:connector-curvature="0"
           id="path3313"
           style="fill:#ffffff;fill-opacity:1;fill-rule:nonzero;stroke:none"
           d="m 491.37777,913.33419 -6.24,-8.565 -2.33,2.4125 0,6.1525 -4.42375,0 0,-20.1225 4.42375,0 0,8.79875 8.165,-8.79875 5.34625,0 -8.19375,8.54 8.57,11.5825 -5.3175,0 z" />
        <path
           inkscape:connector-curvature="0"
           id="path3315"
           style="fill:#ffffff;fill-opacity:1;fill-rule:nonzero;stroke:none"
           d="m 502.50527,913.62169 c -3.135,0 -5.2,-1.38125 -6.58125,-3.0175 l 2.7875,-3.105 c 1.1525,1.26375 2.27125,2.01125 3.6775,2.01125 1.66875,0 2.705,-1.00625 2.705,-3.335 l 0,-12.96375 4.54,0 0,13.16875 c 0,4.8825 -2.875,7.24125 -7.12875,7.24125" />
        <path
           inkscape:connector-curvature="0"
           id="path3317"
           style="fill:#ffffff;fill-opacity:1;fill-rule:nonzero;stroke:none"
           d="m 520.87527,898.38794 -2.67625,6.5225 5.35125,0 -2.675,-6.5225 z m 6.09375,14.94625 -1.84125,-4.5125 -8.50625,0 -1.84,4.5125 -4.5125,0 8.62375,-20.26375 4.08125,0 8.62375,20.26375 -4.62875,0 z" />
        <path
           inkscape:connector-curvature="0"
           id="path3319"
           style="fill:#ffffff;fill-opacity:1;fill-rule:nonzero;stroke:none"
           d="m 540.70902,913.48044 -3.90625,0 -8.135,-20.26875 4.8875,0 5.25875,14.175 5.25875,-14.175 4.775,0 -8.13875,20.26875 z" />
        <path
           inkscape:connector-curvature="0"
           id="path3321"
           style="fill:#ffffff;fill-opacity:1;fill-rule:nonzero;stroke:none"
           d="m 551.09402,891.63419 3.2475,-5.0875 3.765,1.635 -3.6775,3.4525 -3.335,0 z m -0.375,1.5775 4.42875,0 0,20.1225 -4.42875,0 0,-20.1225 z" />
        <path
           inkscape:connector-curvature="0"
           id="path3323"
           style="fill:#ffffff;fill-opacity:1;fill-rule:nonzero;stroke:none"
           d="m 571.72902,913.33419 -6.235,-8.565 -2.32875,2.4125 0,6.1525 -4.42375,0 0,-20.1225 4.42375,0 0,8.79875 8.16375,-8.79875 5.34625,0 -8.1925,8.54 8.56875,11.5825 -5.3225,0 z" />
        <path
           inkscape:connector-curvature="0"
           id="path3325"
           style="fill:#ffffff;fill-opacity:1;fill-rule:nonzero;stroke:none"
           d="m 379.38527,904.92044 5.3425,0 -2.67125,-6.51875 -2.67125,6.51875 z" />
        <path
           inkscape:connector-curvature="0"
           id="path3327"
           style="fill:#ffffff;fill-opacity:1;fill-rule:nonzero;stroke:none"
           d="m 361.44152,897.22544 -3.41875,0 0,12.11375 3.41875,0 c 3.6175,0 6.05875,-2.43625 6.05875,-5.99625 l 0,-0.0575 c 0,-3.56 -2.44125,-6.06 -6.05875,-6.06" />
        <path
           inkscape:connector-curvature="0"
           id="path3329"
           style="fill:#ffffff;fill-opacity:1;fill-rule:nonzero;stroke:none"
           d="m 300.57152,904.92044 5.3425,0 -2.67125,-6.51875 -2.67125,6.51875 z" />
        <path
           inkscape:connector-curvature="0"
           id="path3331"
           style="fill:#ffffff;fill-opacity:1;fill-rule:nonzero;stroke:none"
           d="m 401.35277,905.32044 0,8.01375 -4.42375,0 0,-7.925 -7.72375,-12.17375 5.17,0 4.795,8.0675 4.87875,-8.0675 5.02875,0 -7.725,12.085 z m -13.2075,8.01375 -1.83625,-4.5075 -8.50125,0 -1.84,4.5075 -4.5075,0 8.61375,-20.245 4.0775,0 8.6175,20.245 -4.62375,0 z m -26.70375,0 -7.8375,0 0,-20.09875 7.8375,0 c 6.3175,0 10.68375,4.33625 10.68375,9.99125 l 0,0.0588 c 0,5.65375 -4.36625,10.04875 -10.68375,10.04875 m -14.385,0 -6.23,-8.56 -2.325,2.4125 0,6.1475 -4.42375,0 0,-20.09875 4.42375,0 0,8.785 8.155,-8.785 5.34125,0 -8.18375,8.52625 8.555,11.5725 -5.3125,0 z m -23.315,0.34125 c -5.91375,0 -10.30375,-4.56 -10.30375,-10.3325 l 0,-0.0575 c 0,-5.71375 4.3025,-10.39625 10.47875,-10.39625 3.78875,0 6.055,1.265 7.925,3.10125 l -2.8175,3.24625 c -1.5475,-1.41125 -3.125,-2.27 -5.13625,-2.27 -3.38875,0 -5.83,2.8175 -5.83,6.26 l 0,0.0588 c 0,3.44625 2.3825,6.3175 5.83,6.3175 2.295,0 3.70125,-0.9225 5.2825,-2.35875 l 2.8125,2.8425 c -2.065,2.21125 -4.365,3.58875 -8.24125,3.58875 m -14.41,-0.34125 -1.84,-4.5075 -8.49625,0 -1.84125,4.5075 -4.50625,0 8.6125,-20.245 4.0775,0 8.61375,20.245 -4.62,0 z m -18.34875,0 -4.42,0 0,-8.0675 -8.15375,0 0,8.0675 -4.42375,0 0,-20.09875 4.42375,0 0,7.955 8.15375,0 0,-7.955 4.42,0 0,20.09875 z m 121.29375,-26.505 -143.56,0 c -2.44125,0 -4.41875,1.9775 -4.41875,4.42 l 0,24.29125 c 0,2.44125 1.9775,4.41875 4.41875,4.41875 l 143.56,0 c 2.44125,0 4.41875,-1.9775 4.41875,-4.41875 l 0,-24.29125 c 0,-2.4425 -1.9775,-4.42 -4.41875,-4.42" />
        <path
           inkscape:connector-curvature="0"
           id="path3333"
           style="fill:#ffffff;fill-opacity:1;fill-rule:nonzero;stroke:none"
           d="m 196.47027,904.72044 0,-11.485 4.42375,0 0,11.3675 c 0,3.27625 1.63625,4.97125 4.33125,4.97125 2.7,0 4.33625,-1.64125 4.33625,-4.825 l 0,-11.51375 4.42375,0 0,11.34375 c 0,6.08375 -3.41875,9.07125 -8.81375,9.07125 -5.4,0 -8.70125,-3.0175 -8.70125,-8.93" />
        <path
           inkscape:connector-curvature="0"
           id="path3335"
           style="fill:#ffffff;fill-opacity:1;fill-rule:nonzero;stroke:none"
           d="m 215.67902,910.40419 2.6125,-3.13 c 1.80625,1.49375 3.70125,2.44125 6.00125,2.44125 1.80625,0 2.9,-0.7175 2.9,-1.895 l 0,-0.0575 c 0,-1.11875 -0.68875,-1.695 -4.0475,-2.55375 -4.0475,-1.03625 -6.665,-2.15375 -6.665,-6.1425 l 0,-0.0588 c 0,-3.6475 2.93,-6.06 7.03625,-6.06 2.93,0 5.43,0.9175 7.46625,2.55375 l -2.295,3.33 c -1.7825,-1.23 -3.53625,-1.9775 -5.23,-1.9775 -1.69375,0 -2.5825,0.77625 -2.5825,1.7475 l 0,0.0588 c 0,1.32375 0.86375,1.75375 4.335,2.6425 4.0775,1.05875 6.3725,2.52875 6.3725,6.03 l 0,0.0588 c 0,3.98875 -3.0425,6.23 -7.3775,6.23 -3.0425,0 -6.11375,-1.065 -8.52625,-3.2175" />
        <path
           inkscape:connector-curvature="0"
           id="path3337"
           style="fill:#ffffff;fill-opacity:1;fill-rule:nonzero;stroke:none"
           d="m 234.20027,893.23544 4.41875,0 0,20.0975 -4.41875,0 0,-20.0975 z" />
        <path
           inkscape:connector-curvature="0"
           id="path3339"
           style="fill:#ffffff;fill-opacity:1;fill-rule:nonzero;stroke:none"
           d="m 241.31902,903.34294 0,-0.0575 c 0,-5.71375 4.30625,-10.39625 10.47875,-10.39625 3.79375,0 6.06,1.265 7.925,3.10125 l -2.8125,3.24625 c -1.5525,-1.41125 -3.13,-2.27 -5.1425,-2.27 -3.38875,0 -5.83,2.8175 -5.83,6.26 l 0,0.0588 c 0,3.44625 2.38875,6.3175 5.83,6.3175 2.3,0 3.70625,-0.9225 5.28375,-2.35875 l 2.8175,2.8425 c -2.07,2.21125 -4.365,3.58875 -8.2425,3.58875 -5.9125,0 -10.3075,-4.56 -10.3075,-10.3325" />
        <path
           inkscape:connector-curvature="0"
           id="path3341"
           style="fill:#ffffff;fill-opacity:1;fill-rule:nonzero;stroke:none"
           d="m 188.63402,893.23544 -5.28375,8.49625 -5.28375,-8.49625 -4.77,0 0,17.48625 c -0.0437,0 -0.0875,-0.005 -0.13625,-0.005 -1.33875,0 -2.4275,0.39 -3.2525,1.16625 -0.83,0.78125 -1.245,1.74375 -1.245,2.88625 0,1.09375 0.34625,1.9775 1.04,2.64625 0.69375,0.66875 1.63125,1.00625 2.8225,1.00625 1.00125,0 1.92875,-0.22 2.7825,-0.66375 0.85,-0.44 1.44625,-1.03125 1.7975,-1.7675 0.3125,-0.655 0.48375,-1.53875 0.5175,-2.65625 l 0.01,0 0,-13.0375 5.6,8.50125 0.1175,0 5.65375,-8.585 0,10.50375 c -0.0238,0 -0.0488,0 -0.0725,0 -1.3425,0 -2.4275,0.39 -3.2575,1.16625 -0.825,0.78125 -1.24,1.74375 -1.24,2.88625 0,1.09375 0.3425,1.9775 1.035,2.64625 0.69375,0.66875 1.63625,1.00625 2.8225,1.00625 1.00625,0 1.93375,-0.22 2.78375,-0.66375 0.84875,-0.44 1.45,-1.03125 1.80125,-1.7675 0.3075,-0.655 0.47875,-1.53875 0.5125,-2.65625 l 0.01,0 0,-20.09875 -4.765,0 z" />
      </g>
      <text
         sodipodi:linespacing="125%"
         id="text16778"
         y="679.5636"
         x="1028.5714"
         style="font-size:40px;font-style:normal;font-variant:normal;font-weight:normal;font-stretch:normal;line-height:125%;letter-spacing:0px;word-spacing:0px;fill:#000000;fill-opacity:1;stroke:none;font-family:PF Din Text Comp Pro;-inkscape-font-specification:PF Din Text Comp Pro"
         xml:space="preserve"><tspan
           style="font-size:160px;font-style:oblique;font-variant:normal;font-weight:normal;font-stretch:normal;text-align:start;line-height:125%;writing-mode:lr-tb;text-anchor:start;fill:#ffffff;fill-opacity:1;font-family:PF Din Text Comp Pro;-inkscape-font-specification:PF Din Text Comp Pro Oblique"
           y="679.5636"
           x="1028.5714"
           id="tspan16780"
           sodipodi:role="line">WELCOME TO</tspan></text>
    </g>
  </g>
</svg>
