<?xml version="1.0" encoding="UTF-8" standalone="no"?>
<!-- Created with Inkscape (http://www.inkscape.org/) -->

<svg
   xmlns:dc="http://purl.org/dc/elements/1.1/"
   xmlns:cc="http://creativecommons.org/ns#"
   xmlns:rdf="http://www.w3.org/1999/02/22-rdf-syntax-ns#"
   xmlns:svg="http://www.w3.org/2000/svg"
   xmlns="http://www.w3.org/2000/svg"
   xmlns:sodipodi="http://sodipodi.sourceforge.net/DTD/sodipodi-0.dtd"
   xmlns:inkscape="http://www.inkscape.org/namespaces/inkscape"
   id="svg4021"
   version="1.1"
   inkscape:version="0.48.2 r9819"
   width="1052.3625"
   height="744.09497"
   xml:space="preserve"
   sodipodi:docname="bags.ai"><metadata
     id="metadata4027"><rdf:RDF><cc:Work
         rdf:about=""><dc:format>image/svg+xml</dc:format><dc:type
           rdf:resource="http://purl.org/dc/dcmitype/StillImage" /><dc:title></dc:title></cc:Work></rdf:RDF></metadata><defs
     id="defs4025"><clipPath
       clipPathUnits="userSpaceOnUse"
       id="clipPath4037"><path
         d="m 0,595.276 841.89,0 L 841.89,0 0,0 0,595.276 z"
         id="path4039"
         inkscape:connector-curvature="0" /></clipPath><clipPath
       clipPathUnits="userSpaceOnUse"
       id="clipPath4053"><path
         d="m 0,595.276 841.89,0 L 841.89,0 0,0 0,595.276 z"
         id="path4055"
         inkscape:connector-curvature="0" /></clipPath><clipPath
       clipPathUnits="userSpaceOnUse"
       id="clipPath4147"><path
         d="m 22.595,0 790.872,0 0,594.275 -790.872,0 0,-594.275 z"
         id="path4149"
         inkscape:connector-curvature="0" /></clipPath></defs><sodipodi:namedview
     pagecolor="#ffffff"
     bordercolor="#666666"
     borderopacity="1"
     objecttolerance="10"
     gridtolerance="10"
     guidetolerance="10"
     inkscape:pageopacity="0"
     inkscape:pageshadow="2"
     inkscape:window-width="1920"
     inkscape:window-height="1138"
     id="namedview4023"
     showgrid="false"
     units="mm"
     inkscape:zoom="0.79555703"
     inkscape:cx="489.21452"
     inkscape:cy="493.27975"
     inkscape:window-x="1592"
     inkscape:window-y="-8"
     inkscape:window-maximized="1"
     inkscape:current-layer="g4029" /><g
     id="g4029"
     inkscape:groupmode="layer"
     inkscape:label="bags"
     transform="matrix(1.25,0,0,-1.25,0,744.09499)"><path
       d="m 0,452.61657 841.89,0 0,141.73228 -841.89,0 0,-141.73228 z"
       style="fill:#008fcc;fill-opacity:1;fill-rule:nonzero;stroke:none"
       id="path4031"
       inkscape:connector-curvature="0" /><path
       d="m 0.332,0 841.558,0 0,99.212598 -841.558,0 L 0.332,0 z"
       style="fill:#008ecb;fill-opacity:1;fill-rule:nonzero;stroke:none"
       id="path4047"
       inkscape:connector-curvature="0" /><g
       id="g4049"
       transform="translate(-0.37323047,20.8)"><g
         id="g4051"
         clip-path="url(#clipPath4053)"><g
           id="g4057"
           transform="translate(444.4277,46.5723)"><path
             d="m 0,0 c 0,1.445 -1.14,2.313 -2.891,2.313 l -3.618,0 0,-4.858 3.675,0 c 1.895,0 2.834,1.1 2.834,2.465 L 0,0 z m -0.002,-11.019 -3.612,5.238 -2.895,0 0,-5.238 -3.617,0 0,16.652 7.521,0 c 4.044,0 6.359,-2.164 6.359,-5.571 L 3.754,0 c 0,-2.602 -1.443,-4.336 -3.502,-5.203 l 4.074,-5.816 -4.328,0 z"
             style="fill:#ffffff;fill-opacity:1;fill-rule:nonzero;stroke:none"
             id="path4059"
             inkscape:connector-curvature="0" /></g><g
           id="g4061"
           transform="translate(450.2686,35.5537)"><path
             d="m 0,0 0,16.651 12.655,0 0,-3.32 -8.963,0 0,-3.379 7.813,0 0,-3.269 -7.813,0 0,-3.469 9.076,0 L 12.768,0 0,0 z"
             style="fill:#ffffff;fill-opacity:1;fill-rule:nonzero;stroke:none"
             id="path4063"
             inkscape:connector-curvature="0" /></g><g
           id="g4065"
           transform="translate(473.6006,42.2363)"><path
             d="m 0,0 0,-6.683 -3.739,0 0,6.496 -6.365,10.156 4.261,0 3.897,-6.789 4.083,6.789 4.237,0 L 0,0 z"
             style="fill:#ffffff;fill-opacity:1;fill-rule:nonzero;stroke:none"
             id="path4067"
             inkscape:connector-curvature="0" /></g><g
           id="g4069"
           transform="translate(491.8301,35.5537)"><path
             d="m 0,0 -5.203,6.972 -1.928,-2.023 0,-4.949 -3.574,0 0,16.651 3.574,0 0,-7.367 6.838,7.367 4.342,0 L -2.609,9.573 4.369,0 0,0 z"
             style="fill:#ffffff;fill-opacity:1;fill-rule:nonzero;stroke:none"
             id="path4071"
             inkscape:connector-curvature="0" /></g><g
           id="g4073"
           transform="translate(501.0801,35.2988)"><path
             d="m 0,0 c -2.604,0 -4.338,1.156 -5.494,2.445 l 2.312,2.542 c 0.983,-0.94 2.018,-1.558 3.18,-1.558 1.326,0 2.176,0.781 2.176,2.641 l 0,10.836 3.807,0 0,-10.869 C 5.981,1.95 3.471,0 0,0"
             style="fill:#ffffff;fill-opacity:1;fill-rule:nonzero;stroke:none"
             id="path4075"
             inkscape:connector-curvature="0" /></g><g
           id="g4077"
           transform="translate(516.3984,47.9707)"><path
             d="m 0,0 -2.313,-5.445 4.548,0 L 0,0 z m 4.989,-12.417 -1.52,3.738 -6.956,0 -1.683,-3.738 -3.735,0 7.171,16.8 3.468,0 7.229,-16.8 -3.974,0 z"
             style="fill:#ffffff;fill-opacity:1;fill-rule:nonzero;stroke:none"
             id="path4079"
             inkscape:connector-curvature="0" /></g><g
           id="g4081"
           transform="translate(532.8809,35.2988)"><path
             d="m 0,0 -3.194,0 -6.929,16.906 4.053,0 4.455,-11.703 4.439,11.703 3.821,0 L 0,0 z"
             style="fill:#ffffff;fill-opacity:1;fill-rule:nonzero;stroke:none"
             id="path4083"
             inkscape:connector-curvature="0" /></g><g
           id="g4085"
           transform="translate(541.5527,53.5098)"><path
             d="M 0,0 2.594,4.336 5.783,2.891 2.627,0 0,0 z m -0.302,-1.305 3.562,0 0,-16.651 -3.562,0 0,16.651 z"
             style="fill:#ffffff;fill-opacity:1;fill-rule:nonzero;stroke:none"
             id="path4087"
             inkscape:connector-curvature="0" /></g><g
           id="g4089"
           transform="translate(558.5996,35.5537)"><path
             d="m 0,0 -5.203,6.972 -1.879,-2.023 0,-4.949 -3.606,0 0,16.651 3.606,0 0,-7.367 6.805,7.367 4.336,0 L -2.592,9.573 4.419,0 0,0 z"
             style="fill:#ffffff;fill-opacity:1;fill-rule:nonzero;stroke:none"
             id="path4091"
             inkscape:connector-curvature="0" /></g><g
           id="g4093"
           transform="translate(570.7422,46.8613)"><path
             d="m 0,0 -2.588,2.035 c 1.731,2.301 3.395,3.46 6.356,3.46 3.468,0 5.781,-2.026 5.781,-5.155 0,-2.653 -1.457,-4.098 -4.371,-6.41 l -2.865,-2.064 7.317,0 0,-3.174 -12.282,0 0,2.925 5.543,4.485 c 2.033,1.695 2.888,2.678 2.888,3.957 0,1.386 -0.885,2.254 -2.31,2.254 C 2.285,2.313 1.369,1.537 0,0"
             style="fill:#ffffff;fill-opacity:1;fill-rule:nonzero;stroke:none"
             id="path4095"
             inkscape:connector-curvature="0" /></g><g
           id="g4097"
           transform="translate(589.2402,49.1738)"><path
             d="m 0,0 c -2.307,0 -3.65,-2.313 -3.65,-5.228 0,-3.155 1.485,-5.467 3.65,-5.467 2.313,0 3.771,2.312 3.771,5.332 C 3.771,-2.313 2.31,0 0,0 m 0,-13.904 c -4.427,0 -7.453,3.741 -7.453,8.541 0,4.802 3.127,8.678 7.453,8.678 4.6,0 7.516,-3.739 7.516,-8.543 0,-4.889 -3.05,-8.676 -7.516,-8.676"
             style="fill:#ffffff;fill-opacity:1;fill-rule:nonzero;stroke:none"
             id="path4099"
             inkscape:connector-curvature="0" /></g><g
           id="g4101"
           transform="translate(601.9648,52.3535)"><path
             d="m 0,0 2.609,0 0,-16.8 -3.672,0 0,13.042 -2.96,-0.694 -0.608,3.007 L 0,0 z"
             style="fill:#ffffff;fill-opacity:1;fill-rule:nonzero;stroke:none"
             id="path4103"
             inkscape:connector-curvature="0" /></g><g
           id="g4105"
           transform="translate(609.4766,46.8613)"><path
             d="m 0,0 -2.588,2.035 c 1.733,2.301 3.323,3.46 6.359,3.46 3.469,0 5.782,-2.026 5.782,-5.155 0,-2.653 -1.459,-4.098 -4.445,-6.41 l -2.795,-2.064 7.242,0 0,-3.174 -12.274,0 0,2.925 5.61,4.485 c 2.037,1.695 2.89,2.678 2.89,3.957 0,1.386 -0.953,2.254 -2.312,2.254 C 2.217,2.313 1.302,1.537 0,0"
             style="fill:#ffffff;fill-opacity:1;fill-rule:nonzero;stroke:none"
             id="path4107"
             inkscape:connector-curvature="0" /></g><g
           id="g4109"
           transform="translate(398.7588,42.5254)"><path
             d="M 0,0 4.403,0 2.295,5.401 0,0 z"
             style="fill:#ffffff;fill-opacity:1;fill-rule:nonzero;stroke:none"
             id="path4111"
             inkscape:connector-curvature="0" /></g><g
           id="g4113"
           transform="translate(383.8237,48.8848)"><path
             d="m 0,0 -2.766,0 0,-10.117 2.766,0 c 3.073,0 5.102,2.023 5.102,4.949 l 0,0.138 C 5.102,-2.023 3.073,0 0,0"
             style="fill:#ffffff;fill-opacity:1;fill-rule:nonzero;stroke:none"
             id="path4115"
             inkscape:connector-curvature="0" /></g><g
           id="g4117"
           transform="translate(333.2266,42.5254)"><path
             d="M 0,0 4.511,0 2.225,5.401 0,0 z"
             style="fill:#ffffff;fill-opacity:1;fill-rule:nonzero;stroke:none"
             id="path4119"
             inkscape:connector-curvature="0" /></g><g
           id="g4121"
           transform="translate(416.9688,42.2363)"><path
             d="m 0,0 0,-6.686 -3.617,0 0,6.476 -6.486,10.125 4.32,0 4.045,-6.735 4.047,6.735 4.122,0 L 0,0 z m -10.982,-6.686 -1.445,3.733 -7.077,0 -1.589,-3.733 -3.757,0 7.218,16.803 3.459,0 7.108,-16.803 -3.917,0 z m -22.163,0 -6.459,0 0,16.601 6.459,0 c 5.323,0 8.866,-3.556 8.866,-8.181 l 0,-0.116 c 0,-4.798 -3.543,-8.304 -8.866,-8.304 m -11.95,0 -5.2,6.975 -1.891,-2.023 0,-4.952 -3.622,0 0,16.601 3.622,0 0,-7.313 6.802,7.313 4.352,0 -6.678,-7.024 7,-9.577 -4.385,0 z m -19.367,-0.275 c -4.915,0 -8.597,3.781 -8.597,8.441 l 0,0.138 c 0,4.741 3.664,8.58 8.778,8.58 3.099,0 5.018,-0.948 6.505,-2.534 l -2.334,-2.75 c -1.191,1.156 -2.599,2.024 -4.231,2.024 -2.759,0 -4.783,-2.374 -4.783,-5.204 l 0,-0.116 c 0,-2.821 1.957,-5.341 4.783,-5.341 1.902,0 3.06,0.832 4.451,1.989 l 2.343,-2.313 c -1.727,-1.791 -3.725,-2.914 -6.915,-2.914 m -11.931,0.275 -1.614,3.733 -6.996,0 -1.51,-3.733 -3.742,0 7.078,16.803 3.398,0 7.216,-16.803 -3.83,0 z m -15.268,0 -3.725,0 0,6.686 -6.71,0 0,-6.686 -3.712,0 0,16.601 3.712,0 0,-6.546 6.71,0 0,6.546 3.725,0 0,-16.601 z M 9.187,15.32 l -119.359,0 c -2.026,0 -3.711,-1.734 -3.711,-3.757 l 0,-20.235 c 0,-2.024 1.685,-3.544 3.711,-3.544 l 119.359,0 c 2.037,0 3.542,1.52 3.542,3.544 l 0,20.235 c 0,2.023 -1.505,3.757 -3.542,3.757"
             style="fill:#ffffff;fill-opacity:1;fill-rule:nonzero;stroke:none"
             id="path4123"
             inkscape:connector-curvature="0" /></g><g
           id="g4125"
           transform="translate(246.7168,42.5879)"><path
             d="m 0,0 0,9.563 3.693,0 0,-9.336 c 0,-2.891 1.365,-4.231 3.578,-4.231 2.252,0 3.642,1.34 3.642,3.942 l 0,9.625 3.643,0 0,-9.336 c 0,-5.204 -2.795,-7.516 -7.328,-7.516 C 2.782,-7.289 0,-4.92 0,0"
             style="fill:#ffffff;fill-opacity:1;fill-rule:nonzero;stroke:none"
             id="path4127"
             inkscape:connector-curvature="0" /></g><g
           id="g4129"
           transform="translate(262.668,37.9004)"><path
             d="M 0,0 2.201,2.602 C 3.692,1.445 5.28,0.578 7.172,0.578 c 1.493,0 2.399,0.578 2.399,1.581 l 0,0.129 c 0,0.892 -0.562,1.35 -3.332,2.048 -3.39,0.867 -5.512,1.734 -5.512,5.203 0,2.891 2.391,4.914 5.814,4.914 2.412,0 4.506,-0.629 6.18,-2.023 L 10.859,9.544 c -1.469,1.151 -2.929,1.729 -4.337,1.729 -1.433,0 -2.2,-0.578 -2.2,-1.445 0,-1.156 0.756,-1.445 3.647,-2.312 3.358,-0.868 5.263,-2.024 5.263,-4.914 0,-3.469 -2.54,-5.204 -6.117,-5.204 C 4.563,-2.602 2.01,-1.734 0,0"
             style="fill:#ffffff;fill-opacity:1;fill-rule:nonzero;stroke:none"
             id="path4131"
             inkscape:connector-curvature="0" /></g><path
           d="m 278.118,52.151 3.616,0 0,-16.601 -3.616,0 0,16.601 z"
           style="fill:#ffffff;fill-opacity:1;fill-rule:nonzero;stroke:none"
           id="path4133"
           inkscape:connector-curvature="0" /><g
           id="g4135"
           transform="translate(283.9932,43.7168)"><path
             d="m 0,0 0,0.138 c 0,4.741 3.567,8.58 8.699,8.58 3.159,0 5.097,-0.948 6.616,-2.534 L 12.979,3.434 C 11.652,4.59 10.375,5.457 8.678,5.457 5.851,5.457 3.823,3.084 3.823,0.254 l 0,-0.116 c 0,-2.822 1.987,-5.341 4.855,-5.341 1.963,0 3.122,0.832 4.382,1.988 l 2.334,-2.312 C 13.687,-7.318 11.816,-8.441 8.612,-8.441 3.695,-8.441 0,-4.66 0,0"
             style="fill:#ffffff;fill-opacity:1;fill-rule:nonzero;stroke:none"
             id="path4137"
             inkscape:connector-curvature="0" /></g><g
           id="g4139"
           transform="translate(240.2339,52.1514)"><path
             d="M 0,0 -4.439,-7.024 -8.816,0 l -3.955,0 0,-14.54 -0.122,0 c -1.113,0 -2.013,-0.289 -2.67,-0.867 -0.734,-0.679 -1.066,-1.446 -1.066,-2.457 0,-0.982 0.287,-1.591 0.86,-2.169 0.579,-0.578 1.374,-0.866 2.343,-0.866 0.84,0 1.63,0.26 2.312,0.578 0.746,0.288 1.192,0.866 1.486,1.445 0.264,0.578 0.433,1.24 0.453,2.275 l 0.017,0 0,10.733 4.643,-6.938 0.076,0 4.76,6.972 0,-8.706 -0.117,0 c -1.07,0 -2.013,-0.289 -2.695,-0.867 -0.65,-0.679 -1.018,-1.446 -1.018,-2.457 0,-0.982 0.284,-1.591 0.855,-2.169 0.572,-0.578 1.349,-0.866 2.38,-0.866 0.802,0 1.563,0.26 2.311,0.578 0.673,0.288 1.193,0.866 1.484,1.445 0.272,0.578 0.374,1.24 0.397,2.275 l 0.005,0 L 3.923,0 0,0 z"
             style="fill:#ffffff;fill-opacity:1;fill-rule:nonzero;stroke:none"
             id="path4141"
             inkscape:connector-curvature="0" /></g></g></g><g
       id="g4143"
       transform="translate(3.4110195,-6.4)"><g
         id="g4145"
         clip-path="url(#clipPath4147)"><g
           id="g4151"
           transform="translate(239.6094,197.8154)"><path
             d="m 0,0 c 2.905,0 5.404,1.088 7.482,3.273 2.09,2.178 3.132,4.815 3.132,7.866 0,3.019 -1.042,5.624 -3.132,7.768 -2.078,2.151 -4.611,3.222 -7.56,3.222 -2.942,0 -5.41,-1.052 -7.429,-3.144 -2.017,-2.109 -3.016,-4.672 -3.016,-7.681 0,-3.14 1.02,-5.814 3.06,-8.011 C -5.42,1.097 -2.93,0 0,0 m 0.607,-33.257 c 4.114,0 7.387,0.732 9.815,2.193 2.432,1.483 3.644,3.436 3.644,5.831 0,4.87 -4.214,7.314 -12.638,7.314 -9.61,0 -14.412,-2.54 -14.412,-7.69 0,-5.103 4.528,-7.648 13.591,-7.648 m 17.604,59.114 0,-3.616 -9.014,0 c 3.646,-3.495 5.475,-7.186 5.475,-11.043 0,-3.446 -0.715,-6.2 -2.142,-8.212 C 11.111,0.978 9.41,-0.506 7.449,-1.393 5.467,-2.325 2.846,-3.248 -0.432,-4.105 -3.711,-5.009 -5.761,-5.842 -6.594,-6.62 -7.43,-7.394 -7.849,-8.312 -7.849,-9.319 c 0,-1.228 0.536,-2.177 1.616,-2.918 1.078,-0.709 4.427,-1.234 10.048,-1.573 5.624,-0.342 9.409,-1.46 11.374,-3.37 1.954,-1.923 2.929,-4.5 2.929,-7.674 0,-3.769 -1.56,-6.751 -4.693,-8.91 -3.136,-2.132 -7.493,-3.211 -13.075,-3.211 -5.554,0 -9.842,1.007 -12.864,3.058 -3.016,2.026 -4.524,4.726 -4.524,8.041 0,5.429 3.849,8.785 11.562,10.073 l 0,0.199 c -4.289,1.056 -6.422,3.031 -6.422,5.9 0,2.913 2.637,5.185 7.928,6.766 l 0,0.2 c -3.48,1.087 -6.121,2.882 -7.913,5.399 -1.798,2.505 -2.7,5.295 -2.7,8.366 0,4.369 1.46,7.934 4.355,10.691 2.905,2.763 7.077,4.139 12.518,4.139 l 15.921,0 z"
             style="fill:#3cabdd;fill-opacity:1;fill-rule:nonzero;stroke:none"
             id="path4153"
             inkscape:connector-curvature="0" /></g><g
           id="g4155"
           transform="translate(291.6387,219.5547)"><path
             d="m 0,0 -2.459,-4.161 c -3.303,3.143 -5.971,4.749 -7.983,4.749 -3.971,0 -8.213,-3.991 -12.728,-11.95 l 0,-26.077 -4.224,0 0,41.557 4.224,0 0,-10.935 0.176,0 C -18.253,1.002 -13.623,4.93 -9.107,4.93 -6.513,4.93 -3.475,3.285 0,0"
             style="fill:#3cabdd;fill-opacity:1;fill-rule:nonzero;stroke:none"
             id="path4157"
             inkscape:connector-curvature="0" /></g><g
           id="g4159"
           transform="translate(296.6841,207.9902)"><path
             d="M 0,0 25.718,0 C 24.22,8.079 20.033,12.152 13.163,12.152 9.914,12.152 7.097,11.071 4.735,8.951 2.352,6.837 0.785,3.85 0,0 m 30.719,-3.581 -31.278,0 c -0.084,-0.698 -0.127,-1.43 -0.127,-2.166 0,-4.634 1.582,-8.541 4.745,-11.785 3.156,-3.228 6.903,-4.832 11.212,-4.832 5.034,0 9.951,2.086 14.757,6.187 l 0,-4.999 c -4.548,-3.69 -9.628,-5.519 -15.275,-5.519 -5.723,0 -10.448,2.069 -14.193,6.231 -3.733,4.159 -5.605,9.457 -5.605,15.854 0,6.091 1.729,11.106 5.173,15.122 3.456,3.976 7.797,5.982 13.035,5.982 4.917,0 9.066,-1.824 12.462,-5.423 3.393,-3.572 5.094,-8.455 5.094,-14.652"
             style="fill:#3cabdd;fill-opacity:1;fill-rule:nonzero;stroke:none"
             id="path4161"
             inkscape:connector-curvature="0" /></g><g
           id="g4163"
           transform="translate(339.0088,207.9902)"><path
             d="m 0,0 25.714,0 c -1.5,8.079 -5.68,12.152 -12.558,12.152 -3.247,0 -6.062,-1.081 -8.434,-3.201 C 2.353,6.837 0.779,3.85 0,0 m 30.723,-3.581 -31.283,0 c -0.083,-0.698 -0.126,-1.43 -0.126,-2.166 0,-4.634 1.574,-8.541 4.743,-11.785 3.168,-3.228 6.895,-4.832 11.21,-4.832 5.043,0 9.96,2.086 14.754,6.187 l 0,-4.999 c -4.531,-3.69 -9.631,-5.519 -15.272,-5.519 -5.725,0 -10.448,2.069 -14.191,6.231 -3.736,4.159 -5.604,9.457 -5.604,15.854 0,6.091 1.725,11.106 5.18,15.122 3.443,3.976 7.785,5.982 13.022,5.982 4.917,0 9.08,-1.824 12.466,-5.423 3.405,-3.572 5.101,-8.455 5.101,-14.652"
             style="fill:#3cabdd;fill-opacity:1;fill-rule:nonzero;stroke:none"
             id="path4165"
             inkscape:connector-curvature="0" /></g><g
           id="g4167"
           transform="translate(382.457,223.6729)"><path
             d="m 0,0 0,-7.244 0.158,0 c 3.315,5.357 7.672,8.056 13.072,8.056 4.5,0 8.089,-1.526 10.757,-4.541 2.668,-3.007 3.999,-7.16 3.999,-12.504 l 0,-25.326 -4.207,0 0,23.658 c 0,9.568 -3.602,14.371 -10.813,14.371 C 7.724,-3.53 3.383,-6.518 0,-12.44 l 0,-29.119 -4.242,0 L -4.242,0 0,0 z"
             style="fill:#3cabdd;fill-opacity:1;fill-rule:nonzero;stroke:none"
             id="path4169"
             inkscape:connector-curvature="0" /></g><g
           id="g4171"
           transform="translate(447.3916,189.958)"><path
             d="m 0,0 0,26.027 -4.982,0 c -3.422,0 -5.655,-0.179 -6.802,-0.472 -1.149,-0.307 -2.118,-0.77 -2.962,-1.325 -0.836,-0.564 -1.596,-1.227 -2.307,-2.033 -2.156,-2.576 -3.234,-5.714 -3.234,-9.46 0,-4.257 1.221,-7.713 3.666,-10.395 2.435,-2.684 5.564,-4.035 9.433,-4.035 0.904,0 1.629,0.039 2.206,0.167 0.587,0.11 1.842,0.513 3.812,1.195 l 0.606,0.17 L 0,0 z m -7.032,33.715 14.886,0 0,-62.726 -7.854,0 0,21.876 c -3.449,-0.952 -6.327,-1.417 -8.697,-1.417 -5.653,0 -10.325,1.958 -13.986,5.948 -3.713,3.959 -5.548,9.027 -5.548,15.109 0,6.503 1.915,11.65 5.747,15.48 3.832,3.815 8.979,5.73 15.452,5.73"
             style="fill:#3cabdd;fill-opacity:1;fill-rule:nonzero;stroke:none"
             id="path4173"
             inkscape:connector-curvature="0" /></g><path
           d="m 465.959,245.207 7.87,0 0,-63.091 -7.87,0 0,63.091 z"
           style="fill:#3cabdd;fill-opacity:1;fill-rule:nonzero;stroke:none"
           id="path4175"
           inkscape:connector-curvature="0" /><g
           id="g4177"
           transform="translate(503.7285,216.335)"><path
             d="m 0,0 c -3.762,0 -6.874,-1.3 -9.277,-3.864 -2.41,-2.61 -3.63,-5.907 -3.63,-9.903 0,-3.958 1.248,-7.217 3.715,-9.718 2.466,-2.525 5.654,-3.774 9.543,-3.774 3.831,0 7.007,1.266 9.467,3.819 2.466,2.521 3.67,5.78 3.67,9.78 0,3.916 -1.266,7.186 -3.851,9.796 C 7.106,-1.3 3.886,0 0,0 m 0.418,7.401 c 6.045,0 11.074,-2.016 15.069,-6.102 3.978,-4.075 5.992,-9.205 5.992,-15.391 0,-5.984 -2.04,-10.969 -6.097,-14.91 -4.046,-3.969 -9.143,-5.927 -15.303,-5.927 -5.973,0 -10.914,1.981 -14.934,6.033 -3.994,4.001 -6.004,9.005 -6.004,15.025 0,6.091 2.036,11.148 6.08,15.223 4.028,4.054 9.122,6.049 15.197,6.049"
             style="fill:#3cabdd;fill-opacity:1;fill-rule:nonzero;stroke:none"
             id="path4179"
             inkscape:connector-curvature="0" /></g><g
           id="g4181"
           transform="translate(559.1914,182.1152)"><path
             d="M 0,0 0,5.335 C -1.672,3.425 -3.579,1.92 -5.716,0.864 c -2.135,-1.055 -4.265,-1.573 -6.381,-1.573 -2.51,0 -4.835,0.624 -6.95,1.954 -2.094,1.316 -3.69,3.067 -4.768,5.318 -1.075,2.256 -1.616,5.968 -1.616,11.181 l 0,23.814 7.852,0 0,-23.69 c 0,-4.361 0.6,-7.396 1.766,-9.139 1.206,-1.739 3.29,-2.58 6.285,-2.58 3.734,0 6.926,1.911 9.528,5.725 l 0,29.684 7.849,0 L 7.849,0 0,0 z"
             style="fill:#3cabdd;fill-opacity:1;fill-rule:nonzero;stroke:none"
             id="path4183"
             inkscape:connector-curvature="0" /></g><g
           id="g4185"
           transform="translate(604.5996,189.1475)"><path
             d="m 0,0 0,26.352 c -2.448,1.28 -4.919,1.923 -7.429,1.923 -3.922,0 -7.014,-1.353 -9.353,-4.024 -2.294,-2.678 -3.456,-6.3 -3.456,-10.829 0,-4.269 0.99,-7.565 3.02,-9.901 1.185,-1.386 2.494,-2.306 3.842,-2.773 C -12.023,0.235 -9.595,0 -6.092,0 L 0,0 z m 0,56.06 7.897,0 0,-63.093 -16.809,0 c -5.846,0 -10.532,1.937 -14.024,5.838 -3.481,3.861 -5.249,9.068 -5.249,15.6 0,6.128 1.82,11.146 5.506,15.084 3.645,3.96 8.337,5.911 14.02,5.911 2.676,0 5.537,-0.584 8.659,-1.739 L 0,56.06 z"
             style="fill:#3cabdd;fill-opacity:1;fill-rule:nonzero;stroke:none"
             id="path4187"
             inkscape:connector-curvature="0" /></g><g
           id="g4189"
           transform="translate(450.3936,334.8877)"><path
             d="m 0,0 c -5.857,0 -10.717,5.088 -10.717,11.209 0,6.108 4.86,11.201 10.717,11.201 5.817,0 10.671,-5.093 10.671,-11.201 C 10.671,5.088 5.817,0 0,0 m -8.5,-23.364 c -5.668,0 -10.416,4.978 -10.416,10.917 0,5.94 4.748,10.913 10.416,10.913 5.679,0 10.424,-4.973 10.424,-10.913 0,-5.63 -5.02,-10.917 -10.424,-10.917 m 0,70.518 c 5.82,0 10.695,-5.116 10.695,-11.217 0,-6.102 -4.875,-11.209 -10.695,-11.209 -5.851,0 -10.704,5.107 -10.704,11.209 0,6.101 4.853,11.217 10.704,11.217 M -31.829,-6.477 c -6.128,0 -11.25,5.373 -11.25,11.803 0,6.428 5.122,11.784 11.25,11.784 6.165,0 11.288,-5.356 11.288,-11.784 0,-6.43 -5.123,-11.803 -11.288,-11.803 m 0,-25.726 c -5.825,0 -10.675,5.1 -10.675,11.191 0,6.105 4.85,11.206 10.675,11.206 5.841,0 10.722,-5.101 10.722,-11.206 0,-6.091 -4.881,-11.191 -10.722,-11.191 m 0,-25.697 c -5.825,0 -10.675,5.094 -10.675,11.213 0,6.087 4.85,11.222 10.675,11.222 5.841,0 10.722,-5.135 10.722,-11.222 0,-6.119 -4.881,-11.213 -10.722,-11.213 m -23.595,82.424 c -5.86,0 -10.72,5.082 -10.72,11.205 0,6.1 4.86,11.193 10.72,11.193 5.832,0 10.698,-5.093 10.698,-11.193 0,-6.123 -4.866,-11.205 -10.698,-11.205 m 0,-48.171 c -5.86,0 -10.72,5.088 -10.72,11.2 0,6.103 4.86,11.207 10.72,11.207 5.832,0 10.698,-5.104 10.698,-11.207 0,-6.112 -4.866,-11.2 -10.698,-11.2 m -20.113,34.856 c 0,6.108 4.861,11.201 10.699,11.201 5.819,0 10.7,-5.093 10.7,-11.201 C -54.138,5.088 -59.019,0 -64.838,0 -70.676,0 -75.537,5.088 -75.537,11.209 m 43.708,44.274 c 5.862,0 10.722,-5.084 10.722,-11.184 0,-6.123 -4.86,-11.224 -10.722,-11.224 -5.811,0 -10.675,5.101 -10.675,11.224 0,6.1 4.864,11.184 10.675,11.184 M 32.918,30.377 c 0,0 3.911,19.248 -7.57,27.599 -10.016,7.278 -26.591,1.493 -26.591,1.493 0,0 -10.017,13.305 -28.632,13.509 -20.472,0.203 -30.06,-12.437 -30.06,-12.437 0,0 -22.065,7.669 -33.338,-5.129 -9.729,-11.027 -4.381,-26.915 -4.292,-27.183 -0.246,-0.061 -17.82,-4.425 -18.82,-23.545 -1.077,-20.319 16.576,-28.474 16.576,-28.474 0,0 -3.845,-20.94 6.118,-30.814 11.063,-10.904 33.142,-3.877 33.142,-3.877 0,0 7.982,-13.034 26.573,-13.248 23.095,-0.264 30.703,13.922 30.703,13.922 0,0 20.653,-8.795 33.735,4.472 11.445,11.614 3.274,29.545 3.274,29.545 0,0 16.95,4.323 18.196,24.825 1.227,20.122 -19.014,29.342 -19.014,29.342"
             style="fill:#38acdd;fill-opacity:1;fill-rule:nonzero;stroke:none"
             id="path4191"
             inkscape:connector-curvature="0" /></g></g></g><g
       id="g4450"
       transform="translate(16,-20.8)"><text
         transform="scale(1,-1)"
         sodipodi:linespacing="125%"
         id="text4423"
         y="-532.28625"
         x="27.924641"
         style="font-size:56px;font-style:normal;font-variant:normal;font-weight:normal;font-stretch:normal;text-align:start;line-height:125%;letter-spacing:0px;word-spacing:0px;writing-mode:lr-tb;text-anchor:start;fill:#000000;fill-opacity:1;stroke:none;font-family:PF Din Text Comp Pro Medium;-inkscape-font-specification:'PF Din Text Comp Pro Medium,'"
         xml:space="preserve"><tspan
           style="font-size:56px;font-style:normal;font-variant:normal;font-weight:normal;font-stretch:normal;text-align:start;line-height:125%;writing-mode:lr-tb;text-anchor:start;fill:#ffffff;fill-opacity:1;font-family:PF Din Text Comp Pro Medium;-inkscape-font-specification:'PF Din Text Comp Pro Medium,'"
           y="-532.28625"
           x="27.924641"
           id="tspan4425"
           sodipodi:role="line">THANK YOU</tspan></text>
<text
         transform="scale(1,-1)"
         sodipodi:linespacing="125%"
         id="text4423-9"
         y="-494.36627"
         x="26.137085"
         style="font-size:36px;font-style:oblique;font-variant:normal;font-weight:normal;font-stretch:normal;text-align:start;line-height:125%;letter-spacing:0px;word-spacing:0px;writing-mode:lr-tb;text-anchor:start;fill:#ffffff;fill-opacity:1;stroke:none;font-family:PF Din Text Comp Pro;-inkscape-font-specification:PF Din Text Comp Pro Oblique"
         xml:space="preserve"><tspan
           id="tspan4448"
           sodipodi:role="line"
           x="26.137085"
           y="-494.36627">FOR SPONSORING THE BAGS</tspan></text>
</g></g></svg>