<?xml version="1.0" encoding="UTF-8" standalone="no"?>
<!-- Created with Inkscape (http://www.inkscape.org/) -->

<svg
   xmlns:dc="http://purl.org/dc/elements/1.1/"
   xmlns:cc="http://creativecommons.org/ns#"
   xmlns:rdf="http://www.w3.org/1999/02/22-rdf-syntax-ns#"
   xmlns:svg="http://www.w3.org/2000/svg"
   xmlns="http://www.w3.org/2000/svg"
   xmlns:sodipodi="http://sodipodi.sourceforge.net/DTD/sodipodi-0.dtd"
   xmlns:inkscape="http://www.inkscape.org/namespaces/inkscape"
   id="svg4021"
   version="1.1"
   inkscape:version="0.48.2 r9819"
   width="1052.3625"
   height="744.09497"
   xml:space="preserve"
   sodipodi:docname="bags.svg"><metadata
     id="metadata4027"><rdf:RDF><cc:Work
         rdf:about=""><dc:format>image/svg+xml</dc:format><dc:type
           rdf:resource="http://purl.org/dc/dcmitype/StillImage" /><dc:title></dc:title></cc:Work></rdf:RDF></metadata><defs
     id="defs4025"><clipPath
       clipPathUnits="userSpaceOnUse"
       id="clipPath4037"><path
         d="m 0,595.276 841.89,0 L 841.89,0 0,0 0,595.276 z"
         id="path4039"
         inkscape:connector-curvature="0" /></clipPath><clipPath
       clipPathUnits="userSpaceOnUse"
       id="clipPath4053"><path
         d="m 0,595.276 841.89,0 L 841.89,0 0,0 0,595.276 z"
         id="path4055"
         inkscape:connector-curvature="0" /></clipPath><clipPath
       clipPathUnits="userSpaceOnUse"
       id="clipPath4147"><path
         d="m 22.595,0 790.872,0 0,594.275 -790.872,0 0,-594.275 z"
         id="path4149"
         inkscape:connector-curvature="0" /></clipPath><clipPath
       clipPathUnits="userSpaceOnUse"
       id="clipPath4488"><path
         inkscape:connector-curvature="0"
         d="m 0,595.276 841.89,0 L 841.89,0 0,0 0,595.276 z"
         id="path4490" /></clipPath></defs><sodipodi:namedview
     pagecolor="#ffffff"
     bordercolor="#666666"
     borderopacity="1"
     objecttolerance="10"
     gridtolerance="10"
     guidetolerance="10"
     inkscape:pageopacity="0"
     inkscape:pageshadow="2"
     inkscape:window-width="1920"
     inkscape:window-height="1138"
     id="namedview4023"
     showgrid="false"
     units="mm"
     inkscape:zoom="0.79555703"
     inkscape:cx="489.21452"
     inkscape:cy="493.27975"
     inkscape:window-x="1592"
     inkscape:window-y="-8"
     inkscape:window-maximized="1"
     inkscape:current-layer="g4029" /><g
     id="g4029"
     inkscape:groupmode="layer"
     inkscape:label="bags"
     transform="matrix(1.25,0,0,-1.25,0,744.09499)"><path
       d="m 0,452.61657 841.89,0 0,141.73228 -841.89,0 0,-141.73228 z"
       style="fill:#008fcc;fill-opacity:1;fill-rule:nonzero;stroke:none"
       id="path4031"
       inkscape:connector-curvature="0" /><path
       d="m 0.332,0 841.558,0 0,99.212598 -841.558,0 L 0.332,0 z"
       style="fill:#008ecb;fill-opacity:1;fill-rule:nonzero;stroke:none"
       id="path4047"
       inkscape:connector-curvature="0" /><g
       id="g4049"
       transform="translate(-0.37323047,20.8)"><g
         id="g4051"
         clip-path="url(#clipPath4053)"><g
           id="g4057"
           transform="translate(444.4277,46.5723)"><path
             d="m 0,0 c 0,1.445 -1.14,2.313 -2.891,2.313 l -3.618,0 0,-4.858 3.675,0 c 1.895,0 2.834,1.1 2.834,2.465 L 0,0 z m -0.002,-11.019 -3.612,5.238 -2.895,0 0,-5.238 -3.617,0 0,16.652 7.521,0 c 4.044,0 6.359,-2.164 6.359,-5.571 L 3.754,0 c 0,-2.602 -1.443,-4.336 -3.502,-5.203 l 4.074,-5.816 -4.328,0 z"
             style="fill:#ffffff;fill-opacity:1;fill-rule:nonzero;stroke:none"
             id="path4059"
             inkscape:connector-curvature="0" /></g><g
           id="g4061"
           transform="translate(450.2686,35.5537)"><path
             d="m 0,0 0,16.651 12.655,0 0,-3.32 -8.963,0 0,-3.379 7.813,0 0,-3.269 -7.813,0 0,-3.469 9.076,0 L 12.768,0 0,0 z"
             style="fill:#ffffff;fill-opacity:1;fill-rule:nonzero;stroke:none"
             id="path4063"
             inkscape:connector-curvature="0" /></g><g
           id="g4065"
           transform="translate(473.6006,42.2363)"><path
             d="m 0,0 0,-6.683 -3.739,0 0,6.496 -6.365,10.156 4.261,0 3.897,-6.789 4.083,6.789 4.237,0 L 0,0 z"
             style="fill:#ffffff;fill-opacity:1;fill-rule:nonzero;stroke:none"
             id="path4067"
             inkscape:connector-curvature="0" /></g><g
           id="g4069"
           transform="translate(491.8301,35.5537)"><path
             d="m 0,0 -5.203,6.972 -1.928,-2.023 0,-4.949 -3.574,0 0,16.651 3.574,0 0,-7.367 6.838,7.367 4.342,0 L -2.609,9.573 4.369,0 0,0 z"
             style="fill:#ffffff;fill-opacity:1;fill-rule:nonzero;stroke:none"
             id="path4071"
             inkscape:connector-curvature="0" /></g><g
           id="g4073"
           transform="translate(501.0801,35.2988)"><path
             d="m 0,0 c -2.604,0 -4.338,1.156 -5.494,2.445 l 2.312,2.542 c 0.983,-0.94 2.018,-1.558 3.18,-1.558 1.326,0 2.176,0.781 2.176,2.641 l 0,10.836 3.807,0 0,-10.869 C 5.981,1.95 3.471,0 0,0"
             style="fill:#ffffff;fill-opacity:1;fill-rule:nonzero;stroke:none"
             id="path4075"
             inkscape:connector-curvature="0" /></g><g
           id="g4077"
           transform="translate(516.3984,47.9707)"><path
             d="m 0,0 -2.313,-5.445 4.548,0 L 0,0 z m 4.989,-12.417 -1.52,3.738 -6.956,0 -1.683,-3.738 -3.735,0 7.171,16.8 3.468,0 7.229,-16.8 -3.974,0 z"
             style="fill:#ffffff;fill-opacity:1;fill-rule:nonzero;stroke:none"
             id="path4079"
             inkscape:connector-curvature="0" /></g><g
           id="g4081"
           transform="translate(532.8809,35.2988)"><path
             d="m 0,0 -3.194,0 -6.929,16.906 4.053,0 4.455,-11.703 4.439,11.703 3.821,0 L 0,0 z"
             style="fill:#ffffff;fill-opacity:1;fill-rule:nonzero;stroke:none"
             id="path4083"
             inkscape:connector-curvature="0" /></g><g
           id="g4085"
           transform="translate(541.5527,53.5098)"><path
             d="M 0,0 2.594,4.336 5.783,2.891 2.627,0 0,0 z m -0.302,-1.305 3.562,0 0,-16.651 -3.562,0 0,16.651 z"
             style="fill:#ffffff;fill-opacity:1;fill-rule:nonzero;stroke:none"
             id="path4087"
             inkscape:connector-curvature="0" /></g><g
           id="g4089"
           transform="translate(558.5996,35.5537)"><path
             d="m 0,0 -5.203,6.972 -1.879,-2.023 0,-4.949 -3.606,0 0,16.651 3.606,0 0,-7.367 6.805,7.367 4.336,0 L -2.592,9.573 4.419,0 0,0 z"
             style="fill:#ffffff;fill-opacity:1;fill-rule:nonzero;stroke:none"
             id="path4091"
             inkscape:connector-curvature="0" /></g><g
           id="g4093"
           transform="translate(570.7422,46.8613)"><path
             d="m 0,0 -2.588,2.035 c 1.731,2.301 3.395,3.46 6.356,3.46 3.468,0 5.781,-2.026 5.781,-5.155 0,-2.653 -1.457,-4.098 -4.371,-6.41 l -2.865,-2.064 7.317,0 0,-3.174 -12.282,0 0,2.925 5.543,4.485 c 2.033,1.695 2.888,2.678 2.888,3.957 0,1.386 -0.885,2.254 -2.31,2.254 C 2.285,2.313 1.369,1.537 0,0"
             style="fill:#ffffff;fill-opacity:1;fill-rule:nonzero;stroke:none"
             id="path4095"
             inkscape:connector-curvature="0" /></g><g
           id="g4097"
           transform="translate(589.2402,49.1738)"><path
             d="m 0,0 c -2.307,0 -3.65,-2.313 -3.65,-5.228 0,-3.155 1.485,-5.467 3.65,-5.467 2.313,0 3.771,2.312 3.771,5.332 C 3.771,-2.313 2.31,0 0,0 m 0,-13.904 c -4.427,0 -7.453,3.741 -7.453,8.541 0,4.802 3.127,8.678 7.453,8.678 4.6,0 7.516,-3.739 7.516,-8.543 0,-4.889 -3.05,-8.676 -7.516,-8.676"
             style="fill:#ffffff;fill-opacity:1;fill-rule:nonzero;stroke:none"
             id="path4099"
             inkscape:connector-curvature="0" /></g><g
           id="g4101"
           transform="translate(601.9648,52.3535)"><path
             d="m 0,0 2.609,0 0,-16.8 -3.672,0 0,13.042 -2.96,-0.694 -0.608,3.007 L 0,0 z"
             style="fill:#ffffff;fill-opacity:1;fill-rule:nonzero;stroke:none"
             id="path4103"
             inkscape:connector-curvature="0" /></g><g
           id="g4105"
           transform="translate(609.4766,46.8613)"><path
             d="m 0,0 -2.588,2.035 c 1.733,2.301 3.323,3.46 6.359,3.46 3.469,0 5.782,-2.026 5.782,-5.155 0,-2.653 -1.459,-4.098 -4.445,-6.41 l -2.795,-2.064 7.242,0 0,-3.174 -12.274,0 0,2.925 5.61,4.485 c 2.037,1.695 2.89,2.678 2.89,3.957 0,1.386 -0.953,2.254 -2.312,2.254 C 2.217,2.313 1.302,1.537 0,0"
             style="fill:#ffffff;fill-opacity:1;fill-rule:nonzero;stroke:none"
             id="path4107"
             inkscape:connector-curvature="0" /></g><g
           id="g4109"
           transform="translate(398.7588,42.5254)"><path
             d="M 0,0 4.403,0 2.295,5.401 0,0 z"
             style="fill:#ffffff;fill-opacity:1;fill-rule:nonzero;stroke:none"
             id="path4111"
             inkscape:connector-curvature="0" /></g><g
           id="g4113"
           transform="translate(383.8237,48.8848)"><path
             d="m 0,0 -2.766,0 0,-10.117 2.766,0 c 3.073,0 5.102,2.023 5.102,4.949 l 0,0.138 C 5.102,-2.023 3.073,0 0,0"
             style="fill:#ffffff;fill-opacity:1;fill-rule:nonzero;stroke:none"
             id="path4115"
             inkscape:connector-curvature="0" /></g><g
           id="g4117"
           transform="translate(333.2266,42.5254)"><path
             d="M 0,0 4.511,0 2.225,5.401 0,0 z"
             style="fill:#ffffff;fill-opacity:1;fill-rule:nonzero;stroke:none"
             id="path4119"
             inkscape:connector-curvature="0" /></g><g
           id="g4121"
           transform="translate(416.9688,42.2363)"><path
             d="m 0,0 0,-6.686 -3.617,0 0,6.476 -6.486,10.125 4.32,0 4.045,-6.735 4.047,6.735 4.122,0 L 0,0 z m -10.982,-6.686 -1.445,3.733 -7.077,0 -1.589,-3.733 -3.757,0 7.218,16.803 3.459,0 7.108,-16.803 -3.917,0 z m -22.163,0 -6.459,0 0,16.601 6.459,0 c 5.323,0 8.866,-3.556 8.866,-8.181 l 0,-0.116 c 0,-4.798 -3.543,-8.304 -8.866,-8.304 m -11.95,0 -5.2,6.975 -1.891,-2.023 0,-4.952 -3.622,0 0,16.601 3.622,0 0,-7.313 6.802,7.313 4.352,0 -6.678,-7.024 7,-9.577 -4.385,0 z m -19.367,-0.275 c -4.915,0 -8.597,3.781 -8.597,8.441 l 0,0.138 c 0,4.741 3.664,8.58 8.778,8.58 3.099,0 5.018,-0.948 6.505,-2.534 l -2.334,-2.75 c -1.191,1.156 -2.599,2.024 -4.231,2.024 -2.759,0 -4.783,-2.374 -4.783,-5.204 l 0,-0.116 c 0,-2.821 1.957,-5.341 4.783,-5.341 1.902,0 3.06,0.832 4.451,1.989 l 2.343,-2.313 c -1.727,-1.791 -3.725,-2.914 -6.915,-2.914 m -11.931,0.275 -1.614,3.733 -6.996,0 -1.51,-3.733 -3.742,0 7.078,16.803 3.398,0 7.216,-16.803 -3.83,0 z m -15.268,0 -3.725,0 0,6.686 -6.71,0 0,-6.686 -3.712,0 0,16.601 3.712,0 0,-6.546 6.71,0 0,6.546 3.725,0 0,-16.601 z M 9.187,15.32 l -119.359,0 c -2.026,0 -3.711,-1.734 -3.711,-3.757 l 0,-20.235 c 0,-2.024 1.685,-3.544 3.711,-3.544 l 119.359,0 c 2.037,0 3.542,1.52 3.542,3.544 l 0,20.235 c 0,2.023 -1.505,3.757 -3.542,3.757"
             style="fill:#ffffff;fill-opacity:1;fill-rule:nonzero;stroke:none"
             id="path4123"
             inkscape:connector-curvature="0" /></g><g
           id="g4125"
           transform="translate(246.7168,42.5879)"><path
             d="m 0,0 0,9.563 3.693,0 0,-9.336 c 0,-2.891 1.365,-4.231 3.578,-4.231 2.252,0 3.642,1.34 3.642,3.942 l 0,9.625 3.643,0 0,-9.336 c 0,-5.204 -2.795,-7.516 -7.328,-7.516 C 2.782,-7.289 0,-4.92 0,0"
             style="fill:#ffffff;fill-opacity:1;fill-rule:nonzero;stroke:none"
             id="path4127"
             inkscape:connector-curvature="0" /></g><g
           id="g4129"
           transform="translate(262.668,37.9004)"><path
             d="M 0,0 2.201,2.602 C 3.692,1.445 5.28,0.578 7.172,0.578 c 1.493,0 2.399,0.578 2.399,1.581 l 0,0.129 c 0,0.892 -0.562,1.35 -3.332,2.048 -3.39,0.867 -5.512,1.734 -5.512,5.203 0,2.891 2.391,4.914 5.814,4.914 2.412,0 4.506,-0.629 6.18,-2.023 L 10.859,9.544 c -1.469,1.151 -2.929,1.729 -4.337,1.729 -1.433,0 -2.2,-0.578 -2.2,-1.445 0,-1.156 0.756,-1.445 3.647,-2.312 3.358,-0.868 5.263,-2.024 5.263,-4.914 0,-3.469 -2.54,-5.204 -6.117,-5.204 C 4.563,-2.602 2.01,-1.734 0,0"
             style="fill:#ffffff;fill-opacity:1;fill-rule:nonzero;stroke:none"
             id="path4131"
             inkscape:connector-curvature="0" /></g><path
           d="m 278.118,52.151 3.616,0 0,-16.601 -3.616,0 0,16.601 z"
           style="fill:#ffffff;fill-opacity:1;fill-rule:nonzero;stroke:none"
           id="path4133"
           inkscape:connector-curvature="0" /><g
           id="g4135"
           transform="translate(283.9932,43.7168)"><path
             d="m 0,0 0,0.138 c 0,4.741 3.567,8.58 8.699,8.58 3.159,0 5.097,-0.948 6.616,-2.534 L 12.979,3.434 C 11.652,4.59 10.375,5.457 8.678,5.457 5.851,5.457 3.823,3.084 3.823,0.254 l 0,-0.116 c 0,-2.822 1.987,-5.341 4.855,-5.341 1.963,0 3.122,0.832 4.382,1.988 l 2.334,-2.312 C 13.687,-7.318 11.816,-8.441 8.612,-8.441 3.695,-8.441 0,-4.66 0,0"
             style="fill:#ffffff;fill-opacity:1;fill-rule:nonzero;stroke:none"
             id="path4137"
             inkscape:connector-curvature="0" /></g><g
           id="g4139"
           transform="translate(240.2339,52.1514)"><path
             d="M 0,0 -4.439,-7.024 -8.816,0 l -3.955,0 0,-14.54 -0.122,0 c -1.113,0 -2.013,-0.289 -2.67,-0.867 -0.734,-0.679 -1.066,-1.446 -1.066,-2.457 0,-0.982 0.287,-1.591 0.86,-2.169 0.579,-0.578 1.374,-0.866 2.343,-0.866 0.84,0 1.63,0.26 2.312,0.578 0.746,0.288 1.192,0.866 1.486,1.445 0.264,0.578 0.433,1.24 0.453,2.275 l 0.017,0 0,10.733 4.643,-6.938 0.076,0 4.76,6.972 0,-8.706 -0.117,0 c -1.07,0 -2.013,-0.289 -2.695,-0.867 -0.65,-0.679 -1.018,-1.446 -1.018,-2.457 0,-0.982 0.284,-1.591 0.855,-2.169 0.572,-0.578 1.349,-0.866 2.38,-0.866 0.802,0 1.563,0.26 2.311,0.578 0.673,0.288 1.193,0.866 1.484,1.445 0.272,0.578 0.374,1.24 0.397,2.275 l 0.005,0 L 3.923,0 0,0 z"
             style="fill:#ffffff;fill-opacity:1;fill-rule:nonzero;stroke:none"
             id="path4141"
             inkscape:connector-curvature="0" /></g></g></g><g
       id="g4450"
       transform="translate(16,-20.8)"><text
         transform="scale(1,-1)"
         sodipodi:linespacing="125%"
         id="text4423"
         y="-532.28625"
         x="27.924641"
         style="font-size:56px;font-style:normal;font-variant:normal;font-weight:normal;font-stretch:normal;text-align:start;line-height:125%;letter-spacing:0px;word-spacing:0px;writing-mode:lr-tb;text-anchor:start;fill:#000000;fill-opacity:1;stroke:none;font-family:PF Din Text Comp Pro Medium;-inkscape-font-specification:'PF Din Text Comp Pro Medium,'"
         xml:space="preserve"><tspan
           style="font-size:56px;font-style:normal;font-variant:normal;font-weight:normal;font-stretch:normal;text-align:start;line-height:125%;writing-mode:lr-tb;text-anchor:start;fill:#ffffff;fill-opacity:1;font-family:PF Din Text Comp Pro Medium;-inkscape-font-specification:'PF Din Text Comp Pro Medium,'"
           y="-532.28625"
           x="27.924641"
           id="tspan4425"
           sodipodi:role="line">THANK YOU</tspan></text>
<text
         transform="scale(1,-1)"
         sodipodi:linespacing="125%"
         id="text4423-9"
         y="-494.36627"
         x="26.137085"
         style="font-size:36px;font-style:oblique;font-variant:normal;font-weight:normal;font-stretch:normal;text-align:start;line-height:125%;letter-spacing:0px;word-spacing:0px;writing-mode:lr-tb;text-anchor:start;fill:#ffffff;fill-opacity:1;stroke:none;font-family:PF Din Text Comp Pro;-inkscape-font-specification:PF Din Text Comp Pro Oblique"
         xml:space="preserve"><tspan
           id="tspan4448"
           sodipodi:role="line"
           x="26.137085"
           y="-494.36627">FOR SPONSORING THE BEER</tspan></text>
</g><g
       id="g5004"
       transform="translate(0,24)"><g
         transform="translate(490.49257,304.46259)"
         id="g4578"><path
           inkscape:connector-curvature="0"
           id="path4580"
           style="fill:#38acdd;fill-opacity:1;fill-rule:nonzero;stroke:none"
           d="M 0,0 C -0.004,23.875 -19.369,43.238 -43.294,43.238 -67.156,43.238 -86.516,23.875 -86.516,0 l 17.287,0 c 0,14.339 11.62,25.939 25.935,25.939 14.339,0 25.989,-11.6 25.995,-25.939 L 0,0" /></g><g
         transform="translate(516.45157,304.45579)"
         id="g4582"><path
           inkscape:connector-curvature="0"
           id="path4584"
           style="fill:#777d82;fill-opacity:1;fill-rule:nonzero;stroke:none"
           d="m 0,0 c -0.004,38.221 -30.984,69.235 -69.253,69.235 -38.212,0 -69.216,-31.014 -69.216,-69.236 0,-38.223 31.004,-69.196 69.216,-69.196 l 0,17.301 c -28.649,0 -51.885,23.21 -51.885,51.895 0,28.685 23.236,51.897 51.885,51.897 28.69,0 51.944,-23.212 51.944,-51.896 L 0,0" /></g><g
         transform="translate(653.68207,171.90499)"
         id="g4586"><path
           inkscape:connector-curvature="0"
           id="path4588"
           style="fill:#38acdd;fill-opacity:1;fill-rule:nonzero;stroke:none"
           d="m 0,0 0,35.982 17.609,0 0,7.852 -17.609,0 0,15.282 -8.582,-3.261 0,-58.307 c 0,-13.448 8.582,-16.277 15.119,-16.277 4.311,0 8.473,0.747 11.592,2.233 l -0.375,7.951 C 15.11,-10.031 11.887,-10.923 8.887,-10.923 3.52,-10.923 0,-9.14 0,0" /></g><g
         transform="translate(518.06287,153.17649)"
         id="g4590"><path
           inkscape:connector-curvature="0"
           id="path4592"
           style="fill:#38acdd;fill-opacity:1;fill-rule:nonzero;stroke:none"
           d="m 0,0 8.623,0 0,38.708 c 0,15.093 -10.693,24.061 -26.186,24.061 -16.843,0 -26.095,-10.743 -26.095,-23.803 l 0,-38.966 8.57,0 0,35.509 c 0,18.672 15.9,19.102 17.748,19.102 C -4.57,54.611 0,47.729 0,35.851 L 0,0" /></g><g
         transform="translate(638.18597,205.63149)"
         id="g4594"><path
           inkscape:connector-curvature="0"
           id="path4596"
           style="fill:#38acdd;fill-opacity:1;fill-rule:nonzero;stroke:none"
           d="m 0,0 c -3.965,8.083 -12.012,11.145 -20.561,11.145 -11.66,0 -22.886,-5.832 -22.886,-18.629 0,-11.751 11.641,-15.195 15.867,-16.243 l 8.408,-1.948 c 6.486,-1.642 11.751,-3.74 11.751,-9.952 0,-7.111 -7.36,-10.255 -14.519,-10.255 -7.26,0 -12.631,3.668 -16.201,9.206 l -7.55,-5.163 c 5.836,-8.682 14.416,-11.976 23.751,-11.976 12.024,0 24.016,5.539 24.016,19.01 0,8.684 -6.453,14.895 -15.029,16.909 l -8.827,2.103 c -8.046,1.87 -12.161,3.966 -12.161,9.738 0,6.652 6.736,9.273 12.839,9.273 6.321,0 10.663,-3.293 13.334,-8.31 L 0,0" /></g><g
         transform="translate(539.40077,190.50849)"
         id="g4598"><path
           inkscape:connector-curvature="0"
           id="path4600"
           style="fill:#38acdd;fill-opacity:1;fill-rule:nonzero;stroke:none"
           d="M 0,0 C 0,3.153 4.92,19.87 22.224,19.87 34.037,19.87 43.41,10.871 43.41,0 L 0,0 m 0,-7.193 51.357,0 0,5.619 c 0,14.16 -9.953,28.569 -28.714,28.569 -17.887,0 -30.59,-13.795 -30.59,-32.016 0,-18.949 12.275,-32.284 30.865,-32.311 l 0,7.136 C 4.593,-30.042 0,-13.774 0,-7.193" /></g><g
         transform="translate(334.46227,206.17059)"
         id="g4602"><path
           inkscape:connector-curvature="0"
           id="path4604"
           style="fill:#777d82;fill-opacity:1;fill-rule:nonzero;stroke:none"
           d="m 0,0 c -6.077,6.71 -14.923,9.631 -22.98,9.631 -19.161,0 -34.48,-13.329 -34.48,-33.315 0,-19.923 15.319,-33.252 34.48,-33.252 5.546,0 16.371,2.396 22.845,8.836 l -10.558,11.381 c -2.916,-3.819 -7.411,-5.99 -12.287,-5.99 -11.633,0 -18.633,9.136 -18.633,19.025 0,9.952 7,19.082 18.633,19.082 4.222,0 8.319,-2.541 12.022,-6.36 L 0,0" /></g><g
         transform="translate(354.53847,231.17649)"
         id="g4606"><path
           inkscape:connector-curvature="0"
           id="path4608"
           style="fill:#777d82;fill-opacity:1;fill-rule:nonzero;stroke:none"
           d="m 0,0 -15.73,-3.252 0,-74.748 15.73,0 0,34.301 c 0,8.415 4.062,16.018 14.419,16.018 10.997,0 11.515,-11.553 11.515,-18.485 l 0,-31.834 15.73,0 0,39.661 c 0,12.895 -6.029,24.82 -22.919,24.82 -9.711,0 -15.991,-5.142 -18.484,-10.36 L 0,-23.879 0,0" /></g><g
         transform="translate(454.03557,182.80439)"
         id="g4610"><path
           inkscape:connector-curvature="0"
           id="path4612"
           style="fill:#777d82;fill-opacity:1;fill-rule:nonzero;stroke:none"
           d="m 0,0 c 0,-9.769 -6.934,-18.86 -18.457,-18.86 -11.549,0 -18.468,9.091 -18.468,18.86 0,9.839 6.919,18.932 18.468,18.932 C -6.934,18.932 0,9.839 0,0 m 15.729,0 c 0,19.827 -15.204,33.093 -34.186,33.093 -19,0 -34.204,-13.266 -34.204,-33.093 0,-19.754 15.204,-33.023 34.204,-33.023 18.982,0 34.186,13.269 34.186,33.023" /></g><g
         transform="translate(256.18207,188.80929)"
         id="g4614"><path
           inkscape:connector-curvature="0"
           id="path4616"
           style="fill:#777d82;fill-opacity:1;fill-rule:nonzero;stroke:none"
           d="m 0,0 -32.574,0 c 1.191,9.146 7.014,15.07 16.416,15.07 C -6.223,15.07 -0.142,9.223 0,0 m 15.886,-11.921 0,4.349 c 0,22.117 -12.053,34.562 -29.792,34.562 -19.199,0 -34.559,-13.345 -34.559,-33.363 0,-19.362 14.444,-32.373 32.798,-33.201 l 0,12.598 c -8.786,0.046 -15.859,5.72 -16.907,15.055 l 48.46,0 z" /></g><g
         transform="translate(176.96917,165.88739)"
         id="g4618"><path
           inkscape:connector-curvature="0"
           id="path4620"
           style="fill:#777d82;fill-opacity:1;fill-rule:nonzero;stroke:none"
           d="m 0,0 4.083,0 0,-4.418 11.001,0 c 1.031,0 1.716,0.177 2.066,0.521 0.339,0.345 0.513,1.035 0.513,2.068 0,0.346 -0.013,0.681 -0.042,0.938 -0.023,0.326 -0.066,0.647 -0.132,0.891 l 4.734,0 c 0.085,-0.452 0.145,-1.075 0.173,-1.717 0.026,-0.596 0.045,-1.221 0.045,-1.809 0,-0.987 -0.071,-1.868 -0.202,-2.721 -0.122,-0.784 -0.378,-1.575 -0.747,-2.189 -0.377,-0.643 -0.902,-1.157 -1.588,-1.589 -0.691,-0.361 -1.595,-0.533 -2.708,-0.533 l -13.113,0 0,-3.679 -4.083,0 0,3.679 -5.081,0 -1.585,6.14 6.666,0 L 0,0 z" /></g><g
         transform="translate(170.07897,174.49779)"
         id="g4622"><path
           inkscape:connector-curvature="0"
           id="path4624"
           style="fill:#777d82;fill-opacity:1;fill-rule:nonzero;stroke:none"
           d="m 0,0 9.982,0 0,0.146 C 8.691,0.962 7.755,1.895 7.168,3.102 6.577,4.305 6.288,5.499 6.288,6.597 c 0,1.673 0.22,3.03 0.67,4.077 0.441,1.039 1.053,1.878 1.846,2.447 0.784,0.639 1.743,1.029 2.873,1.314 1.135,0.215 2.394,0.36 3.766,0.36 l 13.67,0 0,-6.157 -12.551,0 c -1.835,0 -3.206,-0.303 -4.11,-0.86 C 11.553,7.229 11.1,6.205 11.1,4.777 11.1,3.085 11.59,1.877 12.586,1.156 13.573,0.361 15.2,0 17.461,0 l 11.652,0 0,-6.083 -27.532,0 L 0,0 z" /></g><g
         transform="translate(182.17427,205.20869)"
         id="g4626"><path
           inkscape:connector-curvature="0"
           id="path4628"
           style="fill:#777d82;fill-opacity:1;fill-rule:nonzero;stroke:none"
           d="m 0,0 c -0.81,-0.714 -1.208,-1.867 -1.208,-3.387 0,-0.927 0.161,-1.757 0.496,-2.424 0.325,-0.59 0.732,-1.107 1.223,-1.521 0.493,-0.397 1,-0.629 1.55,-0.794 0.54,-0.162 1.029,-0.289 1.46,-0.306 l 0,9.896 C 1.976,1.228 0.795,0.713 0,0 m 11.684,-6.906 c 0.891,0.893 1.333,2.24 1.333,3.96 0,1.225 -0.306,2.276 -0.923,3.154 -0.615,0.878 -1.27,1.42 -1.957,1.602 l 0,5.44 c 2.667,-0.864 4.571,-2.208 5.717,-3.963 1.148,-1.83 1.722,-3.947 1.722,-6.427 0,-1.81 -0.278,-3.38 -0.838,-4.775 -0.562,-1.394 -1.353,-2.592 -2.387,-3.541 -1.034,-0.98 -2.264,-1.76 -3.695,-2.304 -1.439,-0.527 -3.01,-0.756 -4.726,-0.756 -1.668,0 -3.215,0.242 -4.642,0.767 -1.436,0.606 -2.677,1.344 -3.72,2.362 -1.049,1.018 -1.878,2.218 -2.476,3.61 -0.605,1.384 -0.9,2.931 -0.9,4.637 0,1.822 0.362,3.505 1.096,4.902 0.731,1.393 1.708,2.571 2.944,3.456 1.228,0.886 2.634,1.556 4.213,1.936 1.574,0.448 3.225,0.529 4.945,0.464 l 0,-16.05 c 1.978,0.123 3.405,0.56 4.294,1.526" /></g></g><text
       xml:space="preserve"
       style="font-size:40px;font-style:normal;font-variant:normal;font-weight:normal;font-stretch:normal;line-height:125%;letter-spacing:0px;word-spacing:0px;fill:#000000;fill-opacity:1;stroke:none;font-family:PF Din Text Comp Pro;-inkscape-font-specification:PF Din Text Comp Pro"
       x="247.62524"
       y="384.59842"
       id="text4931"
       sodipodi:linespacing="125%"
       transform="matrix(0.8,0,0,-0.8,0,595.27599)"><tspan
         sodipodi:role="line"
         id="tspan4933"></tspan></text>
</g></svg>