<?xml version="1.0" encoding="UTF-8" standalone="no"?>
<!-- Created with Inkscape (http://www.inkscape.org/) -->

<svg
   xmlns:dc="http://purl.org/dc/elements/1.1/"
   xmlns:cc="http://creativecommons.org/ns#"
   xmlns:rdf="http://www.w3.org/1999/02/22-rdf-syntax-ns#"
   xmlns:svg="http://www.w3.org/2000/svg"
   xmlns="http://www.w3.org/2000/svg"
   xmlns:sodipodi="http://sodipodi.sourceforge.net/DTD/sodipodi-0.dtd"
   xmlns:inkscape="http://www.inkscape.org/namespaces/inkscape"
   id="svg4021"
   version="1.1"
   inkscape:version="0.48.2 r9819"
   width="1052.3625"
   height="744.09497"
   xml:space="preserve"
   sodipodi:docname="beer.svg"><metadata
     id="metadata4027"><rdf:RDF><cc:Work
         rdf:about=""><dc:format>image/svg+xml</dc:format><dc:type
           rdf:resource="http://purl.org/dc/dcmitype/StillImage" /><dc:title></dc:title></cc:Work></rdf:RDF></metadata><defs
     id="defs4025"><clipPath
       clipPathUnits="userSpaceOnUse"
       id="clipPath4037"><path
         d="m 0,595.276 841.89,0 L 841.89,0 0,0 0,595.276 z"
         id="path4039"
         inkscape:connector-curvature="0" /></clipPath><clipPath
       clipPathUnits="userSpaceOnUse"
       id="clipPath4053"><path
         d="m 0,595.276 841.89,0 L 841.89,0 0,0 0,595.276 z"
         id="path4055"
         inkscape:connector-curvature="0" /></clipPath><clipPath
       clipPathUnits="userSpaceOnUse"
       id="clipPath4147"><path
         d="m 22.595,0 790.872,0 0,594.275 -790.872,0 0,-594.275 z"
         id="path4149"
         inkscape:connector-curvature="0" /></clipPath><clipPath
       clipPathUnits="userSpaceOnUse"
       id="clipPath4488"><path
         inkscape:connector-curvature="0"
         d="m 0,595.276 841.89,0 L 841.89,0 0,0 0,595.276 z"
         id="path4490" /></clipPath></defs><sodipodi:namedview
     pagecolor="#ffffff"
     bordercolor="#666666"
     borderopacity="1"
     objecttolerance="10"
     gridtolerance="10"
     guidetolerance="10"
     inkscape:pageopacity="0"
     inkscape:pageshadow="2"
     inkscape:window-width="1920"
     inkscape:window-height="1138"
     id="namedview4023"
     showgrid="false"
     units="mm"
     inkscape:zoom="0.79555703"
     inkscape:cx="503.04131"
     inkscape:cy="479.45296"
     inkscape:window-x="1592"
     inkscape:window-y="-8"
     inkscape:window-maximized="1"
     inkscape:current-layer="g4029" /><g
     id="g4029"
     inkscape:groupmode="layer"
     inkscape:label="bags"
     transform="matrix(1.25,0,0,-1.25,0,744.09499)"><path
       d="m 0,452.61657 841.89,0 0,141.73228 -841.89,0 0,-141.73228 z"
       style="fill:#008fcc;fill-opacity:1;fill-rule:nonzero;stroke:none"
       id="path4031"
       inkscape:connector-curvature="0" /><path
       d="m 0.332,0 841.558,0 0,99.212598 -841.558,0 L 0.332,0 z"
       style="fill:#008ecb;fill-opacity:1;fill-rule:nonzero;stroke:none"
       id="path4047"
       inkscape:connector-curvature="0" /><g
       id="g4049"
       transform="translate(-0.37323047,20.8)"><g
         id="g4051"
         clip-path="url(#clipPath4053)"><g
           id="g4057"
           transform="translate(444.4277,46.5723)"><path
             d="m 0,0 c 0,1.445 -1.14,2.313 -2.891,2.313 l -3.618,0 0,-4.858 3.675,0 c 1.895,0 2.834,1.1 2.834,2.465 L 0,0 z m -0.002,-11.019 -3.612,5.238 -2.895,0 0,-5.238 -3.617,0 0,16.652 7.521,0 c 4.044,0 6.359,-2.164 6.359,-5.571 L 3.754,0 c 0,-2.602 -1.443,-4.336 -3.502,-5.203 l 4.074,-5.816 -4.328,0 z"
             style="fill:#ffffff;fill-opacity:1;fill-rule:nonzero;stroke:none"
             id="path4059"
             inkscape:connector-curvature="0" /></g><g
           id="g4061"
           transform="translate(450.2686,35.5537)"><path
             d="m 0,0 0,16.651 12.655,0 0,-3.32 -8.963,0 0,-3.379 7.813,0 0,-3.269 -7.813,0 0,-3.469 9.076,0 L 12.768,0 0,0 z"
             style="fill:#ffffff;fill-opacity:1;fill-rule:nonzero;stroke:none"
             id="path4063"
             inkscape:connector-curvature="0" /></g><g
           id="g4065"
           transform="translate(473.6006,42.2363)"><path
             d="m 0,0 0,-6.683 -3.739,0 0,6.496 -6.365,10.156 4.261,0 3.897,-6.789 4.083,6.789 4.237,0 L 0,0 z"
             style="fill:#ffffff;fill-opacity:1;fill-rule:nonzero;stroke:none"
             id="path4067"
             inkscape:connector-curvature="0" /></g><g
           id="g4069"
           transform="translate(491.8301,35.5537)"><path
             d="m 0,0 -5.203,6.972 -1.928,-2.023 0,-4.949 -3.574,0 0,16.651 3.574,0 0,-7.367 6.838,7.367 4.342,0 L -2.609,9.573 4.369,0 0,0 z"
             style="fill:#ffffff;fill-opacity:1;fill-rule:nonzero;stroke:none"
             id="path4071"
             inkscape:connector-curvature="0" /></g><g
           id="g4073"
           transform="translate(501.0801,35.2988)"><path
             d="m 0,0 c -2.604,0 -4.338,1.156 -5.494,2.445 l 2.312,2.542 c 0.983,-0.94 2.018,-1.558 3.18,-1.558 1.326,0 2.176,0.781 2.176,2.641 l 0,10.836 3.807,0 0,-10.869 C 5.981,1.95 3.471,0 0,0"
             style="fill:#ffffff;fill-opacity:1;fill-rule:nonzero;stroke:none"
             id="path4075"
             inkscape:connector-curvature="0" /></g><g
           id="g4077"
           transform="translate(516.3984,47.9707)"><path
             d="m 0,0 -2.313,-5.445 4.548,0 L 0,0 z m 4.989,-12.417 -1.52,3.738 -6.956,0 -1.683,-3.738 -3.735,0 7.171,16.8 3.468,0 7.229,-16.8 -3.974,0 z"
             style="fill:#ffffff;fill-opacity:1;fill-rule:nonzero;stroke:none"
             id="path4079"
             inkscape:connector-curvature="0" /></g><g
           id="g4081"
           transform="translate(532.8809,35.2988)"><path
             d="m 0,0 -3.194,0 -6.929,16.906 4.053,0 4.455,-11.703 4.439,11.703 3.821,0 L 0,0 z"
             style="fill:#ffffff;fill-opacity:1;fill-rule:nonzero;stroke:none"
             id="path4083"
             inkscape:connector-curvature="0" /></g><g
           id="g4085"
           transform="translate(541.5527,53.5098)"><path
             d="M 0,0 2.594,4.336 5.783,2.891 2.627,0 0,0 z m -0.302,-1.305 3.562,0 0,-16.651 -3.562,0 0,16.651 z"
             style="fill:#ffffff;fill-opacity:1;fill-rule:nonzero;stroke:none"
             id="path4087"
             inkscape:connector-curvature="0" /></g><g
           id="g4089"
           transform="translate(558.5996,35.5537)"><path
             d="m 0,0 -5.203,6.972 -1.879,-2.023 0,-4.949 -3.606,0 0,16.651 3.606,0 0,-7.367 6.805,7.367 4.336,0 L -2.592,9.573 4.419,0 0,0 z"
             style="fill:#ffffff;fill-opacity:1;fill-rule:nonzero;stroke:none"
             id="path4091"
             inkscape:connector-curvature="0" /></g><g
           id="g4093"
           transform="translate(570.7422,46.8613)"><path
             d="m 0,0 -2.588,2.035 c 1.731,2.301 3.395,3.46 6.356,3.46 3.468,0 5.781,-2.026 5.781,-5.155 0,-2.653 -1.457,-4.098 -4.371,-6.41 l -2.865,-2.064 7.317,0 0,-3.174 -12.282,0 0,2.925 5.543,4.485 c 2.033,1.695 2.888,2.678 2.888,3.957 0,1.386 -0.885,2.254 -2.31,2.254 C 2.285,2.313 1.369,1.537 0,0"
             style="fill:#ffffff;fill-opacity:1;fill-rule:nonzero;stroke:none"
             id="path4095"
             inkscape:connector-curvature="0" /></g><g
           id="g4097"
           transform="translate(589.2402,49.1738)"><path
             d="m 0,0 c -2.307,0 -3.65,-2.313 -3.65,-5.228 0,-3.155 1.485,-5.467 3.65,-5.467 2.313,0 3.771,2.312 3.771,5.332 C 3.771,-2.313 2.31,0 0,0 m 0,-13.904 c -4.427,0 -7.453,3.741 -7.453,8.541 0,4.802 3.127,8.678 7.453,8.678 4.6,0 7.516,-3.739 7.516,-8.543 0,-4.889 -3.05,-8.676 -7.516,-8.676"
             style="fill:#ffffff;fill-opacity:1;fill-rule:nonzero;stroke:none"
             id="path4099"
             inkscape:connector-curvature="0" /></g><g
           id="g4101"
           transform="translate(601.9648,52.3535)"><path
             d="m 0,0 2.609,0 0,-16.8 -3.672,0 0,13.042 -2.96,-0.694 -0.608,3.007 L 0,0 z"
             style="fill:#ffffff;fill-opacity:1;fill-rule:nonzero;stroke:none"
             id="path4103"
             inkscape:connector-curvature="0" /></g><g
           id="g4105"
           transform="translate(609.4766,46.8613)"><path
             d="m 0,0 -2.588,2.035 c 1.733,2.301 3.323,3.46 6.359,3.46 3.469,0 5.782,-2.026 5.782,-5.155 0,-2.653 -1.459,-4.098 -4.445,-6.41 l -2.795,-2.064 7.242,0 0,-3.174 -12.274,0 0,2.925 5.61,4.485 c 2.037,1.695 2.89,2.678 2.89,3.957 0,1.386 -0.953,2.254 -2.312,2.254 C 2.217,2.313 1.302,1.537 0,0"
             style="fill:#ffffff;fill-opacity:1;fill-rule:nonzero;stroke:none"
             id="path4107"
             inkscape:connector-curvature="0" /></g><g
           id="g4109"
           transform="translate(398.7588,42.5254)"><path
             d="M 0,0 4.403,0 2.295,5.401 0,0 z"
             style="fill:#ffffff;fill-opacity:1;fill-rule:nonzero;stroke:none"
             id="path4111"
             inkscape:connector-curvature="0" /></g><g
           id="g4113"
           transform="translate(383.8237,48.8848)"><path
             d="m 0,0 -2.766,0 0,-10.117 2.766,0 c 3.073,0 5.102,2.023 5.102,4.949 l 0,0.138 C 5.102,-2.023 3.073,0 0,0"
             style="fill:#ffffff;fill-opacity:1;fill-rule:nonzero;stroke:none"
             id="path4115"
             inkscape:connector-curvature="0" /></g><g
           id="g4117"
           transform="translate(333.2266,42.5254)"><path
             d="M 0,0 4.511,0 2.225,5.401 0,0 z"
             style="fill:#ffffff;fill-opacity:1;fill-rule:nonzero;stroke:none"
             id="path4119"
             inkscape:connector-curvature="0" /></g><g
           id="g4121"
           transform="translate(416.9688,42.2363)"><path
             d="m 0,0 0,-6.686 -3.617,0 0,6.476 -6.486,10.125 4.32,0 4.045,-6.735 4.047,6.735 4.122,0 L 0,0 z m -10.982,-6.686 -1.445,3.733 -7.077,0 -1.589,-3.733 -3.757,0 7.218,16.803 3.459,0 7.108,-16.803 -3.917,0 z m -22.163,0 -6.459,0 0,16.601 6.459,0 c 5.323,0 8.866,-3.556 8.866,-8.181 l 0,-0.116 c 0,-4.798 -3.543,-8.304 -8.866,-8.304 m -11.95,0 -5.2,6.975 -1.891,-2.023 0,-4.952 -3.622,0 0,16.601 3.622,0 0,-7.313 6.802,7.313 4.352,0 -6.678,-7.024 7,-9.577 -4.385,0 z m -19.367,-0.275 c -4.915,0 -8.597,3.781 -8.597,8.441 l 0,0.138 c 0,4.741 3.664,8.58 8.778,8.58 3.099,0 5.018,-0.948 6.505,-2.534 l -2.334,-2.75 c -1.191,1.156 -2.599,2.024 -4.231,2.024 -2.759,0 -4.783,-2.374 -4.783,-5.204 l 0,-0.116 c 0,-2.821 1.957,-5.341 4.783,-5.341 1.902,0 3.06,0.832 4.451,1.989 l 2.343,-2.313 c -1.727,-1.791 -3.725,-2.914 -6.915,-2.914 m -11.931,0.275 -1.614,3.733 -6.996,0 -1.51,-3.733 -3.742,0 7.078,16.803 3.398,0 7.216,-16.803 -3.83,0 z m -15.268,0 -3.725,0 0,6.686 -6.71,0 0,-6.686 -3.712,0 0,16.601 3.712,0 0,-6.546 6.71,0 0,6.546 3.725,0 0,-16.601 z M 9.187,15.32 l -119.359,0 c -2.026,0 -3.711,-1.734 -3.711,-3.757 l 0,-20.235 c 0,-2.024 1.685,-3.544 3.711,-3.544 l 119.359,0 c 2.037,0 3.542,1.52 3.542,3.544 l 0,20.235 c 0,2.023 -1.505,3.757 -3.542,3.757"
             style="fill:#ffffff;fill-opacity:1;fill-rule:nonzero;stroke:none"
             id="path4123"
             inkscape:connector-curvature="0" /></g><g
           id="g4125"
           transform="translate(246.7168,42.5879)"><path
             d="m 0,0 0,9.563 3.693,0 0,-9.336 c 0,-2.891 1.365,-4.231 3.578,-4.231 2.252,0 3.642,1.34 3.642,3.942 l 0,9.625 3.643,0 0,-9.336 c 0,-5.204 -2.795,-7.516 -7.328,-7.516 C 2.782,-7.289 0,-4.92 0,0"
             style="fill:#ffffff;fill-opacity:1;fill-rule:nonzero;stroke:none"
             id="path4127"
             inkscape:connector-curvature="0" /></g><g
           id="g4129"
           transform="translate(262.668,37.9004)"><path
             d="M 0,0 2.201,2.602 C 3.692,1.445 5.28,0.578 7.172,0.578 c 1.493,0 2.399,0.578 2.399,1.581 l 0,0.129 c 0,0.892 -0.562,1.35 -3.332,2.048 -3.39,0.867 -5.512,1.734 -5.512,5.203 0,2.891 2.391,4.914 5.814,4.914 2.412,0 4.506,-0.629 6.18,-2.023 L 10.859,9.544 c -1.469,1.151 -2.929,1.729 -4.337,1.729 -1.433,0 -2.2,-0.578 -2.2,-1.445 0,-1.156 0.756,-1.445 3.647,-2.312 3.358,-0.868 5.263,-2.024 5.263,-4.914 0,-3.469 -2.54,-5.204 -6.117,-5.204 C 4.563,-2.602 2.01,-1.734 0,0"
             style="fill:#ffffff;fill-opacity:1;fill-rule:nonzero;stroke:none"
             id="path4131"
             inkscape:connector-curvature="0" /></g><path
           d="m 278.118,52.151 3.616,0 0,-16.601 -3.616,0 0,16.601 z"
           style="fill:#ffffff;fill-opacity:1;fill-rule:nonzero;stroke:none"
           id="path4133"
           inkscape:connector-curvature="0" /><g
           id="g4135"
           transform="translate(283.9932,43.7168)"><path
             d="m 0,0 0,0.138 c 0,4.741 3.567,8.58 8.699,8.58 3.159,0 5.097,-0.948 6.616,-2.534 L 12.979,3.434 C 11.652,4.59 10.375,5.457 8.678,5.457 5.851,5.457 3.823,3.084 3.823,0.254 l 0,-0.116 c 0,-2.822 1.987,-5.341 4.855,-5.341 1.963,0 3.122,0.832 4.382,1.988 l 2.334,-2.312 C 13.687,-7.318 11.816,-8.441 8.612,-8.441 3.695,-8.441 0,-4.66 0,0"
             style="fill:#ffffff;fill-opacity:1;fill-rule:nonzero;stroke:none"
             id="path4137"
             inkscape:connector-curvature="0" /></g><g
           id="g4139"
           transform="translate(240.2339,52.1514)"><path
             d="M 0,0 -4.439,-7.024 -8.816,0 l -3.955,0 0,-14.54 -0.122,0 c -1.113,0 -2.013,-0.289 -2.67,-0.867 -0.734,-0.679 -1.066,-1.446 -1.066,-2.457 0,-0.982 0.287,-1.591 0.86,-2.169 0.579,-0.578 1.374,-0.866 2.343,-0.866 0.84,0 1.63,0.26 2.312,0.578 0.746,0.288 1.192,0.866 1.486,1.445 0.264,0.578 0.433,1.24 0.453,2.275 l 0.017,0 0,10.733 4.643,-6.938 0.076,0 4.76,6.972 0,-8.706 -0.117,0 c -1.07,0 -2.013,-0.289 -2.695,-0.867 -0.65,-0.679 -1.018,-1.446 -1.018,-2.457 0,-0.982 0.284,-1.591 0.855,-2.169 0.572,-0.578 1.349,-0.866 2.38,-0.866 0.802,0 1.563,0.26 2.311,0.578 0.673,0.288 1.193,0.866 1.484,1.445 0.272,0.578 0.374,1.24 0.397,2.275 l 0.005,0 L 3.923,0 0,0 z"
             style="fill:#ffffff;fill-opacity:1;fill-rule:nonzero;stroke:none"
             id="path4141"
             inkscape:connector-curvature="0" /></g></g></g><g
       id="g4450"
       transform="translate(16,-20.8)"><text
         transform="scale(1,-1)"
         sodipodi:linespacing="125%"
         id="text4423"
         y="-532.28625"
         x="27.924641"
         style="font-size:56px;font-style:normal;font-variant:normal;font-weight:normal;font-stretch:normal;text-align:start;line-height:125%;letter-spacing:0px;word-spacing:0px;writing-mode:lr-tb;text-anchor:start;fill:#000000;fill-opacity:1;stroke:none;font-family:PF Din Text Comp Pro Medium;-inkscape-font-specification:'PF Din Text Comp Pro Medium,'"
         xml:space="preserve"><tspan
           style="font-size:56px;font-style:normal;font-variant:normal;font-weight:normal;font-stretch:normal;text-align:start;line-height:125%;writing-mode:lr-tb;text-anchor:start;fill:#ffffff;fill-opacity:1;font-family:PF Din Text Comp Pro Medium;-inkscape-font-specification:'PF Din Text Comp Pro Medium,'"
           y="-532.28625"
           x="27.924641"
           id="tspan4425"
           sodipodi:role="line">THANK YOU</tspan></text>
<text
         transform="scale(1,-1)"
         sodipodi:linespacing="125%"
         id="text4423-9"
         y="-494.36627"
         x="26.137085"
         style="font-size:36px;font-style:oblique;font-variant:normal;font-weight:normal;font-stretch:normal;text-align:start;line-height:125%;letter-spacing:0px;word-spacing:0px;writing-mode:lr-tb;text-anchor:start;fill:#ffffff;fill-opacity:1;stroke:none;font-family:PF Din Text Comp Pro;-inkscape-font-specification:PF Din Text Comp Pro Oblique"
         xml:space="preserve"><tspan
           id="tspan4448"
           sodipodi:role="line"
           x="26.137085"
           y="-494.36627">FOR SPONSORING THE COFFEE</tspan></text>
</g><text
       xml:space="preserve"
       style="font-size:40px;font-style:normal;font-variant:normal;font-weight:normal;font-stretch:normal;line-height:125%;letter-spacing:0px;word-spacing:0px;fill:#000000;fill-opacity:1;stroke:none;font-family:PF Din Text Comp Pro;-inkscape-font-specification:PF Din Text Comp Pro"
       x="247.62524"
       y="384.59842"
       id="text4931"
       sodipodi:linespacing="125%"
       transform="matrix(0.8,0,0,-0.8,0,595.27599)"><tspan
         sodipodi:role="line"
         id="tspan4933"></tspan></text>
<g
       transform="translate(-0.83848047,-12.573938)"
       id="g5401"><path
         inkscape:connector-curvature="0"
         id="path5154"
         style="fill:#e31e2d;fill-opacity:1;fill-rule:nonzero;stroke:none"
         d="m 162.413,233.611 34.245,0 0,10.369 -34.245,0 0,-10.369 z" /><path
         inkscape:connector-curvature="0"
         id="path5156"
         style="fill:#e31e2d;fill-opacity:1;fill-rule:nonzero;stroke:none"
         d="m 162.413,247.168 34.245,0 0,10.367 -34.245,0 0,-10.367 z" /><path
         inkscape:connector-curvature="0"
         id="path5158"
         style="fill:#e31e2d;fill-opacity:1;fill-rule:nonzero;stroke:none"
         d="m 162.413,260.593 34.245,0 0,10.369 -34.245,0 0,-10.369 z" /><path
         inkscape:connector-curvature="0"
         id="path5160"
         style="fill:#f29c7d;fill-opacity:1;fill-rule:nonzero;stroke:none"
         d="m 162.413,274.021 34.245,0 0,10.367 -34.245,0 0,-10.367 z" /><path
         inkscape:connector-curvature="0"
         id="path5162"
         style="fill:#f29c7d;fill-opacity:1;fill-rule:nonzero;stroke:none"
         d="m 162.413,287.576 34.245,0 0,10.368 -34.245,0 0,-10.368 z" /><path
         inkscape:connector-curvature="0"
         id="path5164"
         style="fill:#ffed00;fill-opacity:1;fill-rule:nonzero;stroke:none"
         d="m 200.787,233.611 34.265,0 0,10.369 -34.265,0 0,-10.369 z" /><path
         inkscape:connector-curvature="0"
         id="path5166"
         style="fill:#ffed00;fill-opacity:1;fill-rule:nonzero;stroke:none"
         d="m 200.787,247.168 34.265,0 0,10.367 -34.265,0 0,-10.367 z" /><path
         inkscape:connector-curvature="0"
         id="path5168"
         style="fill:#ffed00;fill-opacity:1;fill-rule:nonzero;stroke:none"
         d="m 200.787,260.593 34.265,0 0,10.369 -34.265,0 0,-10.369 z" /><path
         inkscape:connector-curvature="0"
         id="path5170"
         style="fill:#e3007e;fill-opacity:1;fill-rule:nonzero;stroke:none"
         d="m 239.196,233.611 34.238,0 0,10.369 -34.238,0 0,-10.369 z" /><path
         inkscape:connector-curvature="0"
         id="path5172"
         style="fill:#e3007e;fill-opacity:1;fill-rule:nonzero;stroke:none"
         d="m 239.196,247.168 34.238,0 0,10.367 -34.238,0 0,-10.367 z" /><path
         inkscape:connector-curvature="0"
         id="path5174"
         style="fill:#e3007e;fill-opacity:1;fill-rule:nonzero;stroke:none"
         d="m 239.196,260.593 34.238,0 0,10.369 -34.238,0 0,-10.369 z" /><path
         inkscape:connector-curvature="0"
         id="path5176"
         style="fill:#f1a1c2;fill-opacity:1;fill-rule:nonzero;stroke:none"
         d="m 239.196,274.021 34.238,0 0,10.367 -34.238,0 0,-10.367 z" /><path
         inkscape:connector-curvature="0"
         id="path5178"
         style="fill:#f1a1c2;fill-opacity:1;fill-rule:nonzero;stroke:none"
         d="m 239.196,287.576 34.238,0 0,10.368 -34.238,0 0,-10.368 z" /><path
         inkscape:connector-curvature="0"
         id="path5180"
         style="fill:#f1a1c2;fill-opacity:1;fill-rule:nonzero;stroke:none"
         d="m 239.196,301.015 34.238,0 0,10.453 -34.238,0 0,-10.453 z" /><path
         inkscape:connector-curvature="0"
         id="path5182"
         style="fill:#f1a1c2;fill-opacity:1;fill-rule:nonzero;stroke:none"
         d="m 239.196,314.558 34.238,0 0,10.368 -34.238,0 0,-10.368 z" /><path
         inkscape:connector-curvature="0"
         id="path5184"
         style="fill:#cad306;fill-opacity:1;fill-rule:nonzero;stroke:none"
         d="m 277.596,233.611 34.188,0 0,10.369 -34.188,0 0,-10.369 z" /><path
         inkscape:connector-curvature="0"
         id="path5186"
         style="fill:#cad306;fill-opacity:1;fill-rule:nonzero;stroke:none"
         d="m 277.596,247.168 34.188,0 0,10.367 -34.188,0 0,-10.367 z" /><path
         inkscape:connector-curvature="0"
         id="path5188"
         style="fill:#cad306;fill-opacity:1;fill-rule:nonzero;stroke:none"
         d="m 277.596,260.593 34.188,0 0,10.369 -34.188,0 0,-10.369 z" /><path
         inkscape:connector-curvature="0"
         id="path5190"
         style="fill:#e6e99c;fill-opacity:1;fill-rule:nonzero;stroke:none"
         d="m 277.596,274.021 34.188,0 0,10.367 -34.188,0 0,-10.367 z" /><path
         inkscape:connector-curvature="0"
         id="path5192"
         style="fill:#e6e99c;fill-opacity:1;fill-rule:nonzero;stroke:none"
         d="m 277.596,287.576 34.188,0 0,10.368 -34.188,0 0,-10.368 z" /><path
         inkscape:connector-curvature="0"
         id="path5194"
         style="fill:#4bc1eb;fill-opacity:1;fill-rule:nonzero;stroke:none"
         d="m 315.974,233.611 34.215,0 0,10.369 -34.215,0 0,-10.369 z" /><path
         inkscape:connector-curvature="0"
         id="path5196"
         style="fill:#4bc1eb;fill-opacity:1;fill-rule:nonzero;stroke:none"
         d="m 315.974,247.168 34.215,0 0,10.367 -34.215,0 0,-10.367 z" /><path
         inkscape:connector-curvature="0"
         id="path5198"
         style="fill:#4bc1eb;fill-opacity:1;fill-rule:nonzero;stroke:none"
         d="m 315.974,260.595 34.215,0 0,10.367 -34.215,0 0,-10.367 z" /><path
         inkscape:connector-curvature="0"
         id="path5200"
         style="fill:#bfe5f7;fill-opacity:1;fill-rule:nonzero;stroke:none"
         d="m 315.974,274.021 34.215,0 0,10.367 -34.215,0 0,-10.367 z" /><path
         inkscape:connector-curvature="0"
         id="path5202"
         style="fill:#bfe5f7;fill-opacity:1;fill-rule:nonzero;stroke:none"
         d="m 315.974,287.576 34.215,0 0,10.369 -34.215,0 0,-10.369 z" /><path
         inkscape:connector-curvature="0"
         id="path5204"
         style="fill:#bfe5f7;fill-opacity:1;fill-rule:nonzero;stroke:none"
         d="m 315.974,301.079 34.215,0 0,10.389 -34.215,0 0,-10.389 z" /><path
         inkscape:connector-curvature="0"
         id="path5206"
         style="fill:#bfe5f7;fill-opacity:1;fill-rule:nonzero;stroke:none"
         d="m 315.974,314.56 34.215,0 0,10.367 -34.215,0 0,-10.367 z" /><path
         inkscape:connector-curvature="0"
         id="path5208"
         style="fill:#bfe5f7;fill-opacity:1;fill-rule:nonzero;stroke:none"
         d="m 315.974,327.986 34.215,0 0,10.369 -34.215,0 0,-10.369 z" /><g
         transform="translate(363.7178,348.7222)"
         id="g5210"><path
           inkscape:connector-curvature="0"
           id="path5212"
           style="fill:#2d2c2e;fill-opacity:1;fill-rule:nonzero;stroke:none"
           d="m 0,0 25.615,0 c 25.89,0 28.263,-8.966 28.263,-42.535 l 0,-34.163 c 0,-29.493 -5.924,-38.413 -31.118,-38.413 L 0,-115.111 0,0 z m 15.551,-101.708 8.065,0 c 11.799,0 13.711,6.246 13.711,25.941 l 0,39.637 c 0,17.012 -1.521,22.857 -15.014,22.857 l -6.762,0 0,-88.435 z" /></g><g
         transform="translate(423.8242,348.7222)"
         id="g5214"><path
           inkscape:connector-curvature="0"
           id="path5216"
           style="fill:#2d2c2e;fill-opacity:1;fill-rule:nonzero;stroke:none"
           d="m 0,0 43.596,0 0,-13.612 -28.038,0 0,-36.103 25.949,0 0,-13.556 -25.949,0 0,-38.229 28.038,0 0,-13.611 -43.596,0 L 0,0 z" /></g><g
         transform="translate(473.667,348.7222)"
         id="g5218"><path
           inkscape:connector-curvature="0"
           id="path5220"
           style="fill:#2d2c2e;fill-opacity:1;fill-rule:nonzero;stroke:none"
           d="m 0,0 43.598,0 0,-13.612 -28.046,0 0,-36.103 25.921,0 0,-13.556 -25.921,0 0,-38.229 28.046,0 0,-13.611 -43.598,0 L 0,0 z" /></g><g
         transform="translate(580.5322,348.7222)"
         id="g5222"><path
           inkscape:connector-curvature="0"
           id="path5224"
           style="fill:#2d2c2e;fill-opacity:1;fill-rule:nonzero;stroke:none"
           d="m 0,0 43.598,0 0,-13.612 -28.046,0 0,-36.103 25.921,0 0,-13.556 -25.921,0 0,-38.229 28.046,0 0,-13.611 -43.598,0 L 0,0 z" /></g><g
         transform="translate(523.5098,247.166)"
         id="g5226"><path
           inkscape:connector-curvature="0"
           id="path5228"
           style="fill:#2d2c2e;fill-opacity:1;fill-rule:nonzero;stroke:none"
           d="m 0,0 35.773,88.127 -35.773,0 0,13.427 50.775,0 0,-13.427 L 15.562,0 l 35.213,0 0,-13.557 L 0,-13.555 0,0 z" /></g><g
         transform="translate(630.377,348.7202)"
         id="g5230"><path
           inkscape:connector-curvature="0"
           id="path5232"
           style="fill:#2d2c2e;fill-opacity:1;fill-rule:nonzero;stroke:none"
           d="m 0,0 24.856,0 c 23.248,0 24.863,-5.908 24.863,-31.107 0,-15.397 -1.438,-23.047 -14.493,-26.993 10.885,-1.084 14.499,-6.787 14.499,-17.671 l 0,-25.025 c 0,-4.124 0.017,-9.497 1.052,-14.313 l -15.551,0 c -1.607,2.863 -1.061,5.715 -1.061,10.356 l 0,25.938 c 0,10.884 -1.991,13.549 -12.531,13.549 l -6.084,0 0,-49.845 L 0,-115.109 0,0 z m 15.55,-50.776 4.827,0 c 12.535,0 14.489,1.585 14.489,18.768 0,17.01 -1.587,18.583 -11.429,18.583 l -7.887,0 0,-37.351 z" /></g></g></g></svg>