<?xml version="1.0" encoding="UTF-8" standalone="no"?>
<!-- Created with Inkscape (http://www.inkscape.org/) -->

<svg
   xmlns:dc="http://purl.org/dc/elements/1.1/"
   xmlns:cc="http://creativecommons.org/ns#"
   xmlns:rdf="http://www.w3.org/1999/02/22-rdf-syntax-ns#"
   xmlns:svg="http://www.w3.org/2000/svg"
   xmlns="http://www.w3.org/2000/svg"
   xmlns:sodipodi="http://sodipodi.sourceforge.net/DTD/sodipodi-0.dtd"
   xmlns:inkscape="http://www.inkscape.org/namespaces/inkscape"
   id="svg4021"
   version="1.1"
   inkscape:version="0.48.2 r9819"
   width="1052.3625"
   height="744.09497"
   xml:space="preserve"
   sodipodi:docname="coffee.svg"><metadata
     id="metadata4027"><rdf:RDF><cc:Work
         rdf:about=""><dc:format>image/svg+xml</dc:format><dc:type
           rdf:resource="http://purl.org/dc/dcmitype/StillImage" /><dc:title></dc:title></cc:Work></rdf:RDF></metadata><defs
     id="defs4025"><clipPath
       clipPathUnits="userSpaceOnUse"
       id="clipPath4037"><path
         d="m 0,595.276 841.89,0 L 841.89,0 0,0 0,595.276 z"
         id="path4039"
         inkscape:connector-curvature="0" /></clipPath><clipPath
       clipPathUnits="userSpaceOnUse"
       id="clipPath4053"><path
         d="m 0,595.276 841.89,0 L 841.89,0 0,0 0,595.276 z"
         id="path4055"
         inkscape:connector-curvature="0" /></clipPath><clipPath
       clipPathUnits="userSpaceOnUse"
       id="clipPath4147"><path
         d="m 22.595,0 790.872,0 0,594.275 -790.872,0 0,-594.275 z"
         id="path4149"
         inkscape:connector-curvature="0" /></clipPath><clipPath
       clipPathUnits="userSpaceOnUse"
       id="clipPath4488"><path
         inkscape:connector-curvature="0"
         d="m 0,595.276 841.89,0 L 841.89,0 0,0 0,595.276 z"
         id="path4490" /></clipPath><clipPath
       clipPathUnits="userSpaceOnUse"
       id="clipPath5856"><path
         inkscape:connector-curvature="0"
         d="m 0,0 841.89,0 0,595.275 L 0,595.275 0,0 z"
         id="path5858" /></clipPath></defs><sodipodi:namedview
     pagecolor="#ffffff"
     bordercolor="#666666"
     borderopacity="1"
     objecttolerance="10"
     gridtolerance="10"
     guidetolerance="10"
     inkscape:pageopacity="0"
     inkscape:pageshadow="2"
     inkscape:window-width="1920"
     inkscape:window-height="1138"
     id="namedview4023"
     showgrid="false"
     units="mm"
     inkscape:zoom="0.79555703"
     inkscape:cx="503.04131"
     inkscape:cy="479.45296"
     inkscape:window-x="1592"
     inkscape:window-y="-8"
     inkscape:window-maximized="1"
     inkscape:current-layer="g4029" /><g
     id="g4029"
     inkscape:groupmode="layer"
     inkscape:label="bags"
     transform="matrix(1.25,0,0,-1.25,0,744.09499)"><path
       d="m 0,452.61657 841.89,0 0,141.73228 -841.89,0 0,-141.73228 z"
       style="fill:#008fcc;fill-opacity:1;fill-rule:nonzero;stroke:none"
       id="path4031"
       inkscape:connector-curvature="0" /><path
       d="m 0.332,0 841.558,0 0,99.212598 -841.558,0 L 0.332,0 z"
       style="fill:#008ecb;fill-opacity:1;fill-rule:nonzero;stroke:none"
       id="path4047"
       inkscape:connector-curvature="0" /><g
       id="g4049"
       transform="translate(-0.37323047,20.8)"><g
         id="g4051"
         clip-path="url(#clipPath4053)"><g
           id="g4057"
           transform="translate(444.4277,46.5723)"><path
             d="m 0,0 c 0,1.445 -1.14,2.313 -2.891,2.313 l -3.618,0 0,-4.858 3.675,0 c 1.895,0 2.834,1.1 2.834,2.465 L 0,0 z m -0.002,-11.019 -3.612,5.238 -2.895,0 0,-5.238 -3.617,0 0,16.652 7.521,0 c 4.044,0 6.359,-2.164 6.359,-5.571 L 3.754,0 c 0,-2.602 -1.443,-4.336 -3.502,-5.203 l 4.074,-5.816 -4.328,0 z"
             style="fill:#ffffff;fill-opacity:1;fill-rule:nonzero;stroke:none"
             id="path4059"
             inkscape:connector-curvature="0" /></g><g
           id="g4061"
           transform="translate(450.2686,35.5537)"><path
             d="m 0,0 0,16.651 12.655,0 0,-3.32 -8.963,0 0,-3.379 7.813,0 0,-3.269 -7.813,0 0,-3.469 9.076,0 L 12.768,0 0,0 z"
             style="fill:#ffffff;fill-opacity:1;fill-rule:nonzero;stroke:none"
             id="path4063"
             inkscape:connector-curvature="0" /></g><g
           id="g4065"
           transform="translate(473.6006,42.2363)"><path
             d="m 0,0 0,-6.683 -3.739,0 0,6.496 -6.365,10.156 4.261,0 3.897,-6.789 4.083,6.789 4.237,0 L 0,0 z"
             style="fill:#ffffff;fill-opacity:1;fill-rule:nonzero;stroke:none"
             id="path4067"
             inkscape:connector-curvature="0" /></g><g
           id="g4069"
           transform="translate(491.8301,35.5537)"><path
             d="m 0,0 -5.203,6.972 -1.928,-2.023 0,-4.949 -3.574,0 0,16.651 3.574,0 0,-7.367 6.838,7.367 4.342,0 L -2.609,9.573 4.369,0 0,0 z"
             style="fill:#ffffff;fill-opacity:1;fill-rule:nonzero;stroke:none"
             id="path4071"
             inkscape:connector-curvature="0" /></g><g
           id="g4073"
           transform="translate(501.0801,35.2988)"><path
             d="m 0,0 c -2.604,0 -4.338,1.156 -5.494,2.445 l 2.312,2.542 c 0.983,-0.94 2.018,-1.558 3.18,-1.558 1.326,0 2.176,0.781 2.176,2.641 l 0,10.836 3.807,0 0,-10.869 C 5.981,1.95 3.471,0 0,0"
             style="fill:#ffffff;fill-opacity:1;fill-rule:nonzero;stroke:none"
             id="path4075"
             inkscape:connector-curvature="0" /></g><g
           id="g4077"
           transform="translate(516.3984,47.9707)"><path
             d="m 0,0 -2.313,-5.445 4.548,0 L 0,0 z m 4.989,-12.417 -1.52,3.738 -6.956,0 -1.683,-3.738 -3.735,0 7.171,16.8 3.468,0 7.229,-16.8 -3.974,0 z"
             style="fill:#ffffff;fill-opacity:1;fill-rule:nonzero;stroke:none"
             id="path4079"
             inkscape:connector-curvature="0" /></g><g
           id="g4081"
           transform="translate(532.8809,35.2988)"><path
             d="m 0,0 -3.194,0 -6.929,16.906 4.053,0 4.455,-11.703 4.439,11.703 3.821,0 L 0,0 z"
             style="fill:#ffffff;fill-opacity:1;fill-rule:nonzero;stroke:none"
             id="path4083"
             inkscape:connector-curvature="0" /></g><g
           id="g4085"
           transform="translate(541.5527,53.5098)"><path
             d="M 0,0 2.594,4.336 5.783,2.891 2.627,0 0,0 z m -0.302,-1.305 3.562,0 0,-16.651 -3.562,0 0,16.651 z"
             style="fill:#ffffff;fill-opacity:1;fill-rule:nonzero;stroke:none"
             id="path4087"
             inkscape:connector-curvature="0" /></g><g
           id="g4089"
           transform="translate(558.5996,35.5537)"><path
             d="m 0,0 -5.203,6.972 -1.879,-2.023 0,-4.949 -3.606,0 0,16.651 3.606,0 0,-7.367 6.805,7.367 4.336,0 L -2.592,9.573 4.419,0 0,0 z"
             style="fill:#ffffff;fill-opacity:1;fill-rule:nonzero;stroke:none"
             id="path4091"
             inkscape:connector-curvature="0" /></g><g
           id="g4093"
           transform="translate(570.7422,46.8613)"><path
             d="m 0,0 -2.588,2.035 c 1.731,2.301 3.395,3.46 6.356,3.46 3.468,0 5.781,-2.026 5.781,-5.155 0,-2.653 -1.457,-4.098 -4.371,-6.41 l -2.865,-2.064 7.317,0 0,-3.174 -12.282,0 0,2.925 5.543,4.485 c 2.033,1.695 2.888,2.678 2.888,3.957 0,1.386 -0.885,2.254 -2.31,2.254 C 2.285,2.313 1.369,1.537 0,0"
             style="fill:#ffffff;fill-opacity:1;fill-rule:nonzero;stroke:none"
             id="path4095"
             inkscape:connector-curvature="0" /></g><g
           id="g4097"
           transform="translate(589.2402,49.1738)"><path
             d="m 0,0 c -2.307,0 -3.65,-2.313 -3.65,-5.228 0,-3.155 1.485,-5.467 3.65,-5.467 2.313,0 3.771,2.312 3.771,5.332 C 3.771,-2.313 2.31,0 0,0 m 0,-13.904 c -4.427,0 -7.453,3.741 -7.453,8.541 0,4.802 3.127,8.678 7.453,8.678 4.6,0 7.516,-3.739 7.516,-8.543 0,-4.889 -3.05,-8.676 -7.516,-8.676"
             style="fill:#ffffff;fill-opacity:1;fill-rule:nonzero;stroke:none"
             id="path4099"
             inkscape:connector-curvature="0" /></g><g
           id="g4101"
           transform="translate(601.9648,52.3535)"><path
             d="m 0,0 2.609,0 0,-16.8 -3.672,0 0,13.042 -2.96,-0.694 -0.608,3.007 L 0,0 z"
             style="fill:#ffffff;fill-opacity:1;fill-rule:nonzero;stroke:none"
             id="path4103"
             inkscape:connector-curvature="0" /></g><g
           id="g4105"
           transform="translate(609.4766,46.8613)"><path
             d="m 0,0 -2.588,2.035 c 1.733,2.301 3.323,3.46 6.359,3.46 3.469,0 5.782,-2.026 5.782,-5.155 0,-2.653 -1.459,-4.098 -4.445,-6.41 l -2.795,-2.064 7.242,0 0,-3.174 -12.274,0 0,2.925 5.61,4.485 c 2.037,1.695 2.89,2.678 2.89,3.957 0,1.386 -0.953,2.254 -2.312,2.254 C 2.217,2.313 1.302,1.537 0,0"
             style="fill:#ffffff;fill-opacity:1;fill-rule:nonzero;stroke:none"
             id="path4107"
             inkscape:connector-curvature="0" /></g><g
           id="g4109"
           transform="translate(398.7588,42.5254)"><path
             d="M 0,0 4.403,0 2.295,5.401 0,0 z"
             style="fill:#ffffff;fill-opacity:1;fill-rule:nonzero;stroke:none"
             id="path4111"
             inkscape:connector-curvature="0" /></g><g
           id="g4113"
           transform="translate(383.8237,48.8848)"><path
             d="m 0,0 -2.766,0 0,-10.117 2.766,0 c 3.073,0 5.102,2.023 5.102,4.949 l 0,0.138 C 5.102,-2.023 3.073,0 0,0"
             style="fill:#ffffff;fill-opacity:1;fill-rule:nonzero;stroke:none"
             id="path4115"
             inkscape:connector-curvature="0" /></g><g
           id="g4117"
           transform="translate(333.2266,42.5254)"><path
             d="M 0,0 4.511,0 2.225,5.401 0,0 z"
             style="fill:#ffffff;fill-opacity:1;fill-rule:nonzero;stroke:none"
             id="path4119"
             inkscape:connector-curvature="0" /></g><g
           id="g4121"
           transform="translate(416.9688,42.2363)"><path
             d="m 0,0 0,-6.686 -3.617,0 0,6.476 -6.486,10.125 4.32,0 4.045,-6.735 4.047,6.735 4.122,0 L 0,0 z m -10.982,-6.686 -1.445,3.733 -7.077,0 -1.589,-3.733 -3.757,0 7.218,16.803 3.459,0 7.108,-16.803 -3.917,0 z m -22.163,0 -6.459,0 0,16.601 6.459,0 c 5.323,0 8.866,-3.556 8.866,-8.181 l 0,-0.116 c 0,-4.798 -3.543,-8.304 -8.866,-8.304 m -11.95,0 -5.2,6.975 -1.891,-2.023 0,-4.952 -3.622,0 0,16.601 3.622,0 0,-7.313 6.802,7.313 4.352,0 -6.678,-7.024 7,-9.577 -4.385,0 z m -19.367,-0.275 c -4.915,0 -8.597,3.781 -8.597,8.441 l 0,0.138 c 0,4.741 3.664,8.58 8.778,8.58 3.099,0 5.018,-0.948 6.505,-2.534 l -2.334,-2.75 c -1.191,1.156 -2.599,2.024 -4.231,2.024 -2.759,0 -4.783,-2.374 -4.783,-5.204 l 0,-0.116 c 0,-2.821 1.957,-5.341 4.783,-5.341 1.902,0 3.06,0.832 4.451,1.989 l 2.343,-2.313 c -1.727,-1.791 -3.725,-2.914 -6.915,-2.914 m -11.931,0.275 -1.614,3.733 -6.996,0 -1.51,-3.733 -3.742,0 7.078,16.803 3.398,0 7.216,-16.803 -3.83,0 z m -15.268,0 -3.725,0 0,6.686 -6.71,0 0,-6.686 -3.712,0 0,16.601 3.712,0 0,-6.546 6.71,0 0,6.546 3.725,0 0,-16.601 z M 9.187,15.32 l -119.359,0 c -2.026,0 -3.711,-1.734 -3.711,-3.757 l 0,-20.235 c 0,-2.024 1.685,-3.544 3.711,-3.544 l 119.359,0 c 2.037,0 3.542,1.52 3.542,3.544 l 0,20.235 c 0,2.023 -1.505,3.757 -3.542,3.757"
             style="fill:#ffffff;fill-opacity:1;fill-rule:nonzero;stroke:none"
             id="path4123"
             inkscape:connector-curvature="0" /></g><g
           id="g4125"
           transform="translate(246.7168,42.5879)"><path
             d="m 0,0 0,9.563 3.693,0 0,-9.336 c 0,-2.891 1.365,-4.231 3.578,-4.231 2.252,0 3.642,1.34 3.642,3.942 l 0,9.625 3.643,0 0,-9.336 c 0,-5.204 -2.795,-7.516 -7.328,-7.516 C 2.782,-7.289 0,-4.92 0,0"
             style="fill:#ffffff;fill-opacity:1;fill-rule:nonzero;stroke:none"
             id="path4127"
             inkscape:connector-curvature="0" /></g><g
           id="g4129"
           transform="translate(262.668,37.9004)"><path
             d="M 0,0 2.201,2.602 C 3.692,1.445 5.28,0.578 7.172,0.578 c 1.493,0 2.399,0.578 2.399,1.581 l 0,0.129 c 0,0.892 -0.562,1.35 -3.332,2.048 -3.39,0.867 -5.512,1.734 -5.512,5.203 0,2.891 2.391,4.914 5.814,4.914 2.412,0 4.506,-0.629 6.18,-2.023 L 10.859,9.544 c -1.469,1.151 -2.929,1.729 -4.337,1.729 -1.433,0 -2.2,-0.578 -2.2,-1.445 0,-1.156 0.756,-1.445 3.647,-2.312 3.358,-0.868 5.263,-2.024 5.263,-4.914 0,-3.469 -2.54,-5.204 -6.117,-5.204 C 4.563,-2.602 2.01,-1.734 0,0"
             style="fill:#ffffff;fill-opacity:1;fill-rule:nonzero;stroke:none"
             id="path4131"
             inkscape:connector-curvature="0" /></g><path
           d="m 278.118,52.151 3.616,0 0,-16.601 -3.616,0 0,16.601 z"
           style="fill:#ffffff;fill-opacity:1;fill-rule:nonzero;stroke:none"
           id="path4133"
           inkscape:connector-curvature="0" /><g
           id="g4135"
           transform="translate(283.9932,43.7168)"><path
             d="m 0,0 0,0.138 c 0,4.741 3.567,8.58 8.699,8.58 3.159,0 5.097,-0.948 6.616,-2.534 L 12.979,3.434 C 11.652,4.59 10.375,5.457 8.678,5.457 5.851,5.457 3.823,3.084 3.823,0.254 l 0,-0.116 c 0,-2.822 1.987,-5.341 4.855,-5.341 1.963,0 3.122,0.832 4.382,1.988 l 2.334,-2.312 C 13.687,-7.318 11.816,-8.441 8.612,-8.441 3.695,-8.441 0,-4.66 0,0"
             style="fill:#ffffff;fill-opacity:1;fill-rule:nonzero;stroke:none"
             id="path4137"
             inkscape:connector-curvature="0" /></g><g
           id="g4139"
           transform="translate(240.2339,52.1514)"><path
             d="M 0,0 -4.439,-7.024 -8.816,0 l -3.955,0 0,-14.54 -0.122,0 c -1.113,0 -2.013,-0.289 -2.67,-0.867 -0.734,-0.679 -1.066,-1.446 -1.066,-2.457 0,-0.982 0.287,-1.591 0.86,-2.169 0.579,-0.578 1.374,-0.866 2.343,-0.866 0.84,0 1.63,0.26 2.312,0.578 0.746,0.288 1.192,0.866 1.486,1.445 0.264,0.578 0.433,1.24 0.453,2.275 l 0.017,0 0,10.733 4.643,-6.938 0.076,0 4.76,6.972 0,-8.706 -0.117,0 c -1.07,0 -2.013,-0.289 -2.695,-0.867 -0.65,-0.679 -1.018,-1.446 -1.018,-2.457 0,-0.982 0.284,-1.591 0.855,-2.169 0.572,-0.578 1.349,-0.866 2.38,-0.866 0.802,0 1.563,0.26 2.311,0.578 0.673,0.288 1.193,0.866 1.484,1.445 0.272,0.578 0.374,1.24 0.397,2.275 l 0.005,0 L 3.923,0 0,0 z"
             style="fill:#ffffff;fill-opacity:1;fill-rule:nonzero;stroke:none"
             id="path4141"
             inkscape:connector-curvature="0" /></g></g></g><g
       id="g4450"
       transform="translate(16,-20.8)"><text
         transform="scale(1,-1)"
         sodipodi:linespacing="125%"
         id="text4423"
         y="-532.28625"
         x="27.924641"
         style="font-size:56px;font-style:normal;font-variant:normal;font-weight:normal;font-stretch:normal;text-align:start;line-height:125%;letter-spacing:0px;word-spacing:0px;writing-mode:lr-tb;text-anchor:start;fill:#000000;fill-opacity:1;stroke:none;font-family:PF Din Text Comp Pro Medium;-inkscape-font-specification:'PF Din Text Comp Pro Medium,'"
         xml:space="preserve"><tspan
           style="font-size:56px;font-style:normal;font-variant:normal;font-weight:normal;font-stretch:normal;text-align:start;line-height:125%;writing-mode:lr-tb;text-anchor:start;fill:#ffffff;fill-opacity:1;font-family:PF Din Text Comp Pro Medium;-inkscape-font-specification:'PF Din Text Comp Pro Medium,'"
           y="-532.28625"
           x="27.924641"
           id="tspan4425"
           sodipodi:role="line">THANK YOU</tspan></text>
<text
         transform="scale(1,-1)"
         sodipodi:linespacing="125%"
         id="text4423-9"
         y="-494.36627"
         x="26.137085"
         style="font-size:36px;font-style:oblique;font-variant:normal;font-weight:normal;font-stretch:normal;text-align:start;line-height:125%;letter-spacing:0px;word-spacing:0px;writing-mode:lr-tb;text-anchor:start;fill:#ffffff;fill-opacity:1;stroke:none;font-family:PF Din Text Comp Pro;-inkscape-font-specification:PF Din Text Comp Pro Oblique"
         xml:space="preserve"><tspan
           id="tspan4448"
           sodipodi:role="line"
           x="26.137085"
           y="-494.36627">FOR SPONSORING THE DRINKS</tspan></text>
</g><text
       xml:space="preserve"
       style="font-size:40px;font-style:normal;font-variant:normal;font-weight:normal;font-stretch:normal;line-height:125%;letter-spacing:0px;word-spacing:0px;fill:#000000;fill-opacity:1;stroke:none;font-family:PF Din Text Comp Pro;-inkscape-font-specification:PF Din Text Comp Pro"
       x="247.62524"
       y="384.59842"
       id="text4931"
       sodipodi:linespacing="125%"
       transform="matrix(0.8,0,0,-0.8,0,595.27599)"><tspan
         sodipodi:role="line"
         id="tspan4933"></tspan></text>
<g
       transform="translate(-1.3320188,-5.22994)"
       id="g5852"><g
         id="g5854"
         clip-path="url(#clipPath5856)"><g
           id="g5860"
           transform="translate(422.2617,152.252)"><path
             inkscape:connector-curvature="0"
             d="m 0,0 c -21.416,0 -58.146,46.162 -71.276,66.785 -13.126,20.664 -74.407,125.018 -38.711,158.914 35.706,33.877 92.01,33.385 109.987,33.695 18.021,-0.31 74.313,0.182 110.02,-33.695 C 145.708,191.803 84.442,87.449 71.318,66.785 58.157,46.162 21.435,0 0,0"
             style="fill:#2d2c2e;fill-opacity:1;fill-rule:nonzero;stroke:none"
             id="path5862" /></g><g
           id="g5864"
           transform="translate(528.665,370.5205)"><path
             inkscape:connector-curvature="0"
             d="M 0,0 C 0,0 -26.663,33.752 -106.404,33.752 -186.1,33.752 -212.781,0 -212.781,0 c 0,0 24.278,29.472 106.377,29.472 C -24.287,29.472 0,0 0,0"
             style="fill:#f3eee3;fill-opacity:1;fill-rule:nonzero;stroke:none"
             id="path5866" /></g><g
           id="g5868"
           transform="translate(512.8838,337.4731)"><path
             inkscape:connector-curvature="0"
             d="m 0,0 c -0.105,0.303 -0.514,0.337 -0.793,0.337 l -0.983,0 0,-1.181 0.938,0 c 0.453,0 0.898,0.126 0.898,0.675 C 0.06,-0.113 0.025,-0.034 0,0 m 0.125,-3.248 c -0.147,0.199 -0.135,0.56 -0.147,0.794 -0.034,0.683 -0.142,0.921 -0.892,0.921 l -0.862,0 0,-1.715 -0.75,0 0,4.286 1.834,0 c 0.774,0 1.5,-0.29 1.5,-1.174 0,-0.527 -0.276,-0.907 -0.818,-1.03 l 0,-0.023 C 0.572,-1.356 0.684,-1.703 0.719,-2.252 0.729,-2.545 0.708,-3 0.853,-3.248 l -0.728,0 z m -1.051,5.172 c -1.677,0 -2.946,-1.345 -2.946,-2.999 0,-1.642 1.277,-2.996 2.946,-2.996 1.668,0 2.975,1.354 2.975,2.996 0,1.654 -1.307,2.999 -2.975,2.999 m 0.012,-6.737 c -2.048,0 -3.751,1.658 -3.751,3.738 0,2.08 1.703,3.737 3.751,3.737 2.075,0 3.727,-1.678 3.727,-3.737 0,-2.059 -1.657,-3.738 -3.727,-3.738"
             style="fill:#f3eee3;fill-opacity:1;fill-rule:nonzero;stroke:none"
             id="path5870" /></g><g
           id="g5872"
           transform="translate(368.6992,299.2129)"><path
             inkscape:connector-curvature="0"
             d="m 0,0 -5.584,0 0,5.433 c -2.713,-4.038 -7.394,-6.121 -12.233,-6.121 -10.154,0 -18.293,8.236 -18.293,18.404 0,4.789 1.674,9.222 4.982,12.722 3.408,3.547 8.329,5.726 13.221,5.726 4.231,0 7.894,-1.428 11.086,-4.197 l 0,3.259 5.539,0 0,-10.365 -7.308,0 c -1.125,1.534 -2.459,2.675 -3.989,3.407 -1.526,0.795 -3.263,1.185 -5.189,1.185 -6.556,0 -11.586,-5.126 -11.586,-11.635 0,-6.473 5.03,-11.798 11.537,-11.798 4.688,0 8.638,2.572 10.354,6.902 l -13.006,0 0,5.674 L 0,18.596 0,0 z"
             style="fill:#f3eee3;fill-opacity:1;fill-rule:nonzero;stroke:none"
             id="path5874" /></g><g
           id="g5876"
           transform="translate(401.9326,334.439)"><path
             inkscape:connector-curvature="0"
             d="m 0,0 0,-5.632 -3.802,0 0,-17.447 c 0,-3.661 -0.587,-6.556 -3.215,-9.284 -2.514,-2.609 -5.796,-3.551 -9.305,-3.551 -3.396,0 -6.554,0.797 -9.07,3.256 -2.865,2.81 -3.506,5.918 -3.506,9.769 l 0,17.257 -3.8,0 0,5.632 13.7,0 0,-5.632 -3.181,0 0,-16.559 c 0,-1.69 0.029,-3.452 1.011,-4.93 1.101,-1.628 2.918,-2.485 4.846,-2.485 1.761,0 3.397,0.695 4.54,2.141 1.191,1.528 1.267,3.451 1.267,5.274 l 0,16.559 -3.18,0 0,5.632 L 0,0 z"
             style="fill:#f3eee3;fill-opacity:1;fill-rule:nonzero;stroke:none"
             id="path5878" /></g><g
           id="g5880"
           transform="translate(414.2705,304.8325)"><path
             inkscape:connector-curvature="0"
             d="m 0,0 3.802,0 0,-5.622 -14.378,0 0,5.622 3.855,0 0,23.976 -3.855,0 0,5.629 14.378,0 0,-5.629 L 0,23.976 0,0 z"
             style="fill:#f3eee3;fill-opacity:1;fill-rule:nonzero;stroke:none"
             id="path5882" /></g><g
           id="g5884"
           transform="translate(437.6055,304.8325)"><path
             inkscape:connector-curvature="0"
             d="m 0,0 3.821,0 0,-5.622 -14.399,0 0,5.622 3.854,0 0,23.635 -5.184,0 0,-5.124 -5.336,0 0,11.094 27.723,0 0,-11.094 -5.324,0 0,5.124 L 0,23.635 0,0 z"
             style="fill:#f3eee3;fill-opacity:1;fill-rule:nonzero;stroke:none"
             id="path5886" /></g><g
           id="g5888"
           transform="translate(463.6943,326.6968)"><path
             inkscape:connector-curvature="0"
             d="m 0,0 -0.056,0 -4.502,-12.091 8.992,0 L 0,0 z m 4.276,-22.531 3.912,0 -2.096,5.275 -12.358,0 -2.036,-5.275 3.803,0 0,-4.953 -14.343,0 0,5.62 3.751,0 10.241,23.975 -3.907,0 2.441,5.632 9.363,0 12.339,-29.607 3.745,0 0,-5.62 -14.855,0 0,4.953 z"
             style="fill:#f3eee3;fill-opacity:1;fill-rule:nonzero;stroke:none"
             id="path5890" /></g><g
           id="g5892"
           transform="translate(496.2227,315.6997)"><path
             inkscape:connector-curvature="0"
             d="m 0,0 c 2.093,0 4.095,0.103 5.875,1.423 1.578,1.232 2.428,3.107 2.428,5.075 0,1.876 -0.814,3.8 -2.336,4.989 C 4.5,12.72 2.865,12.72 0.993,12.72 l -4.624,0 L -3.631,0 0,0 z m -10.354,13.108 -5.67,0 2.411,5.631 15.192,0 c 3.451,0 6.485,-0.344 9.237,-2.712 C 13.569,13.656 15,10.354 15,6.748 15,1.679 11.584,-3.402 6.26,-3.856 l 5.493,-7.011 3.982,0 0,-5.62 -8.246,0 -11.12,15.844 0,-10.224 2.987,0 0,-5.62 -13.511,0 0,5.62 3.801,0 0,23.975 z"
             style="fill:#f3eee3;fill-opacity:1;fill-rule:nonzero;stroke:none"
             id="path5894" /></g><path
           inkscape:connector-curvature="0"
           d="m 388.306,211.738 -2.229,0 0,3.529 2.229,0 0,-3.529 z"
           style="fill:#f3eee3;fill-opacity:1;fill-rule:nonzero;stroke:none"
           id="path5896" /><g
           id="g5898"
           transform="translate(407.3379,223.6387)"><path
             inkscape:connector-curvature="0"
             d="m 0,0 -2.022,0 c -1.226,1.977 -3.461,3.24 -5.801,3.24 -3.75,0 -6.709,-3.027 -6.709,-6.775 0,-3.789 3.026,-6.672 6.848,-6.672 2.442,0 4.836,1.371 5.846,3.643 l 2.376,0 c -1.262,-3.534 -4.686,-5.77 -8.397,-5.77 -4.836,0 -8.799,4 -8.799,8.76 0,2.414 0.937,4.652 2.487,6.238 1.624,1.66 3.749,2.723 6.199,2.723 2.412,0 4.4,-0.949 5.95,-2.723 l 0,2.416 L 0,5.08 0,0 z"
             style="fill:#f3eee3;fill-opacity:1;fill-rule:nonzero;stroke:none"
             id="path5900" /></g><g
           id="g5902"
           transform="translate(424.9326,220.1758)"><path
             inkscape:connector-curvature="0"
             d="m 0,0 c 0,3.676 -2.996,6.738 -6.746,6.738 -3.749,0 -6.775,-2.99 -6.775,-6.701 0,-3.721 2.963,-6.818 6.744,-6.818 C -3.017,-6.781 0,-3.729 0,0 m -15.648,-0.037 c 0,4.937 4.002,8.887 8.939,8.887 4.835,0 8.834,-3.95 8.834,-8.745 0,-4.937 -3.896,-8.976 -8.902,-8.976 -4.907,0 -8.871,3.965 -8.871,8.834"
             style="fill:#f3eee3;fill-opacity:1;fill-rule:nonzero;stroke:none"
             id="path5904" /></g><g
           id="g5906"
           transform="translate(432.4629,225.8008)"><path
             inkscape:connector-curvature="0"
             d="M 0,0 C 0.974,1.98 2.812,3.225 5.174,3.225 7.571,3.225 9.409,2.051 10.527,0 l 0.358,-0.65 c 0.937,2.339 3.359,3.875 5.771,3.875 3.279,0 5.012,-1.461 6.024,-3.875 0.412,-1.01 0.465,-1.95 0.465,-3.788 l 0,-7.609 2.848,0 0,-2.016 -7.824,0 0,2.016 2.85,0 0,7.106 c 0,1.562 -0.214,3.568 -1.048,4.468 -0.957,1.121 -2.266,1.623 -3.601,1.623 -1.225,0 -2.7,-0.541 -3.611,-1.586 -1.074,-1.261 -1.188,-2.377 -1.188,-3.964 l 0,-7.647 2.85,0 0,-2.016 -7.823,0 0,2.016 2.847,0 0,7.174 c 0,2.025 -0.538,3.695 -1.047,4.4 C 7.535,0.824 6.095,1.15 4.796,1.15 3.173,1.15 2.086,0.609 1.224,-0.436 0.15,-1.697 0,-3.063 0,-4.639 l 0,-7.408 2.849,0 0,-2.016 -7.825,0 0,2.016 2.85,0 0,12.985 -2.85,0 0,1.98 L 0,2.918 0,0 z"
             style="fill:#f3eee3;fill-opacity:1;fill-rule:nonzero;stroke:none"
             id="path5908" /></g><g
           id="g5910"
           transform="translate(374.1221,275.2227)"><path
             inkscape:connector-curvature="0"
             d="m 0,0 c 1.819,0 3.424,0.092 4.853,1.293 1.436,1.232 2.204,2.842 2.204,4.709 0,1.803 -0.873,3.502 -2.293,4.65 -1.517,1.147 -2.945,1.334 -4.788,1.334 l -5.132,0 L -5.156,0 0,0 z m -5.156,-11.297 3.633,0 0,-2.658 -10.162,0 0,2.658 3.636,0 0,23.283 -3.636,0 0,2.659 11.685,0 c 2.373,0 4.702,-0.413 6.646,-1.836 C 8.751,11.248 9.949,8.678 9.949,6.061 9.949,3.582 8.982,1.332 7.191,-0.369 5.128,-2.344 2.971,-2.662 0.293,-2.662 l -5.449,0 0,-8.635 z"
             style="fill:#f3eee3;fill-opacity:1;fill-rule:nonzero;stroke:none"
             id="path5912" /></g><g
           id="g5914"
           transform="translate(396.9688,286.6094)"><path
             inkscape:connector-curvature="0"
             d="m 0,0 -5.866,-13.775 11.602,0 L 0,0 z m 5.692,-25.344 0,2.66 3.718,0 -2.846,6.567 -13.267,0 -2.931,-6.567 3.619,0 0,-2.66 -10.227,0 0,2.66 3.57,0 10.375,23.284 -3.81,0 0,2.658 7.486,0 11.245,-25.942 3.538,0 0,-2.66 -10.47,0 z"
             style="fill:#f3eee3;fill-opacity:1;fill-rule:nonzero;stroke:none"
             id="path5916" /></g><g
           id="g5918"
           transform="translate(434.29,261.2676)"><path
             inkscape:connector-curvature="0"
             d="m 0,0 -5.556,0 -8.86,12.348 1.089,0 c 2.17,0 4.236,-0.092 6.118,1.054 2.021,1.243 3.215,3.414 3.215,5.741 0,2.019 -0.735,3.855 -2.157,5.189 -1.701,1.561 -3.537,1.609 -5.695,1.609 l -5.603,0 0,-23.283 3.399,0 0,-2.658 -9.972,0 0,2.658 3.685,0 0,23.283 -3.685,0 0,2.659 12.361,0 c 2.756,0 5.094,-0.227 7.299,-2.11 2.157,-1.838 3.259,-4.408 3.259,-7.211 0,-4.865 -3.765,-8.812 -8.676,-8.812 L -3.811,2.658 0,2.658 0,0 z"
             style="fill:#f3eee3;fill-opacity:1;fill-rule:nonzero;stroke:none"
             id="path5920" /></g><g
           id="g5922"
           transform="translate(446.084,263.9258)"><path
             inkscape:connector-curvature="0"
             d="m 0,0 3.628,0 0,-2.66 -10.179,0 0,2.66 3.661,0 0,23.283 -6.2,0 0,-5.006 -2.5,0 0,7.664 20.27,0 0,-7.664 -2.48,0 0,5.006 -6.2,0 L 0,0 z"
             style="fill:#f3eee3;fill-opacity:1;fill-rule:nonzero;stroke:none"
             id="path5924" /></g><g
           id="g5926"
           transform="translate(470.5078,263.9258)"><path
             inkscape:connector-curvature="0"
             d="m 0,0 3.63,0 0,-2.66 -10.195,0 0,2.66 3.672,0 0,6.939 -8.677,16.344 -3.402,0 0,2.658 9.968,0 0,-2.658 -3.536,0 7.106,-13.595 6.713,13.595 -3.672,0 0,2.658 10.007,0 0,-2.658 -3.395,0 L 0,6.939 0,0 z"
             style="fill:#f3eee3;fill-opacity:1;fill-rule:nonzero;stroke:none"
             id="path5928" /></g></g></g></g></svg>