<?xml version="1.0" encoding="UTF-8" standalone="no"?>
<!-- Created with Inkscape (http://www.inkscape.org/) -->

<svg
   xmlns:dc="http://purl.org/dc/elements/1.1/"
   xmlns:cc="http://creativecommons.org/ns#"
   xmlns:rdf="http://www.w3.org/1999/02/22-rdf-syntax-ns#"
   xmlns:svg="http://www.w3.org/2000/svg"
   xmlns="http://www.w3.org/2000/svg"
   xmlns:sodipodi="http://sodipodi.sourceforge.net/DTD/sodipodi-0.dtd"
   xmlns:inkscape="http://www.inkscape.org/namespaces/inkscape"
   id="svg4021"
   version="1.1"
   inkscape:version="0.48.2 r9819"
   width="1052.3625"
   height="744.09497"
   xml:space="preserve"
   sodipodi:docname="drinks.svg"><metadata
     id="metadata4027"><rdf:RDF><cc:Work
         rdf:about=""><dc:format>image/svg+xml</dc:format><dc:type
           rdf:resource="http://purl.org/dc/dcmitype/StillImage" /><dc:title></dc:title></cc:Work></rdf:RDF></metadata><defs
     id="defs4025"><clipPath
       clipPathUnits="userSpaceOnUse"
       id="clipPath4037"><path
         d="m 0,595.276 841.89,0 L 841.89,0 0,0 0,595.276 z"
         id="path4039"
         inkscape:connector-curvature="0" /></clipPath><clipPath
       clipPathUnits="userSpaceOnUse"
       id="clipPath4053"><path
         d="m 0,595.276 841.89,0 L 841.89,0 0,0 0,595.276 z"
         id="path4055"
         inkscape:connector-curvature="0" /></clipPath><clipPath
       clipPathUnits="userSpaceOnUse"
       id="clipPath4147"><path
         d="m 22.595,0 790.872,0 0,594.275 -790.872,0 0,-594.275 z"
         id="path4149"
         inkscape:connector-curvature="0" /></clipPath><clipPath
       clipPathUnits="userSpaceOnUse"
       id="clipPath4488"><path
         inkscape:connector-curvature="0"
         d="m 0,595.276 841.89,0 L 841.89,0 0,0 0,595.276 z"
         id="path4490" /></clipPath><clipPath
       clipPathUnits="userSpaceOnUse"
       id="clipPath5856"><path
         inkscape:connector-curvature="0"
         d="m 0,0 841.89,0 0,595.275 L 0,595.275 0,0 z"
         id="path5858" /></clipPath></defs><sodipodi:namedview
     pagecolor="#ffffff"
     bordercolor="#666666"
     borderopacity="1"
     objecttolerance="10"
     gridtolerance="10"
     guidetolerance="10"
     inkscape:pageopacity="0"
     inkscape:pageshadow="2"
     inkscape:window-width="1920"
     inkscape:window-height="1138"
     id="namedview4023"
     showgrid="false"
     units="mm"
     inkscape:zoom="0.79555703"
     inkscape:cx="503.04131"
     inkscape:cy="479.45296"
     inkscape:window-x="1592"
     inkscape:window-y="-8"
     inkscape:window-maximized="1"
     inkscape:current-layer="g4029" /><g
     id="g4029"
     inkscape:groupmode="layer"
     inkscape:label="bags"
     transform="matrix(1.25,0,0,-1.25,0,744.09499)"><path
       d="m 0,452.61657 841.89,0 0,141.73228 -841.89,0 0,-141.73228 z"
       style="fill:#008fcc;fill-opacity:1;fill-rule:nonzero;stroke:none"
       id="path4031"
       inkscape:connector-curvature="0" /><path
       d="m 0.332,0 841.558,0 0,99.212598 -841.558,0 L 0.332,0 z"
       style="fill:#008ecb;fill-opacity:1;fill-rule:nonzero;stroke:none"
       id="path4047"
       inkscape:connector-curvature="0" /><g
       id="g4049"
       transform="translate(-0.37323047,20.8)"><g
         id="g4051"
         clip-path="url(#clipPath4053)"><g
           id="g4057"
           transform="translate(444.4277,46.5723)"><path
             d="m 0,0 c 0,1.445 -1.14,2.313 -2.891,2.313 l -3.618,0 0,-4.858 3.675,0 c 1.895,0 2.834,1.1 2.834,2.465 L 0,0 z m -0.002,-11.019 -3.612,5.238 -2.895,0 0,-5.238 -3.617,0 0,16.652 7.521,0 c 4.044,0 6.359,-2.164 6.359,-5.571 L 3.754,0 c 0,-2.602 -1.443,-4.336 -3.502,-5.203 l 4.074,-5.816 -4.328,0 z"
             style="fill:#ffffff;fill-opacity:1;fill-rule:nonzero;stroke:none"
             id="path4059"
             inkscape:connector-curvature="0" /></g><g
           id="g4061"
           transform="translate(450.2686,35.5537)"><path
             d="m 0,0 0,16.651 12.655,0 0,-3.32 -8.963,0 0,-3.379 7.813,0 0,-3.269 -7.813,0 0,-3.469 9.076,0 L 12.768,0 0,0 z"
             style="fill:#ffffff;fill-opacity:1;fill-rule:nonzero;stroke:none"
             id="path4063"
             inkscape:connector-curvature="0" /></g><g
           id="g4065"
           transform="translate(473.6006,42.2363)"><path
             d="m 0,0 0,-6.683 -3.739,0 0,6.496 -6.365,10.156 4.261,0 3.897,-6.789 4.083,6.789 4.237,0 L 0,0 z"
             style="fill:#ffffff;fill-opacity:1;fill-rule:nonzero;stroke:none"
             id="path4067"
             inkscape:connector-curvature="0" /></g><g
           id="g4069"
           transform="translate(491.8301,35.5537)"><path
             d="m 0,0 -5.203,6.972 -1.928,-2.023 0,-4.949 -3.574,0 0,16.651 3.574,0 0,-7.367 6.838,7.367 4.342,0 L -2.609,9.573 4.369,0 0,0 z"
             style="fill:#ffffff;fill-opacity:1;fill-rule:nonzero;stroke:none"
             id="path4071"
             inkscape:connector-curvature="0" /></g><g
           id="g4073"
           transform="translate(501.0801,35.2988)"><path
             d="m 0,0 c -2.604,0 -4.338,1.156 -5.494,2.445 l 2.312,2.542 c 0.983,-0.94 2.018,-1.558 3.18,-1.558 1.326,0 2.176,0.781 2.176,2.641 l 0,10.836 3.807,0 0,-10.869 C 5.981,1.95 3.471,0 0,0"
             style="fill:#ffffff;fill-opacity:1;fill-rule:nonzero;stroke:none"
             id="path4075"
             inkscape:connector-curvature="0" /></g><g
           id="g4077"
           transform="translate(516.3984,47.9707)"><path
             d="m 0,0 -2.313,-5.445 4.548,0 L 0,0 z m 4.989,-12.417 -1.52,3.738 -6.956,0 -1.683,-3.738 -3.735,0 7.171,16.8 3.468,0 7.229,-16.8 -3.974,0 z"
             style="fill:#ffffff;fill-opacity:1;fill-rule:nonzero;stroke:none"
             id="path4079"
             inkscape:connector-curvature="0" /></g><g
           id="g4081"
           transform="translate(532.8809,35.2988)"><path
             d="m 0,0 -3.194,0 -6.929,16.906 4.053,0 4.455,-11.703 4.439,11.703 3.821,0 L 0,0 z"
             style="fill:#ffffff;fill-opacity:1;fill-rule:nonzero;stroke:none"
             id="path4083"
             inkscape:connector-curvature="0" /></g><g
           id="g4085"
           transform="translate(541.5527,53.5098)"><path
             d="M 0,0 2.594,4.336 5.783,2.891 2.627,0 0,0 z m -0.302,-1.305 3.562,0 0,-16.651 -3.562,0 0,16.651 z"
             style="fill:#ffffff;fill-opacity:1;fill-rule:nonzero;stroke:none"
             id="path4087"
             inkscape:connector-curvature="0" /></g><g
           id="g4089"
           transform="translate(558.5996,35.5537)"><path
             d="m 0,0 -5.203,6.972 -1.879,-2.023 0,-4.949 -3.606,0 0,16.651 3.606,0 0,-7.367 6.805,7.367 4.336,0 L -2.592,9.573 4.419,0 0,0 z"
             style="fill:#ffffff;fill-opacity:1;fill-rule:nonzero;stroke:none"
             id="path4091"
             inkscape:connector-curvature="0" /></g><g
           id="g4093"
           transform="translate(570.7422,46.8613)"><path
             d="m 0,0 -2.588,2.035 c 1.731,2.301 3.395,3.46 6.356,3.46 3.468,0 5.781,-2.026 5.781,-5.155 0,-2.653 -1.457,-4.098 -4.371,-6.41 l -2.865,-2.064 7.317,0 0,-3.174 -12.282,0 0,2.925 5.543,4.485 c 2.033,1.695 2.888,2.678 2.888,3.957 0,1.386 -0.885,2.254 -2.31,2.254 C 2.285,2.313 1.369,1.537 0,0"
             style="fill:#ffffff;fill-opacity:1;fill-rule:nonzero;stroke:none"
             id="path4095"
             inkscape:connector-curvature="0" /></g><g
           id="g4097"
           transform="translate(589.2402,49.1738)"><path
             d="m 0,0 c -2.307,0 -3.65,-2.313 -3.65,-5.228 0,-3.155 1.485,-5.467 3.65,-5.467 2.313,0 3.771,2.312 3.771,5.332 C 3.771,-2.313 2.31,0 0,0 m 0,-13.904 c -4.427,0 -7.453,3.741 -7.453,8.541 0,4.802 3.127,8.678 7.453,8.678 4.6,0 7.516,-3.739 7.516,-8.543 0,-4.889 -3.05,-8.676 -7.516,-8.676"
             style="fill:#ffffff;fill-opacity:1;fill-rule:nonzero;stroke:none"
             id="path4099"
             inkscape:connector-curvature="0" /></g><g
           id="g4101"
           transform="translate(601.9648,52.3535)"><path
             d="m 0,0 2.609,0 0,-16.8 -3.672,0 0,13.042 -2.96,-0.694 -0.608,3.007 L 0,0 z"
             style="fill:#ffffff;fill-opacity:1;fill-rule:nonzero;stroke:none"
             id="path4103"
             inkscape:connector-curvature="0" /></g><g
           id="g4105"
           transform="translate(609.4766,46.8613)"><path
             d="m 0,0 -2.588,2.035 c 1.733,2.301 3.323,3.46 6.359,3.46 3.469,0 5.782,-2.026 5.782,-5.155 0,-2.653 -1.459,-4.098 -4.445,-6.41 l -2.795,-2.064 7.242,0 0,-3.174 -12.274,0 0,2.925 5.61,4.485 c 2.037,1.695 2.89,2.678 2.89,3.957 0,1.386 -0.953,2.254 -2.312,2.254 C 2.217,2.313 1.302,1.537 0,0"
             style="fill:#ffffff;fill-opacity:1;fill-rule:nonzero;stroke:none"
             id="path4107"
             inkscape:connector-curvature="0" /></g><g
           id="g4109"
           transform="translate(398.7588,42.5254)"><path
             d="M 0,0 4.403,0 2.295,5.401 0,0 z"
             style="fill:#ffffff;fill-opacity:1;fill-rule:nonzero;stroke:none"
             id="path4111"
             inkscape:connector-curvature="0" /></g><g
           id="g4113"
           transform="translate(383.8237,48.8848)"><path
             d="m 0,0 -2.766,0 0,-10.117 2.766,0 c 3.073,0 5.102,2.023 5.102,4.949 l 0,0.138 C 5.102,-2.023 3.073,0 0,0"
             style="fill:#ffffff;fill-opacity:1;fill-rule:nonzero;stroke:none"
             id="path4115"
             inkscape:connector-curvature="0" /></g><g
           id="g4117"
           transform="translate(333.2266,42.5254)"><path
             d="M 0,0 4.511,0 2.225,5.401 0,0 z"
             style="fill:#ffffff;fill-opacity:1;fill-rule:nonzero;stroke:none"
             id="path4119"
             inkscape:connector-curvature="0" /></g><g
           id="g4121"
           transform="translate(416.9688,42.2363)"><path
             d="m 0,0 0,-6.686 -3.617,0 0,6.476 -6.486,10.125 4.32,0 4.045,-6.735 4.047,6.735 4.122,0 L 0,0 z m -10.982,-6.686 -1.445,3.733 -7.077,0 -1.589,-3.733 -3.757,0 7.218,16.803 3.459,0 7.108,-16.803 -3.917,0 z m -22.163,0 -6.459,0 0,16.601 6.459,0 c 5.323,0 8.866,-3.556 8.866,-8.181 l 0,-0.116 c 0,-4.798 -3.543,-8.304 -8.866,-8.304 m -11.95,0 -5.2,6.975 -1.891,-2.023 0,-4.952 -3.622,0 0,16.601 3.622,0 0,-7.313 6.802,7.313 4.352,0 -6.678,-7.024 7,-9.577 -4.385,0 z m -19.367,-0.275 c -4.915,0 -8.597,3.781 -8.597,8.441 l 0,0.138 c 0,4.741 3.664,8.58 8.778,8.58 3.099,0 5.018,-0.948 6.505,-2.534 l -2.334,-2.75 c -1.191,1.156 -2.599,2.024 -4.231,2.024 -2.759,0 -4.783,-2.374 -4.783,-5.204 l 0,-0.116 c 0,-2.821 1.957,-5.341 4.783,-5.341 1.902,0 3.06,0.832 4.451,1.989 l 2.343,-2.313 c -1.727,-1.791 -3.725,-2.914 -6.915,-2.914 m -11.931,0.275 -1.614,3.733 -6.996,0 -1.51,-3.733 -3.742,0 7.078,16.803 3.398,0 7.216,-16.803 -3.83,0 z m -15.268,0 -3.725,0 0,6.686 -6.71,0 0,-6.686 -3.712,0 0,16.601 3.712,0 0,-6.546 6.71,0 0,6.546 3.725,0 0,-16.601 z M 9.187,15.32 l -119.359,0 c -2.026,0 -3.711,-1.734 -3.711,-3.757 l 0,-20.235 c 0,-2.024 1.685,-3.544 3.711,-3.544 l 119.359,0 c 2.037,0 3.542,1.52 3.542,3.544 l 0,20.235 c 0,2.023 -1.505,3.757 -3.542,3.757"
             style="fill:#ffffff;fill-opacity:1;fill-rule:nonzero;stroke:none"
             id="path4123"
             inkscape:connector-curvature="0" /></g><g
           id="g4125"
           transform="translate(246.7168,42.5879)"><path
             d="m 0,0 0,9.563 3.693,0 0,-9.336 c 0,-2.891 1.365,-4.231 3.578,-4.231 2.252,0 3.642,1.34 3.642,3.942 l 0,9.625 3.643,0 0,-9.336 c 0,-5.204 -2.795,-7.516 -7.328,-7.516 C 2.782,-7.289 0,-4.92 0,0"
             style="fill:#ffffff;fill-opacity:1;fill-rule:nonzero;stroke:none"
             id="path4127"
             inkscape:connector-curvature="0" /></g><g
           id="g4129"
           transform="translate(262.668,37.9004)"><path
             d="M 0,0 2.201,2.602 C 3.692,1.445 5.28,0.578 7.172,0.578 c 1.493,0 2.399,0.578 2.399,1.581 l 0,0.129 c 0,0.892 -0.562,1.35 -3.332,2.048 -3.39,0.867 -5.512,1.734 -5.512,5.203 0,2.891 2.391,4.914 5.814,4.914 2.412,0 4.506,-0.629 6.18,-2.023 L 10.859,9.544 c -1.469,1.151 -2.929,1.729 -4.337,1.729 -1.433,0 -2.2,-0.578 -2.2,-1.445 0,-1.156 0.756,-1.445 3.647,-2.312 3.358,-0.868 5.263,-2.024 5.263,-4.914 0,-3.469 -2.54,-5.204 -6.117,-5.204 C 4.563,-2.602 2.01,-1.734 0,0"
             style="fill:#ffffff;fill-opacity:1;fill-rule:nonzero;stroke:none"
             id="path4131"
             inkscape:connector-curvature="0" /></g><path
           d="m 278.118,52.151 3.616,0 0,-16.601 -3.616,0 0,16.601 z"
           style="fill:#ffffff;fill-opacity:1;fill-rule:nonzero;stroke:none"
           id="path4133"
           inkscape:connector-curvature="0" /><g
           id="g4135"
           transform="translate(283.9932,43.7168)"><path
             d="m 0,0 0,0.138 c 0,4.741 3.567,8.58 8.699,8.58 3.159,0 5.097,-0.948 6.616,-2.534 L 12.979,3.434 C 11.652,4.59 10.375,5.457 8.678,5.457 5.851,5.457 3.823,3.084 3.823,0.254 l 0,-0.116 c 0,-2.822 1.987,-5.341 4.855,-5.341 1.963,0 3.122,0.832 4.382,1.988 l 2.334,-2.312 C 13.687,-7.318 11.816,-8.441 8.612,-8.441 3.695,-8.441 0,-4.66 0,0"
             style="fill:#ffffff;fill-opacity:1;fill-rule:nonzero;stroke:none"
             id="path4137"
             inkscape:connector-curvature="0" /></g><g
           id="g4139"
           transform="translate(240.2339,52.1514)"><path
             d="M 0,0 -4.439,-7.024 -8.816,0 l -3.955,0 0,-14.54 -0.122,0 c -1.113,0 -2.013,-0.289 -2.67,-0.867 -0.734,-0.679 -1.066,-1.446 -1.066,-2.457 0,-0.982 0.287,-1.591 0.86,-2.169 0.579,-0.578 1.374,-0.866 2.343,-0.866 0.84,0 1.63,0.26 2.312,0.578 0.746,0.288 1.192,0.866 1.486,1.445 0.264,0.578 0.433,1.24 0.453,2.275 l 0.017,0 0,10.733 4.643,-6.938 0.076,0 4.76,6.972 0,-8.706 -0.117,0 c -1.07,0 -2.013,-0.289 -2.695,-0.867 -0.65,-0.679 -1.018,-1.446 -1.018,-2.457 0,-0.982 0.284,-1.591 0.855,-2.169 0.572,-0.578 1.349,-0.866 2.38,-0.866 0.802,0 1.563,0.26 2.311,0.578 0.673,0.288 1.193,0.866 1.484,1.445 0.272,0.578 0.374,1.24 0.397,2.275 l 0.005,0 L 3.923,0 0,0 z"
             style="fill:#ffffff;fill-opacity:1;fill-rule:nonzero;stroke:none"
             id="path4141"
             inkscape:connector-curvature="0" /></g></g></g><g
       id="g4450"
       transform="translate(16,-20.8)"><text
         transform="scale(1,-1)"
         sodipodi:linespacing="125%"
         id="text4423"
         y="-532.28625"
         x="27.924641"
         style="font-size:56px;font-style:normal;font-variant:normal;font-weight:normal;font-stretch:normal;text-align:start;line-height:125%;letter-spacing:0px;word-spacing:0px;writing-mode:lr-tb;text-anchor:start;fill:#000000;fill-opacity:1;stroke:none;font-family:PF Din Text Comp Pro Medium;-inkscape-font-specification:'PF Din Text Comp Pro Medium,'"
         xml:space="preserve"><tspan
           style="font-size:56px;font-style:normal;font-variant:normal;font-weight:normal;font-stretch:normal;text-align:start;line-height:125%;writing-mode:lr-tb;text-anchor:start;fill:#ffffff;fill-opacity:1;font-family:PF Din Text Comp Pro Medium;-inkscape-font-specification:'PF Din Text Comp Pro Medium,'"
           y="-532.28625"
           x="27.924641"
           id="tspan4425"
           sodipodi:role="line">THANK YOU</tspan></text>
<text
         transform="scale(1,-1)"
         sodipodi:linespacing="125%"
         id="text4423-9"
         y="-494.36627"
         x="26.137085"
         style="font-size:36px;font-style:oblique;font-variant:normal;font-weight:normal;font-stretch:normal;text-align:start;line-height:125%;letter-spacing:0px;word-spacing:0px;writing-mode:lr-tb;text-anchor:start;fill:#ffffff;fill-opacity:1;stroke:none;font-family:PF Din Text Comp Pro;-inkscape-font-specification:PF Din Text Comp Pro Oblique"
         xml:space="preserve"><tspan
           id="tspan4448"
           sodipodi:role="line"
           x="26.137085"
           y="-494.36627">FOR SPONSORING THE BREAKFAST</tspan></text>
</g><text
       xml:space="preserve"
       style="font-size:40px;font-style:normal;font-variant:normal;font-weight:normal;font-stretch:normal;line-height:125%;letter-spacing:0px;word-spacing:0px;fill:#000000;fill-opacity:1;stroke:none;font-family:PF Din Text Comp Pro;-inkscape-font-specification:PF Din Text Comp Pro"
       x="247.62524"
       y="384.59842"
       id="text4931"
       sodipodi:linespacing="125%"
       transform="matrix(0.8,0,0,-0.8,0,595.27599)"><tspan
         sodipodi:role="line"
         id="tspan4933"></tspan></text>
<g
       id="g6468"
       transform="translate(129.32545,62.4)"><g
         transform="translate(521.85067,209.79431)"
         id="g6184"><path
           inkscape:connector-curvature="0"
           id="path6186"
           style="fill:#282929;fill-opacity:1;fill-rule:nonzero;stroke:none"
           d="m 0,0 c 7.151,0 13.32,-3.723 14.745,-11.865 l -29.661,0 C -13.583,-3.329 -6.61,0 0,0 m -15.025,-17.306 36.579,0 c 0,17.409 -11.549,23.002 -21.628,23.002 -14.557,0 -21.633,-9.961 -21.633,-20.836 0,-11.448 7.257,-20.587 21.345,-20.587 13.436,0 18.864,6.069 21.378,14.259 l -6.533,0 c -1.625,-5.211 -6.107,-8.662 -14.845,-8.662 -9.103,0 -14.369,5.815 -14.663,12.824" /></g><g
         transform="translate(479.13287,174.06781)"
         id="g6188"><path
           inkscape:connector-curvature="0"
           id="path6190"
           style="fill:#282929;fill-opacity:1;fill-rule:nonzero;stroke:none"
           d="m 0,0 c 12.172,0 16.722,5.597 18.781,14.259 l -6.169,0 C 11.268,8.598 7.732,5.597 0,5.597 c -7.299,0 -10.442,2.639 -10.442,9.824 l 0,19.693 20.917,0 0,5.457 -20.917,0 0,9.851 -6.355,0 0,-35.936 C -16.797,4.728 -11.236,0 0,0" /></g><g
         transform="translate(373.21097,208.81381)"
         id="g6192"><path
           inkscape:connector-curvature="0"
           id="path6194"
           style="fill:#282929;fill-opacity:1;fill-rule:nonzero;stroke:none"
           d="m 0,0 0,5.815 -6.228,0 0,-39.805 6.282,0 0,21.885 c 0,8.097 4.377,13.085 14.64,13.085 6.893,0 12.095,-1.959 12.095,-9.758 l 0,-25.212 6.326,0 0,24.344 C 33.115,1.735 26.211,6.677 15.52,6.677 8.269,6.677 2.55,3.541 0,0" /></g><g
         transform="translate(306.53127,198.6957)"
         id="g6196"><path
           inkscape:connector-curvature="0"
           id="path6198"
           style="fill:#282929;fill-opacity:1;fill-rule:nonzero;stroke:none"
           d="m 0,0 6.504,0 c -1.053,6.472 -3.886,10.442 -7.771,13.084 -3.863,2.526 -8.594,3.711 -13.831,3.711 -14.542,0 -21.637,-9.961 -21.637,-20.778 0,-9.915 6.066,-20.645 21.637,-20.645 12.998,0 18.995,5.562 21.472,14.259 l -6.558,0 c -2.242,-5.481 -5.742,-8.662 -14.914,-8.662 -10.778,0 -15.03,7.298 -15.03,15.532 0,9.285 6.909,14.598 15.03,14.598 C -6.9,11.099 -1.733,7.916 0,0" /></g><g
         transform="translate(210.82617,209.06481)"
         id="g6200"><path
           inkscape:connector-curvature="0"
           id="path6202"
           style="fill:#282929;fill-opacity:1;fill-rule:nonzero;stroke:none"
           d="m 0,0 0,5.564 -6.36,0 0,-39.805 6.36,0 0,21.885 C 0,-4.223 3.704,0.582 13.762,0.582 l 0,5.844 C 6.314,6.426 2.13,3.323 0,0" /></g><g
         transform="translate(434.47367,174.06781)"
         id="g6204"><path
           inkscape:connector-curvature="0"
           id="path6206"
           style="fill:#282929;fill-opacity:1;fill-rule:nonzero;stroke:none"
           d="m 0,0 c 16.354,0 22.968,10.436 22.968,20.551 0,13.674 -9.643,20.872 -22.968,20.872 -14.123,0 -22.971,-8.844 -22.971,-20.872 C -22.971,11.45 -17.235,0 0.08,0 L 0,0 z m 0,35.727 c 10.873,0 16.724,-5.676 16.724,-15.176 C 16.724,12.748 11.342,5.597 0,5.597 c -11.959,0 -16.537,7.658 -16.537,14.954 0,9.5 6.791,15.176 16.617,15.176 l -0.08,0 z" /></g><g
         transform="translate(325.05567,192.4887)"
         id="g6208"><path
           inkscape:connector-curvature="0"
           id="path6210"
           style="fill:#282929;fill-opacity:1;fill-rule:nonzero;stroke:none"
           d="m 0,0 36.6,0 c 0,17.408 -11.625,23.002 -21.633,23.002 -14.553,0 -21.704,-9.961 -21.704,-20.836 0,-11.448 7.331,-20.587 21.345,-20.587 13.477,0 18.935,6.068 21.453,14.259 l -6.533,0 C 27.903,-9.373 23.357,-12.824 14.608,-12.824 5.58,-12.824 0.234,-7.01 0,0 m 14.967,17.306 c 7.228,0 13.336,-3.723 14.742,-11.866 l -29.656,0 c 1.409,8.537 8.382,11.866 14.914,11.866" /></g><g
         transform="translate(258.01467,180.3519)"
         id="g6212"><path
           inkscape:connector-curvature="0"
           id="path6214"
           style="fill:#282929;fill-opacity:1;fill-rule:nonzero;stroke:none"
           d="m 0,0 0,-5.528 6.364,0 0,28.574 c 0,7.694 -5.397,12.093 -18.364,12.093 -13.338,0 -17.889,-5.484 -18.976,-14.078 l 6.371,0 c 0.777,5.741 3.994,8.381 12.482,8.381 8.973,0 12.063,-2.278 12.063,-7.119 l 0,-4.341 -12.614,0 c -9.268,0 -19.767,-1.873 -19.767,-12.388 0,-8.956 8.671,-11.878 15.279,-11.878 6.37,0 13.108,1.118 17.162,6.284 m -0.06,12.533 0,-1.478 c 0,-8.742 -7.822,-11.743 -15.464,-11.743 -5.868,0 -10.361,1.556 -10.361,6.791 0,4.264 4.722,6.43 12.064,6.43 l 13.761,0 z" /></g><g
         transform="translate(190.31447,208.45061)"
         id="g6216"><path
           inkscape:connector-curvature="0"
           id="path6218"
           style="fill:#282929;fill-opacity:1;fill-rule:nonzero;stroke:none"
           d="m 0,0 c -4.002,4.986 -10.315,7.04 -16.495,7.04 -12.245,0 -22.79,-8.015 -22.79,-20.655 0,-13.908 10.789,-20.768 22.609,-20.768 6.248,0 12.674,1.774 16.676,6.826 l 0,-2.569 c 0,-9.895 -5.037,-13.584 -16.245,-13.584 -6.373,0 -13.105,1.226 -14.494,8.133 l -6.556,0 c 1.946,-11.665 12.009,-13.829 21.413,-13.829 13.581,0 22.182,4.935 22.182,20.585 l 0,35 -6.3,0 L 0,0 z m -16.676,1.344 c 10.121,0 16.912,-5.676 16.912,-14.959 0,-8.955 -6.298,-15.171 -16.912,-15.171 -9.885,0 -16.065,6.248 -16.065,15.171 0,9.25 7.036,14.959 16.065,14.959" /></g><g
         transform="translate(546.69437,179.64881)"
         id="g6220"><path
           inkscape:connector-curvature="0"
           id="path6222"
           style="fill:#282929;fill-opacity:1;fill-rule:nonzero;stroke:none"
           d="M 0,0 0.715,0 C 1.095,0 1.55,-0.049 1.55,-0.546 1.55,-1.088 1.174,-1.148 0.71,-1.148 L 0,-1.148 0,0 z m -0.765,-3.44 0.765,0 0,1.751 0.546,0 1.044,-1.751 0.794,0 -1.105,1.779 c 0.6,0.033 1.042,0.355 1.042,1.08 0,0.795 -0.535,1.141 -1.514,1.141 l -1.572,0 0,-4 z m -2.232,2.041 c 0,-2.199 1.741,-3.75 3.639,-3.75 1.956,0 3.654,1.551 3.654,3.75 0,2.264 -1.698,3.738 -3.654,3.738 -1.898,0 -3.639,-1.474 -3.639,-3.738 m 0.877,0 c 0,1.741 1.24,2.966 2.762,2.966 1.522,0 2.773,-1.225 2.773,-2.966 0,-1.676 -1.251,-2.903 -2.773,-2.903 -1.522,0 -2.762,1.227 -2.762,2.903" /></g><g
         transform="translate(131.48197,155.33831)"
         id="g6224"><path
           inkscape:connector-curvature="0"
           id="path6226"
           style="fill:#e1202d;fill-opacity:1;fill-rule:nonzero;stroke:none"
           d="m 0,0 c 0,-10.937 -20.737,-19.843 -46.311,-19.843 -25.575,0 -46.309,8.906 -46.309,19.843 0,10.935 20.734,19.844 46.309,19.844 C -20.737,19.844 0,10.935 0,0" /></g><g
         transform="translate(138.09377,238.0385)"
         id="g6228"><path
           inkscape:connector-curvature="0"
           id="path6230"
           style="fill:#e1202d;fill-opacity:1;fill-rule:nonzero;stroke:none"
           d="m 0,0 c 0,-29.268 -23.692,-52.923 -52.922,-52.923 -29.231,0 -52.923,23.655 -52.923,52.923 0,29.183 23.692,52.912 52.923,52.912 C -23.692,52.912 0,29.183 0,0" /></g><g
         transform="translate(151.32717,287.6595)"
         id="g6232"><path
           inkscape:connector-curvature="0"
           id="path6234"
           style="fill:#e1202d;fill-opacity:1;fill-rule:nonzero;stroke:none"
           d="m 0,0 c 0,-7.36 -5.916,-13.263 -13.226,-13.263 -7.305,0 -13.237,5.903 -13.237,13.263 0,7.275 5.932,13.269 13.237,13.269 C -5.916,13.269 0,7.275 0,0" /></g></g></g></svg>