<?xml version="1.0" encoding="UTF-8" standalone="no"?>
<!-- Created with Inkscape (http://www.inkscape.org/) -->

<svg
   xmlns:dc="http://purl.org/dc/elements/1.1/"
   xmlns:cc="http://creativecommons.org/ns#"
   xmlns:rdf="http://www.w3.org/1999/02/22-rdf-syntax-ns#"
   xmlns:svg="http://www.w3.org/2000/svg"
   xmlns="http://www.w3.org/2000/svg"
   xmlns:sodipodi="http://sodipodi.sourceforge.net/DTD/sodipodi-0.dtd"
   xmlns:inkscape="http://www.inkscape.org/namespaces/inkscape"
   id="svg4021"
   version="1.1"
   inkscape:version="0.48.2 r9819"
   width="1052.3625"
   height="744.09497"
   xml:space="preserve"
   sodipodi:docname="sat_dinner.svg"><metadata
     id="metadata4027"><rdf:RDF><cc:Work
         rdf:about=""><dc:format>image/svg+xml</dc:format><dc:type
           rdf:resource="http://purl.org/dc/dcmitype/StillImage" /><dc:title></dc:title></cc:Work></rdf:RDF></metadata><defs
     id="defs4025"><clipPath
       clipPathUnits="userSpaceOnUse"
       id="clipPath4037"><path
         d="m 0,595.276 841.89,0 L 841.89,0 0,0 0,595.276 z"
         id="path4039"
         inkscape:connector-curvature="0" /></clipPath><clipPath
       clipPathUnits="userSpaceOnUse"
       id="clipPath4053"><path
         d="m 0,595.276 841.89,0 L 841.89,0 0,0 0,595.276 z"
         id="path4055"
         inkscape:connector-curvature="0" /></clipPath><clipPath
       clipPathUnits="userSpaceOnUse"
       id="clipPath4147"><path
         d="m 22.595,0 790.872,0 0,594.275 -790.872,0 0,-594.275 z"
         id="path4149"
         inkscape:connector-curvature="0" /></clipPath><clipPath
       clipPathUnits="userSpaceOnUse"
       id="clipPath4488"><path
         inkscape:connector-curvature="0"
         d="m 0,595.276 841.89,0 L 841.89,0 0,0 0,595.276 z"
         id="path4490" /></clipPath><clipPath
       clipPathUnits="userSpaceOnUse"
       id="clipPath5856"><path
         inkscape:connector-curvature="0"
         d="m 0,0 841.89,0 0,595.275 L 0,595.275 0,0 z"
         id="path5858" /></clipPath><clipPath
       clipPathUnits="userSpaceOnUse"
       id="clipPath6622"><path
         inkscape:connector-curvature="0"
         d="m 0,595.276 841.89,0 L 841.89,0 0,0 0,595.276 z"
         id="path6624" /></clipPath><clipPath
       clipPathUnits="userSpaceOnUse"
       id="clipPath6899"><path
         inkscape:connector-curvature="0"
         d="m 320.905,172.182 212.629,0 0,212.608 -212.629,0 0,-212.608 z"
         id="path6901" /></clipPath></defs><sodipodi:namedview
     pagecolor="#ffffff"
     bordercolor="#666666"
     borderopacity="1"
     objecttolerance="10"
     gridtolerance="10"
     guidetolerance="10"
     inkscape:pageopacity="0"
     inkscape:pageshadow="2"
     inkscape:window-width="1920"
     inkscape:window-height="1138"
     id="namedview4023"
     showgrid="false"
     units="mm"
     inkscape:zoom="0.79555703"
     inkscape:cx="503.04131"
     inkscape:cy="479.45296"
     inkscape:window-x="1592"
     inkscape:window-y="-8"
     inkscape:window-maximized="1"
     inkscape:current-layer="g4029" /><g
     id="g4029"
     inkscape:groupmode="layer"
     inkscape:label="bags"
     transform="matrix(1.25,0,0,-1.25,0,744.09499)"><path
       d="m 0,452.61657 841.89,0 0,141.73228 -841.89,0 0,-141.73228 z"
       style="fill:#008fcc;fill-opacity:1;fill-rule:nonzero;stroke:none"
       id="path4031"
       inkscape:connector-curvature="0" /><path
       d="m 0.332,0 841.558,0 0,99.212598 -841.558,0 L 0.332,0 z"
       style="fill:#008ecb;fill-opacity:1;fill-rule:nonzero;stroke:none"
       id="path4047"
       inkscape:connector-curvature="0" /><g
       id="g4049"
       transform="translate(-0.37323047,20.8)"><g
         id="g4051"
         clip-path="url(#clipPath4053)"><g
           id="g4057"
           transform="translate(444.4277,46.5723)"><path
             d="m 0,0 c 0,1.445 -1.14,2.313 -2.891,2.313 l -3.618,0 0,-4.858 3.675,0 c 1.895,0 2.834,1.1 2.834,2.465 L 0,0 z m -0.002,-11.019 -3.612,5.238 -2.895,0 0,-5.238 -3.617,0 0,16.652 7.521,0 c 4.044,0 6.359,-2.164 6.359,-5.571 L 3.754,0 c 0,-2.602 -1.443,-4.336 -3.502,-5.203 l 4.074,-5.816 -4.328,0 z"
             style="fill:#ffffff;fill-opacity:1;fill-rule:nonzero;stroke:none"
             id="path4059"
             inkscape:connector-curvature="0" /></g><g
           id="g4061"
           transform="translate(450.2686,35.5537)"><path
             d="m 0,0 0,16.651 12.655,0 0,-3.32 -8.963,0 0,-3.379 7.813,0 0,-3.269 -7.813,0 0,-3.469 9.076,0 L 12.768,0 0,0 z"
             style="fill:#ffffff;fill-opacity:1;fill-rule:nonzero;stroke:none"
             id="path4063"
             inkscape:connector-curvature="0" /></g><g
           id="g4065"
           transform="translate(473.6006,42.2363)"><path
             d="m 0,0 0,-6.683 -3.739,0 0,6.496 -6.365,10.156 4.261,0 3.897,-6.789 4.083,6.789 4.237,0 L 0,0 z"
             style="fill:#ffffff;fill-opacity:1;fill-rule:nonzero;stroke:none"
             id="path4067"
             inkscape:connector-curvature="0" /></g><g
           id="g4069"
           transform="translate(491.8301,35.5537)"><path
             d="m 0,0 -5.203,6.972 -1.928,-2.023 0,-4.949 -3.574,0 0,16.651 3.574,0 0,-7.367 6.838,7.367 4.342,0 L -2.609,9.573 4.369,0 0,0 z"
             style="fill:#ffffff;fill-opacity:1;fill-rule:nonzero;stroke:none"
             id="path4071"
             inkscape:connector-curvature="0" /></g><g
           id="g4073"
           transform="translate(501.0801,35.2988)"><path
             d="m 0,0 c -2.604,0 -4.338,1.156 -5.494,2.445 l 2.312,2.542 c 0.983,-0.94 2.018,-1.558 3.18,-1.558 1.326,0 2.176,0.781 2.176,2.641 l 0,10.836 3.807,0 0,-10.869 C 5.981,1.95 3.471,0 0,0"
             style="fill:#ffffff;fill-opacity:1;fill-rule:nonzero;stroke:none"
             id="path4075"
             inkscape:connector-curvature="0" /></g><g
           id="g4077"
           transform="translate(516.3984,47.9707)"><path
             d="m 0,0 -2.313,-5.445 4.548,0 L 0,0 z m 4.989,-12.417 -1.52,3.738 -6.956,0 -1.683,-3.738 -3.735,0 7.171,16.8 3.468,0 7.229,-16.8 -3.974,0 z"
             style="fill:#ffffff;fill-opacity:1;fill-rule:nonzero;stroke:none"
             id="path4079"
             inkscape:connector-curvature="0" /></g><g
           id="g4081"
           transform="translate(532.8809,35.2988)"><path
             d="m 0,0 -3.194,0 -6.929,16.906 4.053,0 4.455,-11.703 4.439,11.703 3.821,0 L 0,0 z"
             style="fill:#ffffff;fill-opacity:1;fill-rule:nonzero;stroke:none"
             id="path4083"
             inkscape:connector-curvature="0" /></g><g
           id="g4085"
           transform="translate(541.5527,53.5098)"><path
             d="M 0,0 2.594,4.336 5.783,2.891 2.627,0 0,0 z m -0.302,-1.305 3.562,0 0,-16.651 -3.562,0 0,16.651 z"
             style="fill:#ffffff;fill-opacity:1;fill-rule:nonzero;stroke:none"
             id="path4087"
             inkscape:connector-curvature="0" /></g><g
           id="g4089"
           transform="translate(558.5996,35.5537)"><path
             d="m 0,0 -5.203,6.972 -1.879,-2.023 0,-4.949 -3.606,0 0,16.651 3.606,0 0,-7.367 6.805,7.367 4.336,0 L -2.592,9.573 4.419,0 0,0 z"
             style="fill:#ffffff;fill-opacity:1;fill-rule:nonzero;stroke:none"
             id="path4091"
             inkscape:connector-curvature="0" /></g><g
           id="g4093"
           transform="translate(570.7422,46.8613)"><path
             d="m 0,0 -2.588,2.035 c 1.731,2.301 3.395,3.46 6.356,3.46 3.468,0 5.781,-2.026 5.781,-5.155 0,-2.653 -1.457,-4.098 -4.371,-6.41 l -2.865,-2.064 7.317,0 0,-3.174 -12.282,0 0,2.925 5.543,4.485 c 2.033,1.695 2.888,2.678 2.888,3.957 0,1.386 -0.885,2.254 -2.31,2.254 C 2.285,2.313 1.369,1.537 0,0"
             style="fill:#ffffff;fill-opacity:1;fill-rule:nonzero;stroke:none"
             id="path4095"
             inkscape:connector-curvature="0" /></g><g
           id="g4097"
           transform="translate(589.2402,49.1738)"><path
             d="m 0,0 c -2.307,0 -3.65,-2.313 -3.65,-5.228 0,-3.155 1.485,-5.467 3.65,-5.467 2.313,0 3.771,2.312 3.771,5.332 C 3.771,-2.313 2.31,0 0,0 m 0,-13.904 c -4.427,0 -7.453,3.741 -7.453,8.541 0,4.802 3.127,8.678 7.453,8.678 4.6,0 7.516,-3.739 7.516,-8.543 0,-4.889 -3.05,-8.676 -7.516,-8.676"
             style="fill:#ffffff;fill-opacity:1;fill-rule:nonzero;stroke:none"
             id="path4099"
             inkscape:connector-curvature="0" /></g><g
           id="g4101"
           transform="translate(601.9648,52.3535)"><path
             d="m 0,0 2.609,0 0,-16.8 -3.672,0 0,13.042 -2.96,-0.694 -0.608,3.007 L 0,0 z"
             style="fill:#ffffff;fill-opacity:1;fill-rule:nonzero;stroke:none"
             id="path4103"
             inkscape:connector-curvature="0" /></g><g
           id="g4105"
           transform="translate(609.4766,46.8613)"><path
             d="m 0,0 -2.588,2.035 c 1.733,2.301 3.323,3.46 6.359,3.46 3.469,0 5.782,-2.026 5.782,-5.155 0,-2.653 -1.459,-4.098 -4.445,-6.41 l -2.795,-2.064 7.242,0 0,-3.174 -12.274,0 0,2.925 5.61,4.485 c 2.037,1.695 2.89,2.678 2.89,3.957 0,1.386 -0.953,2.254 -2.312,2.254 C 2.217,2.313 1.302,1.537 0,0"
             style="fill:#ffffff;fill-opacity:1;fill-rule:nonzero;stroke:none"
             id="path4107"
             inkscape:connector-curvature="0" /></g><g
           id="g4109"
           transform="translate(398.7588,42.5254)"><path
             d="M 0,0 4.403,0 2.295,5.401 0,0 z"
             style="fill:#ffffff;fill-opacity:1;fill-rule:nonzero;stroke:none"
             id="path4111"
             inkscape:connector-curvature="0" /></g><g
           id="g4113"
           transform="translate(383.8237,48.8848)"><path
             d="m 0,0 -2.766,0 0,-10.117 2.766,0 c 3.073,0 5.102,2.023 5.102,4.949 l 0,0.138 C 5.102,-2.023 3.073,0 0,0"
             style="fill:#ffffff;fill-opacity:1;fill-rule:nonzero;stroke:none"
             id="path4115"
             inkscape:connector-curvature="0" /></g><g
           id="g4117"
           transform="translate(333.2266,42.5254)"><path
             d="M 0,0 4.511,0 2.225,5.401 0,0 z"
             style="fill:#ffffff;fill-opacity:1;fill-rule:nonzero;stroke:none"
             id="path4119"
             inkscape:connector-curvature="0" /></g><g
           id="g4121"
           transform="translate(416.9688,42.2363)"><path
             d="m 0,0 0,-6.686 -3.617,0 0,6.476 -6.486,10.125 4.32,0 4.045,-6.735 4.047,6.735 4.122,0 L 0,0 z m -10.982,-6.686 -1.445,3.733 -7.077,0 -1.589,-3.733 -3.757,0 7.218,16.803 3.459,0 7.108,-16.803 -3.917,0 z m -22.163,0 -6.459,0 0,16.601 6.459,0 c 5.323,0 8.866,-3.556 8.866,-8.181 l 0,-0.116 c 0,-4.798 -3.543,-8.304 -8.866,-8.304 m -11.95,0 -5.2,6.975 -1.891,-2.023 0,-4.952 -3.622,0 0,16.601 3.622,0 0,-7.313 6.802,7.313 4.352,0 -6.678,-7.024 7,-9.577 -4.385,0 z m -19.367,-0.275 c -4.915,0 -8.597,3.781 -8.597,8.441 l 0,0.138 c 0,4.741 3.664,8.58 8.778,8.58 3.099,0 5.018,-0.948 6.505,-2.534 l -2.334,-2.75 c -1.191,1.156 -2.599,2.024 -4.231,2.024 -2.759,0 -4.783,-2.374 -4.783,-5.204 l 0,-0.116 c 0,-2.821 1.957,-5.341 4.783,-5.341 1.902,0 3.06,0.832 4.451,1.989 l 2.343,-2.313 c -1.727,-1.791 -3.725,-2.914 -6.915,-2.914 m -11.931,0.275 -1.614,3.733 -6.996,0 -1.51,-3.733 -3.742,0 7.078,16.803 3.398,0 7.216,-16.803 -3.83,0 z m -15.268,0 -3.725,0 0,6.686 -6.71,0 0,-6.686 -3.712,0 0,16.601 3.712,0 0,-6.546 6.71,0 0,6.546 3.725,0 0,-16.601 z M 9.187,15.32 l -119.359,0 c -2.026,0 -3.711,-1.734 -3.711,-3.757 l 0,-20.235 c 0,-2.024 1.685,-3.544 3.711,-3.544 l 119.359,0 c 2.037,0 3.542,1.52 3.542,3.544 l 0,20.235 c 0,2.023 -1.505,3.757 -3.542,3.757"
             style="fill:#ffffff;fill-opacity:1;fill-rule:nonzero;stroke:none"
             id="path4123"
             inkscape:connector-curvature="0" /></g><g
           id="g4125"
           transform="translate(246.7168,42.5879)"><path
             d="m 0,0 0,9.563 3.693,0 0,-9.336 c 0,-2.891 1.365,-4.231 3.578,-4.231 2.252,0 3.642,1.34 3.642,3.942 l 0,9.625 3.643,0 0,-9.336 c 0,-5.204 -2.795,-7.516 -7.328,-7.516 C 2.782,-7.289 0,-4.92 0,0"
             style="fill:#ffffff;fill-opacity:1;fill-rule:nonzero;stroke:none"
             id="path4127"
             inkscape:connector-curvature="0" /></g><g
           id="g4129"
           transform="translate(262.668,37.9004)"><path
             d="M 0,0 2.201,2.602 C 3.692,1.445 5.28,0.578 7.172,0.578 c 1.493,0 2.399,0.578 2.399,1.581 l 0,0.129 c 0,0.892 -0.562,1.35 -3.332,2.048 -3.39,0.867 -5.512,1.734 -5.512,5.203 0,2.891 2.391,4.914 5.814,4.914 2.412,0 4.506,-0.629 6.18,-2.023 L 10.859,9.544 c -1.469,1.151 -2.929,1.729 -4.337,1.729 -1.433,0 -2.2,-0.578 -2.2,-1.445 0,-1.156 0.756,-1.445 3.647,-2.312 3.358,-0.868 5.263,-2.024 5.263,-4.914 0,-3.469 -2.54,-5.204 -6.117,-5.204 C 4.563,-2.602 2.01,-1.734 0,0"
             style="fill:#ffffff;fill-opacity:1;fill-rule:nonzero;stroke:none"
             id="path4131"
             inkscape:connector-curvature="0" /></g><path
           d="m 278.118,52.151 3.616,0 0,-16.601 -3.616,0 0,16.601 z"
           style="fill:#ffffff;fill-opacity:1;fill-rule:nonzero;stroke:none"
           id="path4133"
           inkscape:connector-curvature="0" /><g
           id="g4135"
           transform="translate(283.9932,43.7168)"><path
             d="m 0,0 0,0.138 c 0,4.741 3.567,8.58 8.699,8.58 3.159,0 5.097,-0.948 6.616,-2.534 L 12.979,3.434 C 11.652,4.59 10.375,5.457 8.678,5.457 5.851,5.457 3.823,3.084 3.823,0.254 l 0,-0.116 c 0,-2.822 1.987,-5.341 4.855,-5.341 1.963,0 3.122,0.832 4.382,1.988 l 2.334,-2.312 C 13.687,-7.318 11.816,-8.441 8.612,-8.441 3.695,-8.441 0,-4.66 0,0"
             style="fill:#ffffff;fill-opacity:1;fill-rule:nonzero;stroke:none"
             id="path4137"
             inkscape:connector-curvature="0" /></g><g
           id="g4139"
           transform="translate(240.2339,52.1514)"><path
             d="M 0,0 -4.439,-7.024 -8.816,0 l -3.955,0 0,-14.54 -0.122,0 c -1.113,0 -2.013,-0.289 -2.67,-0.867 -0.734,-0.679 -1.066,-1.446 -1.066,-2.457 0,-0.982 0.287,-1.591 0.86,-2.169 0.579,-0.578 1.374,-0.866 2.343,-0.866 0.84,0 1.63,0.26 2.312,0.578 0.746,0.288 1.192,0.866 1.486,1.445 0.264,0.578 0.433,1.24 0.453,2.275 l 0.017,0 0,10.733 4.643,-6.938 0.076,0 4.76,6.972 0,-8.706 -0.117,0 c -1.07,0 -2.013,-0.289 -2.695,-0.867 -0.65,-0.679 -1.018,-1.446 -1.018,-2.457 0,-0.982 0.284,-1.591 0.855,-2.169 0.572,-0.578 1.349,-0.866 2.38,-0.866 0.802,0 1.563,0.26 2.311,0.578 0.673,0.288 1.193,0.866 1.484,1.445 0.272,0.578 0.374,1.24 0.397,2.275 l 0.005,0 L 3.923,0 0,0 z"
             style="fill:#ffffff;fill-opacity:1;fill-rule:nonzero;stroke:none"
             id="path4141"
             inkscape:connector-curvature="0" /></g></g></g><g
       id="g4450"
       transform="translate(16,-20.8)"><text
         transform="scale(1,-1)"
         sodipodi:linespacing="125%"
         id="text4423"
         y="-532.28625"
         x="27.924641"
         style="font-size:56px;font-style:normal;font-variant:normal;font-weight:normal;font-stretch:normal;text-align:start;line-height:125%;letter-spacing:0px;word-spacing:0px;writing-mode:lr-tb;text-anchor:start;fill:#000000;fill-opacity:1;stroke:none;font-family:PF Din Text Comp Pro Medium;-inkscape-font-specification:'PF Din Text Comp Pro Medium,'"
         xml:space="preserve"><tspan
           style="font-size:56px;font-style:normal;font-variant:normal;font-weight:normal;font-stretch:normal;text-align:start;line-height:125%;writing-mode:lr-tb;text-anchor:start;fill:#ffffff;fill-opacity:1;font-family:PF Din Text Comp Pro Medium;-inkscape-font-specification:'PF Din Text Comp Pro Medium,'"
           y="-532.28625"
           x="27.924641"
           id="tspan4425"
           sodipodi:role="line">THANK YOU</tspan></text>
<text
         transform="scale(1,-1)"
         sodipodi:linespacing="125%"
         id="text4423-9"
         y="-494.36627"
         x="26.137085"
         style="font-size:36px;font-style:oblique;font-variant:normal;font-weight:normal;font-stretch:normal;text-align:start;line-height:125%;letter-spacing:0px;word-spacing:0px;writing-mode:lr-tb;text-anchor:start;fill:#ffffff;fill-opacity:1;stroke:none;font-family:PF Din Text Comp Pro;-inkscape-font-specification:PF Din Text Comp Pro Oblique"
         xml:space="preserve"><tspan
           id="tspan4448"
           sodipodi:role="line"
           x="26.137085"
           y="-494.36627">FOR SPONSORING THE LUNCH</tspan></text>
</g><text
       xml:space="preserve"
       style="font-size:40px;font-style:normal;font-variant:normal;font-weight:normal;font-stretch:normal;line-height:125%;letter-spacing:0px;word-spacing:0px;fill:#000000;fill-opacity:1;stroke:none;font-family:PF Din Text Comp Pro;-inkscape-font-specification:PF Din Text Comp Pro"
       x="247.62524"
       y="384.59842"
       id="text4931"
       sodipodi:linespacing="125%"
       transform="matrix(0.8,0,0,-0.8,0,595.27599)"><tspan
         sodipodi:role="line"
         id="tspan4933"></tspan></text>
<g
       transform="translate(-6.2746305,-0.846226)"
       id="g6895"><g
         id="g6897"
         clip-path="url(#clipPath6899)"><g
           id="g6903"
           transform="translate(320.9053,177.2461)"><path
             inkscape:connector-curvature="0"
             d="m 0,0 c 0,-2.803 2.252,-5.064 5.051,-5.064 l 202.482,0 c 2.803,0 5.096,2.261 5.096,5.064 l 0,202.477 c 0,2.805 -2.293,5.067 -5.096,5.067 l -202.482,0 C 2.252,207.544 0,205.282 0,202.477 L 0,0 z"
             style="fill:#81b72e;fill-opacity:1;fill-rule:nonzero;stroke:none"
             id="path6905" /></g><path
           inkscape:connector-curvature="0"
           d="m 460.562,231.807 -1.943,0 0,-11.711 1.943,0 0,11.711 z m -13.057,0 -4.984,0 0,-11.711 4.984,0 0,11.711 z m 36.394,0.432 c 0.577,-1.465 0.817,-2.141 1.565,-4.273 0.629,2.076 0.859,2.739 1.33,4.151 -0.744,0.369 -1.316,1.045 -1.553,1.885 -0.166,-0.777 -0.64,-1.397 -1.342,-1.763 m -65.07,-4.638 c 1.08,0.976 1.705,2.899 1.807,5.249 0.066,2.563 -0.414,4.558 -1.344,5.556 -0.354,0.365 -0.965,0.856 -2.295,0.913 -3.503,0.121 -3.918,-4.813 -3.966,-6.298 -0.075,-2.312 0.427,-4.244 1.406,-5.299 0.589,-0.607 1.282,-0.906 2.175,-0.917 0.883,-0.035 1.616,0.238 2.217,0.796 m -27.103,-7.936 c 2.256,0 3.404,2.13 3.404,6.288 0,1.892 -0.333,6.231 -3.184,6.231 -1.019,0 -1.83,-0.433 -2.517,-1.288 -0.818,-1.098 -1.26,-2.751 -1.26,-4.639 0,-3.174 0.92,-6.592 3.557,-6.592 m -14.967,12.086 -3.369,0 c 1.359,-0.786 2.468,-1.709 3.369,-2.804 0.016,3.223 0,1.095 0,2.804 m -12.135,-13.997 c 1.429,0 3.781,0.325 3.781,2.522 0,1.281 -0.796,1.953 -5.575,2.442 -2.17,0.188 -4.077,0.419 -6.005,1.032 0.344,-0.24 0.647,-0.484 0.848,-0.844 l 0.109,-0.136 c 1.614,-2.738 3.253,-5.016 6.842,-5.016 m 3.41,15.908 c -0.594,1.263 -0.82,1.561 -1.222,1.995 -1.217,1.247 -2.75,1.953 -4.297,1.953 -2.227,0 -3.596,-1.036 -3.596,-1.768 0,-0.307 0.328,-0.492 0.6,-0.617 0.854,-0.412 1.756,-0.627 4.525,-0.954 1.674,-0.201 2.889,-0.375 3.99,-0.609 m 138.647,5.169 0,-3.977 c 0,-1.694 -1.416,-3.103 -3.039,-3.103 l -5.954,0 c -1.128,-3.541 -8.207,-24.864 -8.207,-24.864 -1.722,-4.991 -5.513,-5.654 -9.015,-5.654 l -3.664,0 c -1.694,0 -3.043,1.342 -3.043,3.001 l 0,4.26 c 0,0.796 0.435,1.582 0.978,2.138 0.594,0.557 1.451,0.893 2.278,0.889 l 1.631,-0.005 0.738,0.021 c 0.232,0 0.353,0.004 0.474,0.006 0.09,0.137 0.135,0.377 0.252,0.734 0.002,0.01 0.012,0.121 0.092,0.187 -0.599,1.53 -6.185,16.179 -7.314,19.287 l -1.211,0 0,-11.651 0.224,0 c 1.623,0 2.996,-1.35 2.996,-2.997 l 0,-4.117 c 0,-1.681 -1.373,-3.031 -2.996,-3.031 l -30.055,0 c -6.513,0 -10.351,3.549 -10.351,9.682 l 0,8.638 0,0.002 c -0.828,-3.118 -2.344,-5.803 -4.508,-7.873 -2.902,-2.692 -6.607,-4.034 -10.838,-3.913 -4.037,0.124 -7.466,1.687 -10.015,4.274 -1.606,-6.836 -6.532,-11.406 -12.84,-11.406 -0.776,0 -1.486,0.052 -2.172,0.175 0.096,-0.244 0.164,-0.488 0.164,-0.732 l 0,-4.109 c 0,-1.689 -1.367,-3.037 -3.018,-3.037 l -11.248,0 c -1.666,0 -3.015,1.348 -3.015,3.037 l 0,4.597 c -2.309,-1.588 -5.113,-2.493 -8.274,-2.493 -3.302,0 -5.772,0.905 -7.791,2.18 -0.171,-0.664 -0.523,-1.396 -1.142,-2.075 -0.681,-0.722 -1.881,-1.572 -3.853,-1.572 -1.953,0 -3.14,0.848 -3.819,1.57 -1.426,1.485 -1.376,3.424 -1.361,3.789 0,-0.057 -0.002,-0.117 -0.002,-0.178 l 0,10.863 c 0,1.657 1.351,3.053 3.021,3.053 l 4.305,0 c 0.004,0 0.006,-0.031 0.006,-0.031 -1.227,0.521 -2.68,1.319 -3.772,2.526 -2.205,2.33 -3.426,5.383 -3.426,8.612 0,3.541 1.469,6.834 4.153,9.158 2.566,2.317 6.096,3.538 9.881,3.538 2.734,0 4.902,-0.73 6.669,-1.65 0.544,0.604 1.319,0.977 2.215,0.977 l 4.295,0 c 1.665,0 3.019,-1.346 3.019,-3.037 l 0,-2.598 7.017,0 c 0.843,0 1.582,-0.344 2.162,-0.892 1.588,0.855 3.531,1.463 6.007,1.463 3.605,0 6.707,-1.417 9.024,-3.906 1.989,6.836 7.713,11.257 14.949,11.03 5.801,-0.167 10.328,-3.053 12.775,-7.695 l 1.432,0 0,4.539 c 0,1.668 1.35,3.039 2.991,3.039 l 5.048,0 c 1.639,0 2.987,-1.371 2.987,-3.039 l 0,-4.539 4.984,0 0,4.539 c 0,1.668 1.348,3.039 3.041,3.039 l 5.029,0 c 1.696,0 3.043,-1.371 3.043,-3.039 l 0,-4.539 1.944,0 0,2.576 c 0,3.366 1.562,5.196 2.824,6.115 1.666,1.159 3.789,1.713 6.836,1.713 l 3.754,0 c 1.625,0 2.972,-1.349 2.972,-2.997 l 0,-4.028 c 0,-1.66 -1.347,-3.028 -2.972,-3.028 l -2.299,0 0,-0.351 10.732,0 c 1.363,0 2.485,-0.961 2.832,-2.236 0.363,1.275 1.471,2.236 2.906,2.236 l 15.495,0 c 1.623,0 3.039,-1.383 3.039,-3.091"
           style="fill:#589131;fill-opacity:1;fill-rule:nonzero;stroke:none"
           id="path6907" /><g
           id="g6909"
           transform="translate(355.0889,221.374)"><path
             inkscape:connector-curvature="0"
             d="m 0,0 c 1.386,-2.374 3.797,-6.655 9.535,-6.655 4.151,0 6.82,2.166 6.82,5.557 0,4.639 -4.986,5.127 -8.296,5.433 C 5.603,4.579 3.797,4.762 2.078,5.44 1.049,5.859 -0.547,6.521 -1.566,7.626 c -1.62,1.721 -2.584,4.039 -2.584,6.534 0,5.53 4.658,9.671 10.994,9.671 4.496,0 7.084,-2.41 8.882,-4.055 l 0,3.377 4.295,0 0,-9.725 -4.259,0 c -0.731,1.588 -1.106,2.143 -1.863,2.983 -1.803,1.832 -4.12,2.828 -6.473,2.828 -3.762,0 -6.609,-2.078 -6.609,-4.771 0,-1.457 0.866,-2.692 2.361,-3.359 1.238,-0.61 2.449,-0.855 5.452,-1.22 3.032,-0.343 4.327,-0.611 6.217,-1.265 5.436,-1.859 6.872,-6.548 6.872,-9.437 0,-6.196 -4.706,-10.721 -11.076,-10.721 -5.389,0 -8.001,2.902 -10.62,5.675 l 0,-5.004 c 0,0 0.138,-2.14 -2.167,-2.14 -2.269,0 -2.161,2.14 -2.161,2.14 L -4.305,0 0,0 z"
             style="fill:#ffffff;fill-opacity:1;fill-rule:nonzero;stroke:none"
             id="path6911" /></g><g
           id="g6913"
           transform="translate(391.7256,216.6543)"><path
             inkscape:connector-curvature="0"
             d="m 0,0 c 4.127,0 6.431,3.318 6.431,9.299 0,5.798 -2.304,9.271 -6.21,9.271 C -3.797,18.57 -6.6,14.853 -6.6,9.603 -6.6,3.691 -4.006,0 0,0 m -6.578,18.515 c 2.055,2.685 4.258,4.296 8.168,4.296 6.12,0 10.373,-5.586 10.373,-13.643 0,-7.773 -4.393,-13.42 -10.395,-13.42 -4.636,0 -6.691,2.503 -8.146,4.279 l 0,-7.88 3.12,0 0,-4.112 -11.248,0 0,4.112 3.095,0 0,26 -3.095,0 0,4.087 8.128,0 0,-3.719 z"
             style="fill:#ffffff;fill-opacity:1;fill-rule:nonzero;stroke:none"
             id="path6915" /></g><g
           id="g6917"
           transform="translate(423.6396,232.7656)"><path
             inkscape:connector-curvature="0"
             d="m 0,0 c 0.191,5.942 -2.139,9.426 -6.531,9.598 -4.179,0.13 -6.94,-3.471 -7.094,-9.27 -0.215,-5.493 2.338,-9.155 6.486,-9.332 C -2.962,-9.131 -0.178,-5.653 0,0 m -19.016,0.896 c 0.262,7.782 5.494,13.159 12.588,12.92 7.33,-0.24 12.104,-5.797 11.854,-13.798 -0.254,-8.113 -5.479,-13.484 -12.805,-13.24 -7.195,0.244 -11.933,5.981 -11.637,14.118"
             style="fill:#ffffff;fill-opacity:1;fill-rule:nonzero;stroke:none"
             id="path6919" /></g><g
           id="g6921"
           transform="translate(434.4863,246.459)"><path
             inkscape:connector-curvature="0"
             d="m 0,0 5.048,0 0,-7.57 5.773,0 0,-4.087 -5.773,0 0,-14.921 c 0,-3.267 2.601,-2.778 5.773,-2.778 l 0,-4.218 -3.462,0 C 2.993,-33.574 0,-31.73 0,-26.799 l 0,15.142 -3.317,0 c 0,0 -0.037,1.038 -0.184,1.993 -0.182,0.937 -0.457,2.094 -0.457,2.094 L 0,-7.57 0,0 z"
             style="fill:#ffffff;fill-opacity:1;fill-rule:nonzero;stroke:none"
             id="path6923" /></g><g
           id="g6925"
           transform="translate(447.501,238.8887)"><path
             inkscape:connector-curvature="0"
             d="m 0,0 8.074,0 0,-21.786 2.916,0 0,-4.112 -11.082,0 0,4.112 3.137,0 0,17.737 L 0,-4.049 0,0 z"
             style="fill:#ffffff;fill-opacity:1;fill-rule:nonzero;stroke:none"
             id="path6927" /></g><path
           inkscape:connector-curvature="0"
           d="m 450.546,246.461 5.031,0 0,-4.523 -5.031,0 0,4.523 z"
           style="fill:#ffffff;fill-opacity:1;fill-rule:nonzero;stroke:none"
           id="path6929" /><g
           id="g6931"
           transform="translate(468.6318,234.8018)"><path
             inkscape:connector-curvature="0"
             d="m 0,0 0,-17.699 3.27,0 0,-4.122 -11.327,0 0,4.122 3.028,0 0,17.699 -4.1,0 0,4.087 4.1,0 0,5.609 c 0,3.367 1.984,4.831 6.619,4.831 l 3.754,0 0,-4.028 -2.938,0 C 0.6,10.499 0,9.933 0,8.301 l 0,-4.214 13.777,0 0,-4.087 -2.632,0 5.832,-16.308 5.209,16.308 -2.67,0 0,4.087 9.777,0 0,-4.087 -2.43,0 -8.916,-26.927 c -0.97,-2.802 -2.562,-3.64 -6.113,-3.64 l -3.664,0 0,4.259 c 0.746,-0.059 1.963,0 2.582,0 2.297,0 2.891,0.485 3.643,2.883 l 0.353,1.208 L 6.338,0 0,0 z"
             style="fill:#ffffff;fill-opacity:1;fill-rule:nonzero;stroke:none"
             id="path6933" /></g><g
           id="g6935"
           transform="translate(425.9404,251.5742)"><path
             inkscape:connector-curvature="0"
             d="m 0,0 c -3.728,2.271 -8.437,2.824 -13.846,1.592 -0.486,-0.115 -0.819,-0.6 -0.699,-1.084 0.109,-0.471 0.596,-0.762 1.078,-0.678 4.992,1.156 9.184,0.68 12.563,-1.343 C -0.516,-1.757 0.07,-1.636 0.32,-1.225 0.568,-0.783 0.443,-0.271 0,0"
             style="fill:#589131;fill-opacity:1;fill-rule:nonzero;stroke:none"
             id="path6937" /></g><g
           id="g6939"
           transform="translate(427.6182,255.7578)"><path
             inkscape:connector-curvature="0"
             d="m 0,0 c -4.4,2.726 -10.861,3.463 -16.016,1.908 -0.599,-0.159 -0.951,-0.81 -0.74,-1.38 0.151,-0.61 0.768,-0.926 1.367,-0.732 4.528,1.343 10.385,0.673 14.255,-1.708 0.511,-0.305 1.202,-0.122 1.501,0.369 C 0.713,-1 0.519,-0.326 0,0"
             style="fill:#4c7d2f;fill-opacity:1;fill-rule:nonzero;stroke:none"
             id="path6941" /></g><g
           id="g6943"
           transform="translate(429.5361,260.6309)"><path
             inkscape:connector-curvature="0"
             d="m 0,0 c -5.336,3.158 -13.715,3.468 -18.768,1.93 -0.718,-0.229 -1.099,-0.969 -0.869,-1.688 0.202,-0.68 0.963,-1.101 1.659,-0.875 4.375,1.336 12.001,1.076 16.562,-1.637 0.689,-0.368 1.459,-0.185 1.842,0.436 C 0.83,-1.171 0.625,-0.373 0,0"
             style="fill:#406a2c;fill-opacity:1;fill-rule:nonzero;stroke:none"
             id="path6945" /></g><g
           id="g6947"
           transform="translate(499.6455,236.7051)"><path
             inkscape:connector-curvature="0"
             d="m 0,0 c 0,-1.292 1.082,-2.334 2.402,-2.334 1.256,0 2.334,1.042 2.334,2.334 0,1.311 -1.078,2.37 -2.334,2.37 C 1.082,2.37 0,1.311 0,0 m 5.213,0 c 0,-1.536 -1.307,-2.813 -2.811,-2.813 -1.572,0 -2.881,1.277 -2.881,2.813 0,1.57 1.309,2.818 2.881,2.818 C 3.906,2.818 5.213,1.57 5.213,0"
             style="fill:#ffffff;fill-opacity:1;fill-rule:nonzero;stroke:none"
             id="path6949" /></g><g
           id="g6951"
           transform="translate(501.9307,236.8779)"><path
             inkscape:connector-curvature="0"
             d="m 0,0 -0.604,0 0,0.915 0.516,0 c 0.598,0 0.82,-0.119 0.82,-0.427 C 0.732,0.132 0.5,0 0,0 M 1.096,-1.099 C 0.754,-0.61 0.625,-0.446 0.377,-0.364 0.891,-0.276 1.236,0.05 1.236,0.542 1.236,0.804 1.012,1.099 0.754,1.221 0.602,1.3 0.389,1.342 -0.088,1.342 l -1.006,0 0,-3.051 0.49,0 0,1.286 0.264,0 c 0.367,0 0.496,-0.121 0.942,-0.798 l 0.257,-0.488 0.604,0 -0.367,0.61 z"
             style="fill:#ffffff;fill-opacity:1;fill-rule:nonzero;stroke:none"
             id="path6953" /></g></g></g></g></svg>