<?xml version="1.0" encoding="UTF-8" standalone="no"?>
<!-- Created with Inkscape (http://www.inkscape.org/) -->

<svg
   xmlns:dc="http://purl.org/dc/elements/1.1/"
   xmlns:cc="http://creativecommons.org/ns#"
   xmlns:rdf="http://www.w3.org/1999/02/22-rdf-syntax-ns#"
   xmlns:svg="http://www.w3.org/2000/svg"
   xmlns="http://www.w3.org/2000/svg"
   xmlns:sodipodi="http://sodipodi.sourceforge.net/DTD/sodipodi-0.dtd"
   xmlns:inkscape="http://www.inkscape.org/namespaces/inkscape"
   id="svg4021"
   version="1.1"
   inkscape:version="0.48.2 r9819"
   width="1052.3625"
   height="744.09497"
   xml:space="preserve"
   sodipodi:docname="snacks_01.svg"><metadata
     id="metadata4027"><rdf:RDF><cc:Work
         rdf:about=""><dc:format>image/svg+xml</dc:format><dc:type
           rdf:resource="http://purl.org/dc/dcmitype/StillImage" /><dc:title></dc:title></cc:Work></rdf:RDF></metadata><defs
     id="defs4025"><clipPath
       clipPathUnits="userSpaceOnUse"
       id="clipPath4037"><path
         d="m 0,595.276 841.89,0 L 841.89,0 0,0 0,595.276 z"
         id="path4039"
         inkscape:connector-curvature="0" /></clipPath><clipPath
       clipPathUnits="userSpaceOnUse"
       id="clipPath4053"><path
         d="m 0,595.276 841.89,0 L 841.89,0 0,0 0,595.276 z"
         id="path4055"
         inkscape:connector-curvature="0" /></clipPath><clipPath
       clipPathUnits="userSpaceOnUse"
       id="clipPath4147"><path
         d="m 22.595,0 790.872,0 0,594.275 -790.872,0 0,-594.275 z"
         id="path4149"
         inkscape:connector-curvature="0" /></clipPath><clipPath
       clipPathUnits="userSpaceOnUse"
       id="clipPath4488"><path
         inkscape:connector-curvature="0"
         d="m 0,595.276 841.89,0 L 841.89,0 0,0 0,595.276 z"
         id="path4490" /></clipPath><clipPath
       clipPathUnits="userSpaceOnUse"
       id="clipPath5856"><path
         inkscape:connector-curvature="0"
         d="m 0,0 841.89,0 0,595.275 L 0,595.275 0,0 z"
         id="path5858" /></clipPath><clipPath
       clipPathUnits="userSpaceOnUse"
       id="clipPath6622"><path
         inkscape:connector-curvature="0"
         d="m 0,595.276 841.89,0 L 841.89,0 0,0 0,595.276 z"
         id="path6624" /></clipPath><clipPath
       clipPathUnits="userSpaceOnUse"
       id="clipPath6899"><path
         inkscape:connector-curvature="0"
         d="m 320.905,172.182 212.629,0 0,212.608 -212.629,0 0,-212.608 z"
         id="path6901" /></clipPath><clipPath
       clipPathUnits="userSpaceOnUse"
       id="clipPath7186"><path
         inkscape:connector-curvature="0"
         d="m 0,595.276 841.89,0 L 841.89,0 0,0 0,595.276 z"
         id="path7188" /></clipPath><clipPath
       clipPathUnits="userSpaceOnUse"
       id="clipPath7433"><path
         inkscape:connector-curvature="0"
         d="m 0,595.276 841.89,0 L 841.89,0 0,0 0,595.276 z"
         id="path7435" /></clipPath></defs><sodipodi:namedview
     pagecolor="#ffffff"
     bordercolor="#666666"
     borderopacity="1"
     objecttolerance="10"
     gridtolerance="10"
     guidetolerance="10"
     inkscape:pageopacity="0"
     inkscape:pageshadow="2"
     inkscape:window-width="1920"
     inkscape:window-height="1138"
     id="namedview4023"
     showgrid="false"
     units="mm"
     inkscape:zoom="0.79555703"
     inkscape:cx="503.04131"
     inkscape:cy="479.45296"
     inkscape:window-x="1592"
     inkscape:window-y="-8"
     inkscape:window-maximized="1"
     inkscape:current-layer="g4029" /><g
     id="g4029"
     inkscape:groupmode="layer"
     inkscape:label="bags"
     transform="matrix(1.25,0,0,-1.25,0,744.09499)"><path
       d="m 0,452.61657 841.89,0 0,141.73228 -841.89,0 0,-141.73228 z"
       style="fill:#008fcc;fill-opacity:1;fill-rule:nonzero;stroke:none"
       id="path4031"
       inkscape:connector-curvature="0" /><path
       d="m 0.332,0 841.558,0 0,99.212598 -841.558,0 L 0.332,0 z"
       style="fill:#008ecb;fill-opacity:1;fill-rule:nonzero;stroke:none"
       id="path4047"
       inkscape:connector-curvature="0" /><g
       id="g4049"
       transform="translate(-0.37323047,20.8)"><g
         id="g4051"
         clip-path="url(#clipPath4053)"><g
           id="g4057"
           transform="translate(444.4277,46.5723)"><path
             d="m 0,0 c 0,1.445 -1.14,2.313 -2.891,2.313 l -3.618,0 0,-4.858 3.675,0 c 1.895,0 2.834,1.1 2.834,2.465 L 0,0 z m -0.002,-11.019 -3.612,5.238 -2.895,0 0,-5.238 -3.617,0 0,16.652 7.521,0 c 4.044,0 6.359,-2.164 6.359,-5.571 L 3.754,0 c 0,-2.602 -1.443,-4.336 -3.502,-5.203 l 4.074,-5.816 -4.328,0 z"
             style="fill:#ffffff;fill-opacity:1;fill-rule:nonzero;stroke:none"
             id="path4059"
             inkscape:connector-curvature="0" /></g><g
           id="g4061"
           transform="translate(450.2686,35.5537)"><path
             d="m 0,0 0,16.651 12.655,0 0,-3.32 -8.963,0 0,-3.379 7.813,0 0,-3.269 -7.813,0 0,-3.469 9.076,0 L 12.768,0 0,0 z"
             style="fill:#ffffff;fill-opacity:1;fill-rule:nonzero;stroke:none"
             id="path4063"
             inkscape:connector-curvature="0" /></g><g
           id="g4065"
           transform="translate(473.6006,42.2363)"><path
             d="m 0,0 0,-6.683 -3.739,0 0,6.496 -6.365,10.156 4.261,0 3.897,-6.789 4.083,6.789 4.237,0 L 0,0 z"
             style="fill:#ffffff;fill-opacity:1;fill-rule:nonzero;stroke:none"
             id="path4067"
             inkscape:connector-curvature="0" /></g><g
           id="g4069"
           transform="translate(491.8301,35.5537)"><path
             d="m 0,0 -5.203,6.972 -1.928,-2.023 0,-4.949 -3.574,0 0,16.651 3.574,0 0,-7.367 6.838,7.367 4.342,0 L -2.609,9.573 4.369,0 0,0 z"
             style="fill:#ffffff;fill-opacity:1;fill-rule:nonzero;stroke:none"
             id="path4071"
             inkscape:connector-curvature="0" /></g><g
           id="g4073"
           transform="translate(501.0801,35.2988)"><path
             d="m 0,0 c -2.604,0 -4.338,1.156 -5.494,2.445 l 2.312,2.542 c 0.983,-0.94 2.018,-1.558 3.18,-1.558 1.326,0 2.176,0.781 2.176,2.641 l 0,10.836 3.807,0 0,-10.869 C 5.981,1.95 3.471,0 0,0"
             style="fill:#ffffff;fill-opacity:1;fill-rule:nonzero;stroke:none"
             id="path4075"
             inkscape:connector-curvature="0" /></g><g
           id="g4077"
           transform="translate(516.3984,47.9707)"><path
             d="m 0,0 -2.313,-5.445 4.548,0 L 0,0 z m 4.989,-12.417 -1.52,3.738 -6.956,0 -1.683,-3.738 -3.735,0 7.171,16.8 3.468,0 7.229,-16.8 -3.974,0 z"
             style="fill:#ffffff;fill-opacity:1;fill-rule:nonzero;stroke:none"
             id="path4079"
             inkscape:connector-curvature="0" /></g><g
           id="g4081"
           transform="translate(532.8809,35.2988)"><path
             d="m 0,0 -3.194,0 -6.929,16.906 4.053,0 4.455,-11.703 4.439,11.703 3.821,0 L 0,0 z"
             style="fill:#ffffff;fill-opacity:1;fill-rule:nonzero;stroke:none"
             id="path4083"
             inkscape:connector-curvature="0" /></g><g
           id="g4085"
           transform="translate(541.5527,53.5098)"><path
             d="M 0,0 2.594,4.336 5.783,2.891 2.627,0 0,0 z m -0.302,-1.305 3.562,0 0,-16.651 -3.562,0 0,16.651 z"
             style="fill:#ffffff;fill-opacity:1;fill-rule:nonzero;stroke:none"
             id="path4087"
             inkscape:connector-curvature="0" /></g><g
           id="g4089"
           transform="translate(558.5996,35.5537)"><path
             d="m 0,0 -5.203,6.972 -1.879,-2.023 0,-4.949 -3.606,0 0,16.651 3.606,0 0,-7.367 6.805,7.367 4.336,0 L -2.592,9.573 4.419,0 0,0 z"
             style="fill:#ffffff;fill-opacity:1;fill-rule:nonzero;stroke:none"
             id="path4091"
             inkscape:connector-curvature="0" /></g><g
           id="g4093"
           transform="translate(570.7422,46.8613)"><path
             d="m 0,0 -2.588,2.035 c 1.731,2.301 3.395,3.46 6.356,3.46 3.468,0 5.781,-2.026 5.781,-5.155 0,-2.653 -1.457,-4.098 -4.371,-6.41 l -2.865,-2.064 7.317,0 0,-3.174 -12.282,0 0,2.925 5.543,4.485 c 2.033,1.695 2.888,2.678 2.888,3.957 0,1.386 -0.885,2.254 -2.31,2.254 C 2.285,2.313 1.369,1.537 0,0"
             style="fill:#ffffff;fill-opacity:1;fill-rule:nonzero;stroke:none"
             id="path4095"
             inkscape:connector-curvature="0" /></g><g
           id="g4097"
           transform="translate(589.2402,49.1738)"><path
             d="m 0,0 c -2.307,0 -3.65,-2.313 -3.65,-5.228 0,-3.155 1.485,-5.467 3.65,-5.467 2.313,0 3.771,2.312 3.771,5.332 C 3.771,-2.313 2.31,0 0,0 m 0,-13.904 c -4.427,0 -7.453,3.741 -7.453,8.541 0,4.802 3.127,8.678 7.453,8.678 4.6,0 7.516,-3.739 7.516,-8.543 0,-4.889 -3.05,-8.676 -7.516,-8.676"
             style="fill:#ffffff;fill-opacity:1;fill-rule:nonzero;stroke:none"
             id="path4099"
             inkscape:connector-curvature="0" /></g><g
           id="g4101"
           transform="translate(601.9648,52.3535)"><path
             d="m 0,0 2.609,0 0,-16.8 -3.672,0 0,13.042 -2.96,-0.694 -0.608,3.007 L 0,0 z"
             style="fill:#ffffff;fill-opacity:1;fill-rule:nonzero;stroke:none"
             id="path4103"
             inkscape:connector-curvature="0" /></g><g
           id="g4105"
           transform="translate(609.4766,46.8613)"><path
             d="m 0,0 -2.588,2.035 c 1.733,2.301 3.323,3.46 6.359,3.46 3.469,0 5.782,-2.026 5.782,-5.155 0,-2.653 -1.459,-4.098 -4.445,-6.41 l -2.795,-2.064 7.242,0 0,-3.174 -12.274,0 0,2.925 5.61,4.485 c 2.037,1.695 2.89,2.678 2.89,3.957 0,1.386 -0.953,2.254 -2.312,2.254 C 2.217,2.313 1.302,1.537 0,0"
             style="fill:#ffffff;fill-opacity:1;fill-rule:nonzero;stroke:none"
             id="path4107"
             inkscape:connector-curvature="0" /></g><g
           id="g4109"
           transform="translate(398.7588,42.5254)"><path
             d="M 0,0 4.403,0 2.295,5.401 0,0 z"
             style="fill:#ffffff;fill-opacity:1;fill-rule:nonzero;stroke:none"
             id="path4111"
             inkscape:connector-curvature="0" /></g><g
           id="g4113"
           transform="translate(383.8237,48.8848)"><path
             d="m 0,0 -2.766,0 0,-10.117 2.766,0 c 3.073,0 5.102,2.023 5.102,4.949 l 0,0.138 C 5.102,-2.023 3.073,0 0,0"
             style="fill:#ffffff;fill-opacity:1;fill-rule:nonzero;stroke:none"
             id="path4115"
             inkscape:connector-curvature="0" /></g><g
           id="g4117"
           transform="translate(333.2266,42.5254)"><path
             d="M 0,0 4.511,0 2.225,5.401 0,0 z"
             style="fill:#ffffff;fill-opacity:1;fill-rule:nonzero;stroke:none"
             id="path4119"
             inkscape:connector-curvature="0" /></g><g
           id="g4121"
           transform="translate(416.9688,42.2363)"><path
             d="m 0,0 0,-6.686 -3.617,0 0,6.476 -6.486,10.125 4.32,0 4.045,-6.735 4.047,6.735 4.122,0 L 0,0 z m -10.982,-6.686 -1.445,3.733 -7.077,0 -1.589,-3.733 -3.757,0 7.218,16.803 3.459,0 7.108,-16.803 -3.917,0 z m -22.163,0 -6.459,0 0,16.601 6.459,0 c 5.323,0 8.866,-3.556 8.866,-8.181 l 0,-0.116 c 0,-4.798 -3.543,-8.304 -8.866,-8.304 m -11.95,0 -5.2,6.975 -1.891,-2.023 0,-4.952 -3.622,0 0,16.601 3.622,0 0,-7.313 6.802,7.313 4.352,0 -6.678,-7.024 7,-9.577 -4.385,0 z m -19.367,-0.275 c -4.915,0 -8.597,3.781 -8.597,8.441 l 0,0.138 c 0,4.741 3.664,8.58 8.778,8.58 3.099,0 5.018,-0.948 6.505,-2.534 l -2.334,-2.75 c -1.191,1.156 -2.599,2.024 -4.231,2.024 -2.759,0 -4.783,-2.374 -4.783,-5.204 l 0,-0.116 c 0,-2.821 1.957,-5.341 4.783,-5.341 1.902,0 3.06,0.832 4.451,1.989 l 2.343,-2.313 c -1.727,-1.791 -3.725,-2.914 -6.915,-2.914 m -11.931,0.275 -1.614,3.733 -6.996,0 -1.51,-3.733 -3.742,0 7.078,16.803 3.398,0 7.216,-16.803 -3.83,0 z m -15.268,0 -3.725,0 0,6.686 -6.71,0 0,-6.686 -3.712,0 0,16.601 3.712,0 0,-6.546 6.71,0 0,6.546 3.725,0 0,-16.601 z M 9.187,15.32 l -119.359,0 c -2.026,0 -3.711,-1.734 -3.711,-3.757 l 0,-20.235 c 0,-2.024 1.685,-3.544 3.711,-3.544 l 119.359,0 c 2.037,0 3.542,1.52 3.542,3.544 l 0,20.235 c 0,2.023 -1.505,3.757 -3.542,3.757"
             style="fill:#ffffff;fill-opacity:1;fill-rule:nonzero;stroke:none"
             id="path4123"
             inkscape:connector-curvature="0" /></g><g
           id="g4125"
           transform="translate(246.7168,42.5879)"><path
             d="m 0,0 0,9.563 3.693,0 0,-9.336 c 0,-2.891 1.365,-4.231 3.578,-4.231 2.252,0 3.642,1.34 3.642,3.942 l 0,9.625 3.643,0 0,-9.336 c 0,-5.204 -2.795,-7.516 -7.328,-7.516 C 2.782,-7.289 0,-4.92 0,0"
             style="fill:#ffffff;fill-opacity:1;fill-rule:nonzero;stroke:none"
             id="path4127"
             inkscape:connector-curvature="0" /></g><g
           id="g4129"
           transform="translate(262.668,37.9004)"><path
             d="M 0,0 2.201,2.602 C 3.692,1.445 5.28,0.578 7.172,0.578 c 1.493,0 2.399,0.578 2.399,1.581 l 0,0.129 c 0,0.892 -0.562,1.35 -3.332,2.048 -3.39,0.867 -5.512,1.734 -5.512,5.203 0,2.891 2.391,4.914 5.814,4.914 2.412,0 4.506,-0.629 6.18,-2.023 L 10.859,9.544 c -1.469,1.151 -2.929,1.729 -4.337,1.729 -1.433,0 -2.2,-0.578 -2.2,-1.445 0,-1.156 0.756,-1.445 3.647,-2.312 3.358,-0.868 5.263,-2.024 5.263,-4.914 0,-3.469 -2.54,-5.204 -6.117,-5.204 C 4.563,-2.602 2.01,-1.734 0,0"
             style="fill:#ffffff;fill-opacity:1;fill-rule:nonzero;stroke:none"
             id="path4131"
             inkscape:connector-curvature="0" /></g><path
           d="m 278.118,52.151 3.616,0 0,-16.601 -3.616,0 0,16.601 z"
           style="fill:#ffffff;fill-opacity:1;fill-rule:nonzero;stroke:none"
           id="path4133"
           inkscape:connector-curvature="0" /><g
           id="g4135"
           transform="translate(283.9932,43.7168)"><path
             d="m 0,0 0,0.138 c 0,4.741 3.567,8.58 8.699,8.58 3.159,0 5.097,-0.948 6.616,-2.534 L 12.979,3.434 C 11.652,4.59 10.375,5.457 8.678,5.457 5.851,5.457 3.823,3.084 3.823,0.254 l 0,-0.116 c 0,-2.822 1.987,-5.341 4.855,-5.341 1.963,0 3.122,0.832 4.382,1.988 l 2.334,-2.312 C 13.687,-7.318 11.816,-8.441 8.612,-8.441 3.695,-8.441 0,-4.66 0,0"
             style="fill:#ffffff;fill-opacity:1;fill-rule:nonzero;stroke:none"
             id="path4137"
             inkscape:connector-curvature="0" /></g><g
           id="g4139"
           transform="translate(240.2339,52.1514)"><path
             d="M 0,0 -4.439,-7.024 -8.816,0 l -3.955,0 0,-14.54 -0.122,0 c -1.113,0 -2.013,-0.289 -2.67,-0.867 -0.734,-0.679 -1.066,-1.446 -1.066,-2.457 0,-0.982 0.287,-1.591 0.86,-2.169 0.579,-0.578 1.374,-0.866 2.343,-0.866 0.84,0 1.63,0.26 2.312,0.578 0.746,0.288 1.192,0.866 1.486,1.445 0.264,0.578 0.433,1.24 0.453,2.275 l 0.017,0 0,10.733 4.643,-6.938 0.076,0 4.76,6.972 0,-8.706 -0.117,0 c -1.07,0 -2.013,-0.289 -2.695,-0.867 -0.65,-0.679 -1.018,-1.446 -1.018,-2.457 0,-0.982 0.284,-1.591 0.855,-2.169 0.572,-0.578 1.349,-0.866 2.38,-0.866 0.802,0 1.563,0.26 2.311,0.578 0.673,0.288 1.193,0.866 1.484,1.445 0.272,0.578 0.374,1.24 0.397,2.275 l 0.005,0 L 3.923,0 0,0 z"
             style="fill:#ffffff;fill-opacity:1;fill-rule:nonzero;stroke:none"
             id="path4141"
             inkscape:connector-curvature="0" /></g></g></g><g
       id="g4450"
       transform="translate(16,-20.8)"><text
         transform="scale(1,-1)"
         sodipodi:linespacing="125%"
         id="text4423"
         y="-532.28625"
         x="27.924641"
         style="font-size:56px;font-style:normal;font-variant:normal;font-weight:normal;font-stretch:normal;text-align:start;line-height:125%;letter-spacing:0px;word-spacing:0px;writing-mode:lr-tb;text-anchor:start;fill:#000000;fill-opacity:1;stroke:none;font-family:PF Din Text Comp Pro Medium;-inkscape-font-specification:'PF Din Text Comp Pro Medium,'"
         xml:space="preserve"><tspan
           style="font-size:56px;font-style:normal;font-variant:normal;font-weight:normal;font-stretch:normal;text-align:start;line-height:125%;writing-mode:lr-tb;text-anchor:start;fill:#ffffff;fill-opacity:1;font-family:PF Din Text Comp Pro Medium;-inkscape-font-specification:'PF Din Text Comp Pro Medium,'"
           y="-532.28625"
           x="27.924641"
           id="tspan4425"
           sodipodi:role="line">THANK YOU</tspan></text>
<text
         transform="scale(1,-1)"
         sodipodi:linespacing="125%"
         id="text4423-9"
         y="-494.36627"
         x="26.137085"
         style="font-size:36px;font-style:oblique;font-variant:normal;font-weight:normal;font-stretch:normal;text-align:start;line-height:125%;letter-spacing:0px;word-spacing:0px;writing-mode:lr-tb;text-anchor:start;fill:#ffffff;fill-opacity:1;stroke:none;font-family:PF Din Text Comp Pro;-inkscape-font-specification:PF Din Text Comp Pro Oblique"
         xml:space="preserve"><tspan
           id="tspan4448"
           sodipodi:role="line"
           x="26.137085"
           y="-494.36627">FOR SPONSORING THE SNACKS</tspan></text>
</g><text
       xml:space="preserve"
       style="font-size:40px;font-style:normal;font-variant:normal;font-weight:normal;font-stretch:normal;line-height:125%;letter-spacing:0px;word-spacing:0px;fill:#000000;fill-opacity:1;stroke:none;font-family:PF Din Text Comp Pro;-inkscape-font-specification:PF Din Text Comp Pro"
       x="247.62524"
       y="384.59842"
       id="text4931"
       sodipodi:linespacing="125%"
       transform="matrix(0.8,0,0,-0.8,0,595.27599)"><tspan
         sodipodi:role="line"
         id="tspan4933"></tspan></text>
<g
       transform="translate(4.7456195,4.392142)"
       id="g7429"><g
         id="g7431"
         clip-path="url(#clipPath7433)"><g
           id="g7437"
           transform="translate(425.832,369.7002)"><path
             inkscape:connector-curvature="0"
             d="m 0,0 0,-34.884 c 39.848,-4.762 70.715,-38.612 70.768,-79.805 l -16.379,0.234 C 54.264,-82.518 30.684,-56.078 0,-51.431 l 0,-63.505 -19.068,0.006 0,63.538 c -30.906,-4.571 -54.579,-31.153 -54.579,-63.315 l -16.372,-0.123 c 0,41.34 30.997,75.305 70.951,79.954 l 0,34.804 -70.435,0.072 0,16.452 159.923,0.011 0,-16.535 L 0,0 z"
             style="fill:#309ed4;fill-opacity:1;fill-rule:nonzero;stroke:none"
             id="path7439" /></g><g
           id="g7441"
           transform="translate(255.9331,191.3672)"><path
             inkscape:connector-curvature="0"
             d="m 0,0 -12.648,0 0,6.789 33.527,0 0,-6.789 -12.782,0 0,-37.638 -8.097,0 L 0,0 z"
             style="fill:#383837;fill-opacity:1;fill-rule:nonzero;stroke:none"
             id="path7443" /></g><g
           id="g7445"
           transform="translate(319.4907,171.8408)"><path
             inkscape:connector-curvature="0"
             d="m 0,0 c -0.272,5.723 -0.596,12.614 -0.536,18.677 l -0.199,0 C -2.179,13.228 -4.029,7.26 -5.997,1.661 l -6.525,-19.28 -6.196,0 -5.929,19.035 c -1.71,5.618 -3.291,11.689 -4.467,17.261 l -0.14,0 c -0.201,-5.816 -0.454,-12.851 -0.789,-18.924 l -0.983,-17.864 -7.575,0 2.958,44.426 10.671,0 5.796,-17.865 c 1.582,-5.23 2.971,-10.48 4.086,-15.382 l 0.201,0 c 1.186,4.778 2.7,10.255 4.41,15.487 l 6.126,17.76 10.539,0 2.567,-44.426 -7.909,0 L 0,0 z"
             style="fill:#383837;fill-opacity:1;fill-rule:nonzero;stroke:none"
             id="path7447" /></g><g
           id="g7449"
           transform="translate(349.9541,162.5498)"><path
             inkscape:connector-curvature="0"
             d="m 0,0 c 2.576,-1.455 6.593,-2.852 10.734,-2.852 5.15,0 8.039,2.483 8.039,6.072 0,3.426 -2.233,5.353 -7.835,7.382 -7.379,2.607 -12.053,6.544 -12.053,12.861 0,7.281 6.048,12.757 15.74,12.757 4.803,0 8.294,-1.06 10.608,-2.152 l -1.91,-6.563 c -1.653,0.841 -4.744,2.05 -8.897,2.05 -5.138,0 -7.307,-2.645 -7.307,-5.27 0,-3.446 2.57,-5.004 8.488,-7.261 7.716,-2.974 11.404,-6.894 11.404,-13.211 0,-7.157 -5.404,-13.329 -16.798,-13.329 -4.746,0 -9.617,1.395 -12.051,2.83 L 0,0 z"
             style="fill:#383837;fill-opacity:1;fill-rule:nonzero;stroke:none"
             id="path7451" /></g><g
           id="g7453"
           transform="translate(397.645,157.3174)"><path
             inkscape:connector-curvature="0"
             d="m 0,0 c 5.526,0 9.662,5.232 9.662,12.493 0,5.372 -2.687,12.162 -9.537,12.162 -6.789,0 -9.764,-6.317 -9.764,-12.39 C -9.639,5.336 -5.675,0 -0.075,0 L 0,0 z m -0.279,-4.305 c -8.563,0 -15.276,6.317 -15.276,16.43 0,10.624 7.046,16.921 15.803,16.921 9.168,0 15.361,-6.667 15.361,-16.338 0,-11.886 -8.252,-17.013 -15.834,-17.013 l -0.054,0 z"
             style="fill:#383837;fill-opacity:1;fill-rule:nonzero;stroke:none"
             id="path7455" /></g><g
           id="g7457"
           transform="translate(421.0659,153.7295)"><path
             inkscape:connector-curvature="0"
             d="m 0,0 0,27.495 -4.409,0 0,4.421 4.409,0 0,1.453 c 0,4.515 1.071,8.574 3.754,11.182 2.186,2.133 5.063,2.973 7.725,2.973 2.102,0 3.82,-0.472 4.908,-0.944 L 15.67,42.074 c -0.9,0.44 -2.031,0.795 -3.755,0.795 -4.875,0 -6.19,-4.391 -6.19,-9.272 l 0,-1.681 7.727,0 0,-4.421 -7.668,0 L 5.784,0 0,0 z"
             style="fill:#383837;fill-opacity:1;fill-rule:nonzero;stroke:none"
             id="path7459" /></g><g
           id="g7461"
           transform="translate(446.7422,193.2744)"><path
             inkscape:connector-curvature="0"
             d="m 0,0 0,-7.629 8.324,0 0,-4.421 -8.324,0 0,-17.137 c 0,-3.936 1.131,-6.193 4.348,-6.193 1.601,0 2.502,0.122 3.382,0.366 l 0.249,-4.407 C 6.85,-39.789 5.064,-40.24 2.852,-40.24 c -2.729,0 -4.881,0.941 -6.25,2.48 -1.606,1.784 -2.262,4.637 -2.262,8.349 l 0,17.361 -4.944,0 0,4.421 4.944,0 0,5.845 L 0,0 z"
             style="fill:#383837;fill-opacity:1;fill-rule:nonzero;stroke:none"
             id="path7463" /></g><g
           id="g7465"
           transform="translate(463.8867,185.6455)"><path
             inkscape:connector-curvature="0"
             d="m 0,0 4.248,-16.185 c 0.879,-3.569 1.721,-6.911 2.315,-10.235 l 0.187,0 c 0.758,3.303 1.779,6.666 2.85,10.217 L 14.789,0 19.67,0 24.609,-15.959 c 1.194,-3.795 2.094,-7.158 2.858,-10.461 l 0.181,0 c 0.536,3.303 1.375,6.648 2.444,10.357 L 34.619,0 40.34,0 30.092,-31.916 l -5.295,0 -4.842,15.24 c -1.127,3.588 -2.07,6.789 -2.848,10.5 l -0.121,0 C 16.203,-9.99 15.201,-13.332 14.07,-16.778 l -5.127,-15.138 -5.291,0 L -5.947,0 0,0 z"
             style="fill:#383837;fill-opacity:1;fill-rule:nonzero;stroke:none"
             id="path7467" /></g><g
           id="g7469"
           transform="translate(526.8086,170.0254)"><path
             inkscape:connector-curvature="0"
             d="m 0,0 c -6.316,0.135 -13.475,-1.036 -13.475,-7.231 0,-3.815 2.502,-5.496 5.373,-5.496 4.227,0 6.911,2.625 7.856,5.355 C -0.063,-6.776 0,-6.162 0,-5.569 L 0,0 z m 5.703,-8.665 c 0,-2.749 0.123,-5.477 0.43,-7.631 l -5.19,0 -0.529,4.042 -0.187,0 c -1.719,-2.502 -5.231,-4.76 -9.764,-4.76 -6.442,0 -9.764,4.533 -9.764,9.169 0,7.735 6.852,11.917 19.178,11.813 l 0,0.7 c 0,2.624 -0.719,7.401 -7.262,7.384 -2.992,0 -6.09,-0.853 -8.345,-2.381 l -1.313,3.838 c 2.625,1.658 6.537,2.829 10.547,2.829 9.818,0 12.199,-6.667 12.199,-13.089 l 0,-11.914 z"
             style="fill:#383837;fill-opacity:1;fill-rule:nonzero;stroke:none"
             id="path7471" /></g><g
           id="g7473"
           transform="translate(541.7578,175.6553)"><path
             inkscape:connector-curvature="0"
             d="m 0,0 c 0,3.797 -0.063,7.016 -0.24,9.99 l 5.06,0 0.244,-6.299 0.227,0 c 1.436,4.288 5.006,7.017 8.865,7.017 0.569,0 1.041,-0.104 1.617,-0.135 l 0,-5.466 C 15.178,5.129 14.584,5.231 13.762,5.231 9.701,5.231 6.789,2.133 6.01,-2.153 5.887,-2.994 5.783,-3.938 5.783,-4.882 l 0,-17.044 -5.783,0 L 0,0 z"
             style="fill:#383837;fill-opacity:1;fill-rule:nonzero;stroke:none"
             id="path7475" /></g><g
           id="g7477"
           transform="translate(583.5137,172.7852)"><path
             inkscape:connector-curvature="0"
             d="M 0,0 C 0.104,3.691 -1.539,9.414 -7.979,9.414 -13.928,9.414 -16.43,4.04 -16.816,0 L 0,0 z m -16.92,-4.165 c 0.121,-7.752 5.107,-10.971 10.848,-10.971 4.164,0 6.771,0.717 8.82,1.576 l 1.066,-4.078 c -2.029,-0.945 -5.599,-2.113 -10.621,-2.113 -9.763,0 -15.713,6.543 -15.713,16.162 0,9.555 5.721,17.167 15.014,17.167 10.377,0 13.106,-9.169 13.106,-15.013 0,-1.19 -0.106,-2.113 -0.229,-2.73 l -22.291,0 z"
             style="fill:#383837;fill-opacity:1;fill-rule:nonzero;stroke:none"
             id="path7479" /></g></g></g></g></svg>